<svg xmlns="http://www.w3.org/2000/svg" xmlns:xlink="http://www.w3.org/1999/xlink" width="374.473" height="389" viewBox="0 0 374.473 389">
  <defs>
    <clipPath id="clip-path">
      <rect id="Rectangle_39436" data-name="Rectangle 39436" width="374.472" height="389" fill="none"/>
    </clipPath>
  </defs>
  <g id="Group_122029" data-name="Group 122029" transform="translate(-957 -15035.25)">
    <g id="Group_122028" data-name="Group 122028" transform="translate(957 15035.25)">
      <g id="Group_122027" data-name="Group 122027" clip-path="url(#clip-path)">
        <path id="Path_185293" data-name="Path 185293" d="M216.478,16.8q7.378,1.152,14.564,2.881l-1.281,4.786Zm-37.2,302.771h15.91v27.838h-15.91Zm82.261,7.471-2.955,1.708-8.351-14.462,2.955-1.708Zm-148.609,0,2.958,1.708,8.349-14.462-2.955-1.708Zm201.3-53.937-1.71,2.958-14.462-8.349,1.705-2.958Zm-16.172-137.3,1.705,2.958,14.465-8.351-1.708-2.955Zm34.829,73.9H305.048V193.8h27.838ZM220.945,333.005l2.718-.726,2.63,9.806-2.718.728Zm61.109-34.439,1.987-1.989,7.181,7.181-1.989,1.989Zm35.7-60.378.728-2.716,9.806,2.628-.726,2.716ZM284.041,106.945l-1.987-1.989,7.178-7.181,1.989,1.992ZM150.9,342.813l-2.716-.728,2.628-9.806,2.718.726Zm28.383-286.7h15.91V83.948h-15.91ZM124.239,89.234l-2.958,1.708-8.351-14.465,2.958-1.705Zm125.993,0,2.955,1.708,8.351-14.465-2.955-1.705ZM76.414,135.808l-1.705,2.958-14.462-8.351,1.705-2.955Zm-16.17,137.3,1.708,2.958,14.462-8.349-1.705-2.958Zm9.179-63.395H41.585V193.8H69.422ZM148.18,61.438l2.716-.728,2.63,9.808-2.718.728ZM83.251,99.766l1.987-1.992,7.181,7.181-1.989,1.989ZM46.184,165.423l.726-2.72,9.808,2.632-.728,2.716Zm272.3,2.628-.728-2.716,9.808-2.632.726,2.72ZM46.91,240.816l-.726-2.716,9.806-2.628.728,2.716Zm38.328,64.931-1.987-1.989,7.178-7.181,1.989,1.989Zm138.425-234.5-2.718-.728,2.63-9.808,2.718.728ZM321.57,183.992l-.4-2.786,10.05-1.437.4,2.786ZM43.246,223.752l-.4-2.784L52.9,219.532l.4,2.786ZM295.519,120.3l-1.716-2.231,8.052-6.188,1.714,2.231ZM72.618,291.643,70.9,289.412l8.052-6.186,1.714,2.231ZM312.266,149.524l-1.111-2.586,9.328-4.01,1.109,2.583ZM53.987,260.6l-1.109-2.584L62.2,254l1.111,2.583ZM270.43,94.8,268.192,93.1l6.151-8.078,2.238,1.7ZM100.13,318.5l-2.24-1.7,6.151-8.078,2.24,1.7ZM239.969,76.939l-2.6-1.069,3.853-9.392,2.6,1.067ZM133.251,337.046l-2.6-1.067,3.855-9.394,2.6,1.067ZM207.594,67.794l-2.786-.392,1.422-10.055,2.784.394ZM168.243,346.176l-2.786-.394,1.422-10.055,2.784.394ZM168.956,67.5l-2.786.407L164.7,57.858l2.782-.409Zm40.817,278.169-2.782.407-1.477-10.046,2.786-.409ZM137.252,75.815l-2.6,1.063-3.844-9.4,2.606-1.067ZM243.666,336.044l-2.6,1.065-3.842-9.4,2.6-1.065ZM106.654,92.817l-2.242,1.7-6.122-8.1,2.242-1.7ZM276.18,317.108l-2.242,1.7-6.122-8.1,2.242-1.694ZM81.535,116.973,79.8,119.187l-7.988-6.272,1.741-2.212ZM302.66,290.606l-1.736,2.214-7.988-6.27,1.739-2.214ZM62.706,148.342l-1.083,2.6-9.372-3.906,1.08-2.6ZM322.219,256.491l-1.08,2.6-9.372-3.906,1.083-2.595ZM53.36,180.821l-.407,2.782-10.048-1.466.4-2.782Zm278.2,40.566-.4,2.784L321.112,222.7l.4-2.784ZM193.272,183.16l-5.667-57.752h-.742L181,183.224a19.557,19.557,0,0,0-6.164,33.654l-49.047,84.936,4.036,2.33,48.941-84.756a19.56,19.56,0,0,0,28.022-17.627c0-.288-.007-.572-.018-.858l81.5-54.925-.372-.64L201.417,188.3a19.557,19.557,0,0,0-8.144-5.141m-6.036,4.1a14.5,14.5,0,1,1-14.5,14.5,14.5,14.5,0,0,1,14.5-14.5M220.8,27.833,196.69,13.917,172.584,0V15.1C76.024,22.572,0,103.285,0,201.762,0,305.17,83.825,389,187.236,389S374.47,305.17,374.472,201.762h-26.3A160.94,160.94,0,1,1,172.584,41.492V55.669L196.69,41.75Zm7.093,3.613L224.23,45.1q-7.44-1.749-15.131-2.8Zm12.451-9.278a186,186,0,0,1,36.33,15.067L263.513,60.021A159.952,159.952,0,0,0,233.53,47.584ZM285,42.056a187.852,187.852,0,0,1,31.178,23.962l-18.6,18.6a161.63,161.63,0,0,0-25.729-19.775Zm37.982,30.767A188.235,188.235,0,0,1,346.938,104l-22.789,13.157a161.391,161.391,0,0,0-19.77-25.732Zm28.773,39.514a185.969,185.969,0,0,1,15.07,36.325L341.4,155.47a160.073,160.073,0,0,0-12.431-29.983Zm17.554,45.623c3.01,12.554,4.766,21.4,5.1,34.8H348.1c-.321-11.045-1.765-17.614-4.208-27.992Z" fill="#22afd6" fill-rule="evenodd"/>
        <rect id="Rectangle_39285" data-name="Rectangle 39285" width="68.01" height="5.231" transform="translate(77.358 114.103)" fill="#565759"/>
        <rect id="Rectangle_39286" data-name="Rectangle 39286" width="34.004" height="5.231" transform="translate(111.366 114.103)" fill="#444445"/>
        <rect id="Rectangle_39287" data-name="Rectangle 39287" width="48.099" height="40.808" transform="translate(87.316 64.022)" fill="#d8bd76"/>
        <rect id="Rectangle_39288" data-name="Rectangle 39288" width="24.048" height="40.808" transform="translate(111.366 64.022)" fill="#c4aa68"/>
        <rect id="Rectangle_39289" data-name="Rectangle 39289" width="50.473" height="7.229" transform="translate(86.129 63.382)" fill="#e7d691"/>
        <rect id="Rectangle_39290" data-name="Rectangle 39290" width="25.234" height="7.229" transform="translate(111.366 63.382)" fill="#d8bd76"/>
        <rect id="Rectangle_39291" data-name="Rectangle 39291" width="16.383" height="7.431" transform="translate(90.084 73.947)" fill="#dfe9f2"/>
        <rect id="Rectangle_39292" data-name="Rectangle 39292" width="1.741" height="5.53" transform="translate(103.53 74.897)" fill="#818286"/>
        <rect id="Rectangle_39293" data-name="Rectangle 39293" width="1.741" height="5.53" transform="translate(100.42 74.897)" fill="#818286"/>
        <rect id="Rectangle_39294" data-name="Rectangle 39294" width="1.741" height="5.53" transform="translate(97.209 74.897)" fill="#818286"/>
        <rect id="Rectangle_39295" data-name="Rectangle 39295" width="1.743" height="5.53" transform="translate(94.265 74.897)" fill="#818286"/>
        <rect id="Rectangle_39296" data-name="Rectangle 39296" width="1.741" height="5.53" transform="translate(91.281 74.897)" fill="#818286"/>
        <rect id="Rectangle_39297" data-name="Rectangle 39297" width="76.935" height="9.54" transform="translate(72.897 104.872)" fill="#818286"/>
        <rect id="Rectangle_39298" data-name="Rectangle 39298" width="38.467" height="9.54" transform="translate(111.366 104.872)" fill="#565759"/>
        <rect id="Rectangle_39299" data-name="Rectangle 39299" width="33.082" height="21.542" transform="translate(130.599 40.861)" fill="#818286"/>
        <rect id="Rectangle_39300" data-name="Rectangle 39300" width="16.542" height="21.542" transform="translate(147.139 40.861)" fill="#565759"/>
        <rect id="Rectangle_39301" data-name="Rectangle 39301" width="5.385" height="58.47" transform="translate(144.448 55.939)" fill="#818286"/>
        <rect id="Rectangle_39302" data-name="Rectangle 39302" width="2.694" height="58.47" transform="translate(147.139 55.939)" fill="#565759"/>
        <rect id="Rectangle_39303" data-name="Rectangle 39303" width="26.927" height="16.771" transform="translate(133.676 43.246)" fill="#91cebe"/>
        <rect id="Rectangle_39304" data-name="Rectangle 39304" width="13.463" height="16.771" transform="translate(147.139 43.246)" fill="#81b1a3"/>
        <path id="Path_185294" data-name="Path 185294" d="M62.374,23.556h3.162c1.144,0,1.611.1,1.611.959,0,1.054-3.517,3.9-4.661,4.661v2.372h7.4V29.091H66.92c.876-.786,2.966-2.674,2.966-4.619,0-1.974-1.017-3.387-3.219-3.387a17.907,17.907,0,0,0-4.293.425Zm8.585,7.667a.317.317,0,0,0,.339.326h1.6c.2,0,.354-.07.354-.326v-1.65a.309.309,0,0,0-.354-.352H71.3a.315.315,0,0,0-.339.352Zm0-5.154a.317.317,0,0,0,.339.326h1.6c.2,0,.354-.07.354-.326v-1.65a.309.309,0,0,0-.354-.352H71.3a.315.315,0,0,0-.339.352Zm3.5,2.771a2.44,2.44,0,0,0,2.724,2.709H79.5a2.438,2.438,0,0,0,2.625-2.709V23.935c0-1.466-.566-2.707-2.61-2.707H77.2a2.523,2.523,0,0,0-2.738,2.85Zm2.738-.579V24.5c0-.183-.029-.816.706-.816h.805c.381,0,.676.167.676.816v3.776c0,.759-.321.814-.788.814H78c-.31,0-.805-.042-.805-.83" transform="translate(74.886 25.315)" fill="#dfe9f2" fill-rule="evenodd"/>
        <path id="Path_185295" data-name="Path 185295" d="M66.863,31.471h.643c.2,0,.352-.07.352-.326v-1.65a.307.307,0,0,0-.352-.352h-.643Zm0-5.154h.643c.2,0,.352-.073.352-.326V24.339a.308.308,0,0,0-.352-.352h-.643Zm2.209,2.445A2.44,2.44,0,0,0,71.8,31.471h2.315a2.438,2.438,0,0,0,2.628-2.709V23.857c0-1.466-.566-2.707-2.612-2.707H71.812A2.524,2.524,0,0,0,69.072,24Zm2.74-.579V24.422c0-.185-.031-.816.7-.816h.805c.381,0,.678.167.678.816V28.2c0,.761-.323.816-.79.816h-.594c-.31,0-.8-.042-.8-.83" transform="translate(80.276 25.393)" fill="#ccd7e0" fill-rule="evenodd"/>
        <rect id="Rectangle_39305" data-name="Rectangle 39305" width="29.429" height="29.429" transform="translate(247.035 50.398)" fill="#d8bd76"/>
        <rect id="Rectangle_39306" data-name="Rectangle 39306" width="14.713" height="29.429" transform="translate(261.751 50.398)" fill="#c4aa68"/>
        <rect id="Rectangle_39307" data-name="Rectangle 39307" width="30.881" height="5.213" transform="translate(246.309 49.936)" fill="#e7d691"/>
        <rect id="Rectangle_39308" data-name="Rectangle 39308" width="15.439" height="5.213" transform="translate(261.751 49.936)" fill="#d8bd76"/>
        <rect id="Rectangle_39309" data-name="Rectangle 39309" width="10.024" height="4.544" transform="translate(248.899 58.245)" fill="#dfe9f2"/>
        <rect id="Rectangle_39310" data-name="Rectangle 39310" width="1.063" height="3.382" transform="translate(257.125 58.829)" fill="#818286"/>
        <rect id="Rectangle_39311" data-name="Rectangle 39311" width="1.063" height="3.382" transform="translate(255.224 58.829)" fill="#818286"/>
        <rect id="Rectangle_39312" data-name="Rectangle 39312" width="1.065" height="3.382" transform="translate(253.256 58.829)" fill="#818286"/>
        <rect id="Rectangle_39313" data-name="Rectangle 39313" width="1.063" height="3.382" transform="translate(251.458 58.829)" fill="#818286"/>
        <rect id="Rectangle_39314" data-name="Rectangle 39314" width="1.065" height="3.382" transform="translate(249.632 58.829)" fill="#818286"/>
        <rect id="Rectangle_39315" data-name="Rectangle 39315" width="38.262" height="32.461" transform="translate(242.619 79.968)" fill="#d8bd76"/>
        <rect id="Rectangle_39316" data-name="Rectangle 39316" width="19.128" height="32.461" transform="translate(261.751 79.968)" fill="#c4aa68"/>
        <rect id="Rectangle_39317" data-name="Rectangle 39317" width="40.148" height="5.748" transform="translate(241.675 79.459)" fill="#e7d691"/>
        <rect id="Rectangle_39318" data-name="Rectangle 39318" width="20.072" height="5.748" transform="translate(261.751 79.459)" fill="#d8bd76"/>
        <rect id="Rectangle_39319" data-name="Rectangle 39319" width="13.034" height="5.913" transform="translate(244.821 87.861)" fill="#dfe9f2"/>
        <rect id="Rectangle_39320" data-name="Rectangle 39320" width="1.384" height="4.399" transform="translate(255.516 88.618)" fill="#818286"/>
        <rect id="Rectangle_39321" data-name="Rectangle 39321" width="1.386" height="4.399" transform="translate(253.043 88.618)" fill="#818286"/>
        <rect id="Rectangle_39322" data-name="Rectangle 39322" width="1.384" height="4.399" transform="translate(250.49 88.618)" fill="#818286"/>
        <rect id="Rectangle_39323" data-name="Rectangle 39323" width="1.386" height="4.399" transform="translate(248.149 88.618)" fill="#818286"/>
        <rect id="Rectangle_39324" data-name="Rectangle 39324" width="1.384" height="4.399" transform="translate(245.777 88.618)" fill="#818286"/>
        <rect id="Rectangle_39325" data-name="Rectangle 39325" width="5.086" height="3.112" transform="translate(287.15 42.348)" fill="#444445"/>
        <rect id="Rectangle_39326" data-name="Rectangle 39326" width="7.086" height="73.205" transform="translate(281.774 42.335)" fill="#818286"/>
        <rect id="Rectangle_39327" data-name="Rectangle 39327" width="3.541" height="73.205" transform="translate(285.317 42.335)" fill="#565759"/>
        <path id="Path_185296" data-name="Path 185296" d="M112.061,51.063h44.956v3.169h-52.4Z" transform="translate(125.606 61.306)" fill="#444445" fill-rule="evenodd"/>
        <path id="Path_185297" data-name="Path 185297" d="M135.842,46.618A11.342,11.342,0,1,1,124.5,57.958a11.339,11.339,0,0,1,11.342-11.34" transform="translate(149.475 55.969)" fill="#565759" fill-rule="evenodd"/>
        <path id="Path_185298" data-name="Path 185298" d="M129.654,46.618a11.342,11.342,0,0,1,0,22.684Z" transform="translate(155.663 55.969)" fill="#444445" fill-rule="evenodd"/>
        <path id="Path_185299" data-name="Path 185299" d="M132.09,49.743a4.465,4.465,0,1,1-4.465,4.463,4.465,4.465,0,0,1,4.465-4.463" transform="translate(153.227 59.721)" fill="#818286" fill-rule="evenodd"/>
        <path id="Path_185300" data-name="Path 185300" d="M129.654,49.743a4.465,4.465,0,0,1,0,8.93Z" transform="translate(155.663 59.721)" fill="#565759" fill-rule="evenodd"/>
        <path id="Path_185301" data-name="Path 185301" d="M134.236,18.411H150.1a1.932,1.932,0,0,1,1.925,1.926v2.927a1.93,1.93,0,0,1-1.925,1.926h-15.86a1.929,1.929,0,0,1-1.926-1.926V20.337a1.93,1.93,0,0,1,1.926-1.926" transform="translate(158.852 22.104)" fill="#d5544f" fill-rule="evenodd"/>
        <path id="Path_185302" data-name="Path 185302" d="M152.021,19.952v1.461a1.934,1.934,0,0,1-1.925,1.928h-15.86a1.932,1.932,0,0,1-1.926-1.928V19.952Z" transform="translate(158.852 23.954)" fill="#b33c36" fill-rule="evenodd"/>
        <rect id="Rectangle_39328" data-name="Rectangle 39328" width="69.194" height="58.703" transform="translate(84.329 267.727)" fill="#d8bd76"/>
        <rect id="Rectangle_39329" data-name="Rectangle 39329" width="34.593" height="58.705" transform="translate(118.929 267.727)" fill="#c4aa68"/>
        <rect id="Rectangle_39330" data-name="Rectangle 39330" width="72.607" height="10.4" transform="translate(82.624 266.805)" fill="#e7d691"/>
        <rect id="Rectangle_39331" data-name="Rectangle 39331" width="36.301" height="10.398" transform="translate(118.929 266.807)" fill="#d8bd76"/>
        <rect id="Rectangle_39332" data-name="Rectangle 39332" width="23.568" height="10.693" transform="translate(88.315 282)" fill="#dfe9f2"/>
        <rect id="Rectangle_39333" data-name="Rectangle 39333" width="2.504" height="7.953" transform="translate(107.656 283.369)" fill="#818286"/>
        <rect id="Rectangle_39334" data-name="Rectangle 39334" width="2.506" height="7.953" transform="translate(103.184 283.369)" fill="#818286"/>
        <rect id="Rectangle_39335" data-name="Rectangle 39335" width="2.506" height="7.953" transform="translate(98.563 283.369)" fill="#818286"/>
        <rect id="Rectangle_39336" data-name="Rectangle 39336" width="2.504" height="7.953" transform="translate(94.331 283.369)" fill="#818286"/>
        <rect id="Rectangle_39337" data-name="Rectangle 39337" width="2.504" height="7.953" transform="translate(90.038 283.369)" fill="#818286"/>
        <path id="Path_185303" data-name="Path 185303" d="M53.405,140.328,68.057,130.28h24.62l14.337,10.048-6.525,28.231L80.367,188.686,60.243,168.56Z" transform="translate(64.119 156.414)" fill="#ccd7e0" fill-rule="evenodd"/>
        <path id="Path_185304" data-name="Path 185304" d="M65.586,130.28H78.052l14.339,10.048-6.525,28.234L65.742,188.686l-.156-.158Z" transform="translate(78.743 156.414)" fill="#b5bfc9" fill-rule="evenodd"/>
        <path id="Path_185305" data-name="Path 185305" d="M55.53,140.5l12.1-8.5h20.32l11.837,8.5L94.4,164.38,77.787,181.4,61.175,164.38Z" transform="translate(66.67 158.48)" fill="#d5544f" fill-rule="evenodd"/>
        <path id="Path_185306" data-name="Path 185306" d="M65.586,132H75.878l11.835,8.5L82.328,164.38,65.716,181.4l-.13-.132Z" transform="translate(78.743 158.479)" fill="#b33c36" fill-rule="evenodd"/>
        <rect id="Rectangle_39338" data-name="Rectangle 39338" width="89.745" height="76.145" transform="translate(148.73 157.16)" fill="#d8bd76"/>
        <rect id="Rectangle_39339" data-name="Rectangle 39339" width="44.872" height="76.145" transform="translate(193.607 157.16)" fill="#c4aa68"/>
        <rect id="Rectangle_39340" data-name="Rectangle 39340" width="94.177" height="13.487" transform="translate(146.514 155.965)" fill="#e7d691"/>
        <rect id="Rectangle_39341" data-name="Rectangle 39341" width="47.084" height="13.487" transform="translate(193.607 155.965)" fill="#d8bd76"/>
        <rect id="Rectangle_39342" data-name="Rectangle 39342" width="30.571" height="13.868" transform="translate(153.897 175.676)" fill="#dfe9f2"/>
        <rect id="Rectangle_39343" data-name="Rectangle 39343" width="3.25" height="10.316" transform="translate(178.982 177.452)" fill="#818286"/>
        <rect id="Rectangle_39344" data-name="Rectangle 39344" width="3.25" height="10.316" transform="translate(173.181 177.452)" fill="#818286"/>
        <rect id="Rectangle_39345" data-name="Rectangle 39345" width="3.25" height="10.316" transform="translate(167.191 177.452)" fill="#818286"/>
        <rect id="Rectangle_39346" data-name="Rectangle 39346" width="3.25" height="10.316" transform="translate(161.7 177.452)" fill="#818286"/>
        <rect id="Rectangle_39347" data-name="Rectangle 39347" width="3.25" height="10.316" transform="translate(156.131 177.452)" fill="#818286"/>
        <path id="Path_185307" data-name="Path 185307" d="M119.268,68.461a5,5,0,0,1,4.667.858c.977.161,5.554.453,5.409.933l-1.219,3.99c-.132.436-4.073.024-4.434.394a4.488,4.488,0,0,1-2.887,1.259H107.332a2.661,2.661,0,0,1-.594.07H93.1c-3.3,0-2.564-3.224.717-3.589l12.922-1.435a.663.663,0,0,1,.114,0c3.8-.836,8.549-1.712,12.416-2.482" transform="translate(109.205 81.932)" fill="#dfe9f2" fill-rule="evenodd"/>
        <path id="Path_185308" data-name="Path 185308" d="M100.394,76.747l9.65-6.787a2.172,2.172,0,1,1,2.5,3.554L102.894,80.3a2.173,2.173,0,0,1-2.5-3.554" transform="translate(119.429 83.522)" fill="#dfe9f2" fill-rule="evenodd"/>
        <rect id="Rectangle_39348" data-name="Rectangle 39348" width="14.487" height="11.443" transform="translate(232.104 148.624)" fill="#91cebe"/>
        <rect id="Rectangle_39349" data-name="Rectangle 39349" width="14.487" height="5.86" transform="translate(232.104 154.207)" fill="#81b1a3"/>
        <path id="Path_185309" data-name="Path 185309" d="M119.268,113.367a5,5,0,0,0,4.667-.858c.977-.161,5.554-.453,5.409-.933l-1.219-3.99c-.132-.436-4.073-.022-4.434-.392a4.466,4.466,0,0,0-2.887-1.259H107.332a2.539,2.539,0,0,0-.594-.073H93.1c-3.3,0-2.564,3.226.717,3.589l12.922,1.435a.661.661,0,0,0,.114,0c3.8.836,8.549,1.712,12.416,2.482" transform="translate(109.205 127.099)" fill="#dfe9f2" fill-rule="evenodd"/>
        <path id="Path_185310" data-name="Path 185310" d="M100.394,106.939l9.65,6.787a2.171,2.171,0,1,0,2.5-3.552l-9.647-6.787a2.172,2.172,0,0,0-2.5,3.552" transform="translate(119.429 123.652)" fill="#dfe9f2" fill-rule="evenodd"/>
        <rect id="Rectangle_39350" data-name="Rectangle 39350" width="14.487" height="11.441" transform="translate(232.104 230.796)" fill="#91cebe"/>
        <rect id="Rectangle_39351" data-name="Rectangle 39351" width="14.487" height="5.858" transform="translate(232.104 230.794)" fill="#81b1a3"/>
        <rect id="Rectangle_39352" data-name="Rectangle 39352" width="25.833" height="21.918" transform="translate(250.49 268.554)" fill="#d8bd76"/>
        <rect id="Rectangle_39353" data-name="Rectangle 39353" width="12.915" height="21.918" transform="translate(263.408 268.554)" fill="#c4aa68"/>
        <rect id="Rectangle_39354" data-name="Rectangle 39354" width="27.107" height="3.884" transform="translate(249.852 268.209)" fill="#e7d691"/>
        <rect id="Rectangle_39355" data-name="Rectangle 39355" width="13.551" height="3.884" transform="translate(263.408 268.209)" fill="#d8bd76"/>
        <rect id="Rectangle_39356" data-name="Rectangle 39356" width="8.798" height="3.992" transform="translate(251.978 273.882)" fill="#dfe9f2"/>
        <rect id="Rectangle_39357" data-name="Rectangle 39357" width="0.935" height="2.971" transform="translate(259.198 274.395)" fill="#818286"/>
        <rect id="Rectangle_39358" data-name="Rectangle 39358" width="0.935" height="2.971" transform="translate(257.528 274.395)" fill="#818286"/>
        <rect id="Rectangle_39359" data-name="Rectangle 39359" width="0.937" height="2.971" transform="translate(255.802 274.395)" fill="#818286"/>
        <rect id="Rectangle_39360" data-name="Rectangle 39360" width="0.935" height="2.971" transform="translate(254.222 274.395)" fill="#818286"/>
        <rect id="Rectangle_39361" data-name="Rectangle 39361" width="0.935" height="2.971" transform="translate(252.62 274.395)" fill="#818286"/>
        <rect id="Rectangle_39362" data-name="Rectangle 39362" width="25.835" height="21.918" transform="translate(285.858 268.554)" fill="#d8bd76"/>
        <rect id="Rectangle_39363" data-name="Rectangle 39363" width="12.915" height="21.918" transform="translate(298.778 268.554)" fill="#c4aa68"/>
        <rect id="Rectangle_39364" data-name="Rectangle 39364" width="27.107" height="3.884" transform="translate(285.222 268.209)" fill="#e7d691"/>
        <rect id="Rectangle_39365" data-name="Rectangle 39365" width="13.551" height="3.884" transform="translate(298.778 268.209)" fill="#d8bd76"/>
        <rect id="Rectangle_39366" data-name="Rectangle 39366" width="8.8" height="3.992" transform="translate(287.348 273.882)" fill="#dfe9f2"/>
        <rect id="Rectangle_39367" data-name="Rectangle 39367" width="0.935" height="2.971" transform="translate(294.568 274.395)" fill="#818286"/>
        <rect id="Rectangle_39368" data-name="Rectangle 39368" width="0.935" height="2.971" transform="translate(292.9 274.395)" fill="#818286"/>
        <rect id="Rectangle_39369" data-name="Rectangle 39369" width="0.935" height="2.971" transform="translate(291.173 274.395)" fill="#818286"/>
        <rect id="Rectangle_39370" data-name="Rectangle 39370" width="0.935" height="2.971" transform="translate(289.595 274.395)" fill="#818286"/>
        <rect id="Rectangle_39371" data-name="Rectangle 39371" width="0.935" height="2.971" transform="translate(287.991 274.395)" fill="#818286"/>
        <rect id="Rectangle_39372" data-name="Rectangle 39372" width="25.835" height="21.918" transform="translate(285.858 298.155)" fill="#d8bd76"/>
        <rect id="Rectangle_39373" data-name="Rectangle 39373" width="12.915" height="21.918" transform="translate(298.778 298.155)" fill="#c4aa68"/>
        <rect id="Rectangle_39374" data-name="Rectangle 39374" width="27.107" height="3.882" transform="translate(285.222 297.809)" fill="#e7d691"/>
        <rect id="Rectangle_39375" data-name="Rectangle 39375" width="13.551" height="3.882" transform="translate(298.778 297.809)" fill="#d8bd76"/>
        <rect id="Rectangle_39376" data-name="Rectangle 39376" width="8.8" height="3.99" transform="translate(287.348 303.484)" fill="#dfe9f2"/>
        <rect id="Rectangle_39377" data-name="Rectangle 39377" width="0.935" height="2.969" transform="translate(294.568 303.995)" fill="#818286"/>
        <rect id="Rectangle_39378" data-name="Rectangle 39378" width="0.935" height="2.969" transform="translate(292.9 303.995)" fill="#818286"/>
        <rect id="Rectangle_39379" data-name="Rectangle 39379" width="0.935" height="2.969" transform="translate(291.173 303.995)" fill="#818286"/>
        <rect id="Rectangle_39380" data-name="Rectangle 39380" width="0.935" height="2.969" transform="translate(289.595 303.995)" fill="#818286"/>
        <rect id="Rectangle_39381" data-name="Rectangle 39381" width="0.935" height="2.969" transform="translate(287.991 303.995)" fill="#818286"/>
        <rect id="Rectangle_39382" data-name="Rectangle 39382" width="25.833" height="21.918" transform="translate(250.49 298.155)" fill="#d8bd76"/>
        <rect id="Rectangle_39383" data-name="Rectangle 39383" width="12.915" height="21.918" transform="translate(263.408 298.155)" fill="#c4aa68"/>
        <rect id="Rectangle_39384" data-name="Rectangle 39384" width="27.107" height="3.882" transform="translate(249.852 297.809)" fill="#e7d691"/>
        <rect id="Rectangle_39385" data-name="Rectangle 39385" width="13.551" height="3.882" transform="translate(263.408 297.809)" fill="#d8bd76"/>
        <rect id="Rectangle_39386" data-name="Rectangle 39386" width="8.798" height="3.99" transform="translate(251.978 303.484)" fill="#dfe9f2"/>
        <rect id="Rectangle_39387" data-name="Rectangle 39387" width="0.935" height="2.969" transform="translate(259.198 303.995)" fill="#818286"/>
        <rect id="Rectangle_39388" data-name="Rectangle 39388" width="0.935" height="2.969" transform="translate(257.528 303.995)" fill="#818286"/>
        <rect id="Rectangle_39389" data-name="Rectangle 39389" width="0.937" height="2.969" transform="translate(255.802 303.995)" fill="#818286"/>
        <rect id="Rectangle_39390" data-name="Rectangle 39390" width="0.935" height="2.969" transform="translate(254.222 303.995)" fill="#818286"/>
        <rect id="Rectangle_39391" data-name="Rectangle 39391" width="0.935" height="2.969" transform="translate(252.62 303.995)" fill="#818286"/>
        <rect id="Rectangle_39392" data-name="Rectangle 39392" width="67.609" height="4.813" transform="translate(247.26 320.028)" fill="#818286"/>
        <rect id="Rectangle_39393" data-name="Rectangle 39393" width="67.609" height="2.405" transform="translate(247.26 322.436)" fill="#565759"/>
        <rect id="Rectangle_39394" data-name="Rectangle 39394" width="67.609" height="4.815" transform="translate(247.26 290.362)" fill="#818286"/>
        <rect id="Rectangle_39395" data-name="Rectangle 39395" width="67.609" height="2.405" transform="translate(247.26 292.77)" fill="#565759"/>
        <rect id="Rectangle_39396" data-name="Rectangle 39396" width="4.815" height="70.622" transform="translate(242.874 265.152)" fill="#818286"/>
        <rect id="Rectangle_39397" data-name="Rectangle 39397" width="2.407" height="70.622" transform="translate(245.281 265.152)" fill="#565759"/>
        <rect id="Rectangle_39398" data-name="Rectangle 39398" width="4.813" height="70.622" transform="translate(314.444 265.152)" fill="#818286"/>
        <rect id="Rectangle_39399" data-name="Rectangle 39399" width="2.407" height="70.622" transform="translate(316.847 265.152)" fill="#565759"/>
        <rect id="Rectangle_39400" data-name="Rectangle 39400" width="4.813" height="70.622" transform="translate(278.66 265.152)" fill="#818286"/>
        <rect id="Rectangle_39401" data-name="Rectangle 39401" width="2.407" height="70.622" transform="translate(281.065 265.152)" fill="#565759"/>
        <path id="Path_185311" data-name="Path 185311" d="M22.98,87.42h64.9A15.162,15.162,0,0,1,103,102.536v0a15.164,15.164,0,0,1-15.118,15.118H22.98A15.163,15.163,0,0,1,7.862,102.538v0A15.161,15.161,0,0,1,22.98,87.42" transform="translate(9.439 104.956)" fill="#565759" fill-rule="evenodd"/>
        <path id="Path_185312" data-name="Path 185312" d="M103,94.291a15.164,15.164,0,0,1-15.118,15.118h-64.9A15.163,15.163,0,0,1,7.863,94.291Z" transform="translate(9.44 113.206)" fill="#444445" fill-rule="evenodd"/>
        <path id="Path_185313" data-name="Path 185313" d="M21.82,88.53H85.961a12.713,12.713,0,0,1,12.675,12.675v0a12.711,12.711,0,0,1-12.675,12.673H21.82A12.711,12.711,0,0,1,9.145,101.208v0A12.713,12.713,0,0,1,21.82,88.53" transform="translate(10.98 106.289)" fill="#ccd7e0" fill-rule="evenodd"/>
        <path id="Path_185314" data-name="Path 185314" d="M98.638,94.291A12.715,12.715,0,0,1,85.96,106.966H21.819A12.711,12.711,0,0,1,9.146,94.291Z" transform="translate(10.981 113.206)" fill="#b5bfc9" fill-rule="evenodd"/>
        <path id="Path_185315" data-name="Path 185315" d="M19.8,90.692a7.918,7.918,0,1,1-7.92,7.92,7.92,7.92,0,0,1,7.92-7.92" transform="translate(14.261 108.885)" fill="#818286" fill-rule="evenodd"/>
        <path id="Path_185316" data-name="Path 185316" d="M15.477,90.693a7.917,7.917,0,1,1,0,15.833Z" transform="translate(18.582 108.886)" fill="#565759" fill-rule="evenodd"/>
        <path id="Path_185317" data-name="Path 185317" d="M47.8,90.692a7.918,7.918,0,1,1-7.918,7.92,7.919,7.919,0,0,1,7.918-7.92" transform="translate(47.884 108.885)" fill="#818286" fill-rule="evenodd"/>
        <path id="Path_185318" data-name="Path 185318" d="M43.482,90.693a7.917,7.917,0,0,1,0,15.833Z" transform="translate(52.205 108.886)" fill="#565759" fill-rule="evenodd"/>
        <path id="Path_185319" data-name="Path 185319" d="M33.754,90.692a7.918,7.918,0,1,1-7.918,7.92,7.92,7.92,0,0,1,7.918-7.92" transform="translate(31.019 108.885)" fill="#818286" fill-rule="evenodd"/>
        <path id="Path_185320" data-name="Path 185320" d="M29.434,90.693a7.917,7.917,0,1,1,0,15.833Z" transform="translate(35.339 108.886)" fill="#565759" fill-rule="evenodd"/>
        <rect id="Rectangle_39402" data-name="Rectangle 39402" width="32.166" height="27.29" transform="translate(31.722 164.948)" fill="#d8bd76"/>
        <rect id="Rectangle_39403" data-name="Rectangle 39403" width="16.082" height="27.29" transform="translate(47.808 164.948)" fill="#c4aa68"/>
        <rect id="Rectangle_39404" data-name="Rectangle 39404" width="33.753" height="4.833" transform="translate(30.929 164.519)" fill="#e7d691"/>
        <rect id="Rectangle_39405" data-name="Rectangle 39405" width="16.874" height="4.833" transform="translate(47.808 164.519)" fill="#d8bd76"/>
        <rect id="Rectangle_39406" data-name="Rectangle 39406" width="10.957" height="4.971" transform="translate(33.575 171.583)" fill="#dfe9f2"/>
        <rect id="Rectangle_39407" data-name="Rectangle 39407" width="1.162" height="3.699" transform="translate(42.566 172.219)" fill="#818286"/>
        <rect id="Rectangle_39408" data-name="Rectangle 39408" width="1.162" height="3.699" transform="translate(40.487 172.219)" fill="#818286"/>
        <rect id="Rectangle_39409" data-name="Rectangle 39409" width="1.164" height="3.699" transform="translate(38.339 172.219)" fill="#818286"/>
        <rect id="Rectangle_39410" data-name="Rectangle 39410" width="1.164" height="3.699" transform="translate(36.369 172.219)" fill="#818286"/>
        <rect id="Rectangle_39411" data-name="Rectangle 39411" width="1.164" height="3.699" transform="translate(34.376 172.219)" fill="#818286"/>
        <rect id="Rectangle_39412" data-name="Rectangle 39412" width="32.166" height="27.29" transform="translate(65.855 164.948)" fill="#d8bd76"/>
        <rect id="Rectangle_39413" data-name="Rectangle 39413" width="16.084" height="27.29" transform="translate(81.937 164.948)" fill="#c4aa68"/>
        <rect id="Rectangle_39414" data-name="Rectangle 39414" width="33.753" height="4.833" transform="translate(65.061 164.519)" fill="#e7d691"/>
        <rect id="Rectangle_39415" data-name="Rectangle 39415" width="16.876" height="4.833" transform="translate(81.937 164.519)" fill="#d8bd76"/>
        <rect id="Rectangle_39416" data-name="Rectangle 39416" width="10.957" height="4.971" transform="translate(67.708 171.583)" fill="#dfe9f2"/>
        <rect id="Rectangle_39417" data-name="Rectangle 39417" width="1.164" height="3.699" transform="translate(76.698 172.219)" fill="#818286"/>
        <rect id="Rectangle_39418" data-name="Rectangle 39418" width="1.164" height="3.699" transform="translate(74.618 172.219)" fill="#818286"/>
        <rect id="Rectangle_39419" data-name="Rectangle 39419" width="1.164" height="3.699" transform="translate(72.472 172.219)" fill="#818286"/>
        <rect id="Rectangle_39420" data-name="Rectangle 39420" width="1.164" height="3.699" transform="translate(70.503 172.219)" fill="#818286"/>
        <rect id="Rectangle_39421" data-name="Rectangle 39421" width="1.164" height="3.699" transform="translate(68.507 172.219)" fill="#818286"/>
        <rect id="Rectangle_39422" data-name="Rectangle 39422" width="50.719" height="50.719" transform="translate(307.398 162.342)" fill="#d8bd76"/>
        <rect id="Rectangle_39423" data-name="Rectangle 39423" width="25.355" height="50.719" transform="translate(332.762 162.342)" fill="#c4aa68"/>
        <rect id="Rectangle_39424" data-name="Rectangle 39424" width="53.224" height="8.983" transform="translate(306.148 161.548)" fill="#e7d691"/>
        <rect id="Rectangle_39425" data-name="Rectangle 39425" width="26.61" height="8.983" transform="translate(332.762 161.548)" fill="#d8bd76"/>
        <rect id="Rectangle_39426" data-name="Rectangle 39426" width="14.658" height="14.658" transform="translate(294.095 214.653)" fill="#d8bd76"/>
        <rect id="Rectangle_39427" data-name="Rectangle 39427" width="14.658" height="14.658" transform="translate(356.764 214.653)" fill="#c4aa68"/>
        <rect id="Rectangle_39428" data-name="Rectangle 39428" width="77.329" height="6.254" transform="translate(294.095 214.648)" fill="#e7d691"/>
        <rect id="Rectangle_39429" data-name="Rectangle 39429" width="38.66" height="6.254" transform="translate(332.762 214.648)" fill="#d8bd76"/>
        <rect id="Rectangle_39430" data-name="Rectangle 39430" width="17.922" height="8.129" transform="translate(309.878 174.763)" fill="#dfe9f2"/>
        <rect id="Rectangle_39431" data-name="Rectangle 39431" width="1.906" height="6.047" transform="translate(324.585 175.806)" fill="#818286"/>
        <rect id="Rectangle_39432" data-name="Rectangle 39432" width="1.906" height="6.047" transform="translate(321.185 175.806)" fill="#818286"/>
        <rect id="Rectangle_39433" data-name="Rectangle 39433" width="1.904" height="6.047" transform="translate(317.672 175.806)" fill="#818286"/>
        <rect id="Rectangle_39434" data-name="Rectangle 39434" width="1.904" height="6.047" transform="translate(314.455 175.806)" fill="#818286"/>
        <rect id="Rectangle_39435" data-name="Rectangle 39435" width="1.904" height="6.047" transform="translate(311.189 175.806)" fill="#818286"/>
      </g>
    </g>
  </g>
</svg>
