<svg id="Group_122575" data-name="Group 122575" xmlns="http://www.w3.org/2000/svg" xmlns:xlink="http://www.w3.org/1999/xlink" width="68.579" height="68.609" viewBox="0 0 68.579 68.609">
  <defs>
    <clipPath id="clip-path">
      <rect id="Rectangle_39752" data-name="Rectangle 39752" width="68.579" height="68.61" fill="#22afd6" stroke="#2eafd4" stroke-width="1"/>
    </clipPath>
  </defs>
  <g id="Group_122574" data-name="Group 122574" clip-path="url(#clip-path)">
    <path id="Path_185604" data-name="Path 185604" d="M48.7,6.677V17.7h.772q6.6,0,13.2,0a5.541,5.541,0,0,1,5.9,5.874q0,19.567,0,39.134a5.546,5.546,0,0,1-5.893,5.882q-28.065,0-56.129.019c-.647,0-.887-.206-.991-.8-.115-.656-.313-1.3-.463-1.947a2.952,2.952,0,0,0-1.546-2.446,2.83,2.83,0,0,1-1.345-2.778q.012-12.2,0-24.407,0-14.347,0-28.693V6.728C.437,6.208,0,5.626,0,3.814c0-.484,0-.968,0-1.452A2.23,2.23,0,0,1,2.4,0H48.156c1.938,0,2.724.785,2.725,2.723q0,.657,0,1.314A2.32,2.32,0,0,1,48.7,6.677M4.474,6.665V44.2H24.3V33.177H19.961V17.685h4.333V6.665Zm33.134,36.41q0,9.816,0,19.632a3.351,3.351,0,0,0,3.7,3.672q10.678,0,21.356,0a3.356,3.356,0,0,0,3.7-3.668q0-19.563,0-39.126a3.35,3.35,0,0,0-3.7-3.671q-10.678,0-21.356,0c-2.382,0-3.7,1.333-3.7,3.735q0,9.712,0,19.425M4.426,46.5v.737q0,6.567,0,13.133c0,1.266.323,1.587,1.593,1.587H35.341V46.5H33.183c0,.7.006,1.365,0,2.029a2.209,2.209,0,0,1-2.329,2.354q-5.425.015-10.85,0a2.2,2.2,0,0,1-2.3-2.308c-.01-.684,0-1.369,0-2.082Zm42-39.809H26.58v11.02h4.343v15.52H26.587V44.205H35.4v-.869q0-9.884.009-19.768a7.09,7.09,0,0,1,.221-1.841,5.459,5.459,0,0,1,5.261-4.021c1.836-.021,3.671,0,5.538,0ZM2.248,4.38H48.615V2.246H2.248ZM7.495,66.338H36.4l-.965-2.146H6.966l.529,2.146M28.712,19.969h-2.13V30.945h2.13Zm-4.428-.021H22.162v11h2.123ZM19.943,48.631H30.916V46.5H19.943Z" transform="translate(0 0)" fill="#22afd6" stroke="#2eafd4" stroke-width="1"/>
    <path id="Path_185605" data-name="Path 185605" d="M35.938,48.076H46.894c.036.064.077.1.077.14.006,3.319.039,6.637,0,9.956A3.24,3.24,0,0,1,43.8,61.313q-2.349.059-4.7,0A3.2,3.2,0,0,1,35.958,58.3c-.066-3.384-.02-6.771-.02-10.228m2.2,6.634c0,1.149-.02,2.228.007,3.3a1.052,1.052,0,0,0,1.1,1.087c1.47.023,2.942.02,4.412,0a1,1,0,0,0,1.08-.953c.059-1.137.017-2.279.017-3.44Zm.032-2.277h6.552V50.29H38.175Z" transform="translate(-29.289 -39.198)" fill="#22afd6" stroke="#2eafd4" stroke-width="1"/>
    <path id="Path_185606" data-name="Path 185606" d="M215.634,158.184q0-5.946,0-11.891a2.255,2.255,0,0,1,2.522-2.507q9.642,0,19.284,0a2.247,2.247,0,0,1,2.525,2.506q0,11.892,0,23.783a2.238,2.238,0,0,1-2.488,2.474q-9.677,0-19.353,0a2.235,2.235,0,0,1-2.489-2.473q-.005-5.946,0-11.891m2.243,12.1H237.7V146.034H217.878Z" transform="translate(-175.814 -117.233)" fill="#22afd6" stroke="#2eafd4" stroke-width="1"/>
    <path id="Path_185607" data-name="Path 185607" d="M252.119,318.139c-1.405,0-2.81.008-4.215,0a2.211,2.211,0,0,1-2.352-2.33c-.009-.714-.019-1.429,0-2.142a2.171,2.171,0,0,1,2.17-2.154q4.457-.033,8.914,0a2.173,2.173,0,0,1,2.175,2.15c.026.759.023,1.521,0,2.281a2.19,2.19,0,0,1-2.207,2.192c-1.5.023-2.994.006-4.492.006m-4.326-2.26h8.761v-2.128h-8.761Z" transform="translate(-200.199 -253.973)" fill="#22afd6" stroke="#2eafd4" stroke-width="1"/>
    <rect id="Rectangle_39742" data-name="Rectangle 39742" width="6.549" height="2.129" transform="translate(50.936 22.174)" fill="#22afd6" stroke="#2eafd4" stroke-width="1"/>
    <rect id="Rectangle_39743" data-name="Rectangle 39743" width="2.102" height="2.151" transform="translate(46.514 22.142)" fill="#22afd6" stroke="#2eafd4" stroke-width="1"/>
    <rect id="Rectangle_39744" data-name="Rectangle 39744" width="2.126" height="2.139" transform="translate(6.687 48.722)" fill="#22afd6" stroke="#2eafd4" stroke-width="1"/>
    <rect id="Rectangle_39745" data-name="Rectangle 39745" width="2.135" height="2.123" transform="translate(6.671 53.154)" fill="#22afd6" stroke="#2eafd4" stroke-width="1"/>
    <rect id="Rectangle_39746" data-name="Rectangle 39746" width="2.127" height="2.125" transform="translate(6.668 57.566)" fill="#22afd6" stroke="#2eafd4" stroke-width="1"/>
    <rect id="Rectangle_39747" data-name="Rectangle 39747" width="2.127" height="2.125" transform="translate(42.088 8.901)" fill="#22afd6" stroke="#2eafd4" stroke-width="1"/>
    <rect id="Rectangle_39748" data-name="Rectangle 39748" width="2.111" height="2.148" transform="translate(37.665 8.901)" fill="#22afd6" stroke="#2eafd4" stroke-width="1"/>
    <rect id="Rectangle_39749" data-name="Rectangle 39749" width="2.102" height="2.151" transform="translate(33.236 8.897)" fill="#22afd6" stroke="#2eafd4" stroke-width="1"/>
    <path id="Path_185608" data-name="Path 185608" d="M255.088,175.533a7.74,7.74,0,1,1-7.711-7.77,7.764,7.764,0,0,1,7.711,7.77m-2.212-.006a5.528,5.528,0,1,0-5.569,5.507,5.541,5.541,0,0,0,5.569-5.507" transform="translate(-195.361 -136.783)" fill="#22afd6" stroke="#2eafd4" stroke-width="1"/>
    <rect id="Rectangle_39750" data-name="Rectangle 39750" width="10.998" height="2.126" transform="translate(48.699 48.715)" fill="#22afd6" stroke="#2eafd4" stroke-width="1"/>
    <rect id="Rectangle_39751" data-name="Rectangle 39751" width="2.151" height="2.102" transform="translate(44.291 48.736)" fill="#22afd6" stroke="#2eafd4" stroke-width="1"/>
    <path id="Path_185609" data-name="Path 185609" d="M275.536,191.9h2.211c0,.763-.044,1.5.019,2.223a1.9,1.9,0,0,0,.416,1,20.264,20.264,0,0,0,1.453,1.427l-1.667,1.506c-.716-.712-1.516-1.5-2.3-2.3a.58.58,0,0,1-.124-.372c-.009-1.146-.005-2.292-.005-3.485" transform="translate(-224.655 -156.465)" fill="#22afd6" stroke="#2eafd4" stroke-width="1"/>
  </g>
</svg>
