<svg xmlns="http://www.w3.org/2000/svg" xmlns:xlink="http://www.w3.org/1999/xlink" width="66.703" height="75.539" viewBox="0 0 66.703 75.539">
  <defs>
    <clipPath id="clip-path">
      <rect id="Rectangle_39753" data-name="Rectangle 39753" width="66.703" height="75.54" fill="#22afd6"/>
    </clipPath>
  </defs>
  <g id="Group_122576" data-name="Group 122576" opacity="0.5">
    <g id="Group_122576-2" data-name="Group 122576" clip-path="url(#clip-path)">
      <path id="Path_185610" data-name="Path 185610" d="M32.616,75.54c-2.328-1.256-4.684-2.461-6.978-3.776C17.983,67.378,10.359,62.938,2.7,58.552a4.977,4.977,0,0,1-2.7-4.7Q.036,37.724,0,21.6a4.928,4.928,0,0,1,2.674-4.641q14-8.04,27.966-16.145A4.956,4.956,0,0,1,36.055.8Q50.05,8.925,64.085,16.981A4.841,4.841,0,0,1,66.7,21.508q-.019,16.238,0,32.475A4.754,4.754,0,0,1,64.078,58.5c-1.014.553-2,1.154-3.007,1.722-.767.434-1.376.328-1.73-.28s-.125-1.194.631-1.635c1.062-.619,2.124-1.236,3.194-1.84a2.447,2.447,0,0,0,1.319-2.3q-.005-16.422,0-32.845a2.463,2.463,0,0,0-1.316-2.3Q48.894,10.79,34.627,2.545a2.384,2.384,0,0,0-2.576.022Q17.818,10.8,3.572,19a2.508,2.508,0,0,0-1.35,2.356q.009,16.385,0,32.771a2.509,2.509,0,0,0,1.352,2.355q14.213,8.19,28.412,16.4a2.592,2.592,0,0,0,2.84-.052q10.013-5.809,20.043-11.586c.987-.57,1.605-.544,2,.1.4.662.111,1.247-.912,1.837Q46.184,68.827,36.411,74.46c-.737.423-1.545.723-2.319,1.08Z" transform="translate(0 0)" fill="#22afd6"/>
      <path id="Path_185611" data-name="Path 185611" d="M30.016,134.38a23.478,23.478,0,0,0-2.167,1.035c-2.25,1.361-4.476,2.763-6.7,4.162a1.447,1.447,0,0,1-2.4-1.348c.012-1.107,0-2.214.006-3.321.008-.866.423-1.362,1.111-1.363s1.089.493,1.1,1.365c.008.662,0,1.324,0,2.1.257-.13.447-.211.621-.318,1.422-.879,2.9-1.683,4.247-2.664a10.215,10.215,0,0,1,8.353-1.571c3.38.635,6.784,1.147,10.178,1.708.238.039.484.04.857.069-.2-.311-.356-.524-.49-.748a6.894,6.894,0,0,1-1.149-4.27,4.924,4.924,0,0,1,4.381-4.327,7.732,7.732,0,0,1,4.474.517,1.026,1.026,0,0,0,.792-.027c2.736-1.551,5.456-3.13,8.179-4.7a3.8,3.8,0,0,0,.32-.249,11.272,11.272,0,0,0-4.144-.183,36.683,36.683,0,0,0-8.315,2.206c-2.1.767-4.159,1.628-6.287,2.466.162.244.373.418.378.6.011.409.057.945-.169,1.2s-.767.24-1.176.31c-.1.017-.233-.081-.324-.159a2.138,2.138,0,0,0-2.726-.1c-1.5.83-3.1,1.491-4.646,2.239a7.748,7.748,0,0,1-7.932-.417q-2.315-1.444-4.635-2.881c-.22-.136-.449-.256-.789-.448,0,1.375,0,2.62,0,3.864,0,.953-.376,1.435-1.093,1.435-.7,0-1.114-.524-1.118-1.441-.008-1.722-.012-3.445,0-5.167a1.4,1.4,0,0,1,2.3-1.282c2.178,1.339,4.331,2.719,6.526,4.029a21.088,21.088,0,0,0,2.344,1.048c.717-2.237.559-4.774,3.242-5.763-.2-.122-.391-.251-.593-.368l-8.042-4.652a3.635,3.635,0,0,1-.562-.35,1.056,1.056,0,0,1-.277-1.449,1.025,1.025,0,0,1,1.351-.427,7.363,7.363,0,0,1,1.032.567l13.026,7.52c.254.146.512.283.663.366,1.676-1.406,3.293-2.763,4.914-4.117a2.614,2.614,0,0,1,.487-.332,1.032,1.032,0,0,1,1.433.326,1.012,1.012,0,0,1-.142,1.406,8.032,8.032,0,0,0-1.083,1.049c1.348-.494,2.685-1.019,4.046-1.474,1.4-.467,2.8-.919,4.23-1.278s2.876-.594,4.361-.892v-1.459c-1.222.192-2.436.3-3.609.587-1.236.3-2.435.757-3.646,1.157-.933.308-1.808-.284-1.581-1.141a1.525,1.525,0,0,1,.765-.888,22.265,22.265,0,0,1,8.512-1.869,1.657,1.657,0,0,1,1.8,1.718c.028.636.005,1.274.005,1.843,1.414.336,2.743.67,4.084.951a1.218,1.218,0,0,0,.733-.22Q67.8,117,70.507,115.423a1.119,1.119,0,0,1,1.586.191c.465.555.265,1.287-.475,1.725-1.248.738-2.51,1.452-3.765,2.179-.211.122-.416.254-.509.311,1.771,1.309,3.671,2.5,5.313,3.986a57.006,57.006,0,0,1,4.3,4.733,6.627,6.627,0,0,1,.539.878,2.638,2.638,0,0,1-.2,3.4,31.2,31.2,0,0,1-3.481,3.586,22.714,22.714,0,0,1-13.961,5.623,8.111,8.111,0,0,0-3.809,1.068q-2.974,1.628-6.009,3.141a.841.841,0,0,0-.538.9c.015,3.051.009,6.1.006,9.152a4.467,4.467,0,0,1-.047.808,1.078,1.078,0,0,1-2.133-.028,5.593,5.593,0,0,1-.034-.81c0-5.216-.011-10.432.012-15.648a.876.876,0,0,0-.737-1.027c-1.88-.569-3.73-1.234-5.6-1.827a2.1,2.1,0,0,0-1.058-.041c-1.891.436-3.77.922-5.657,1.372a2.467,2.467,0,0,1-3.078-1.492c-.426-.985-.731-2.022-1.157-3.227m45-2.038-.156-.2a8.736,8.736,0,0,0-5.809,2.677c-.427.442-.818.922-1.269,1.338a1.088,1.088,0,0,1-1.616-1.443,11.67,11.67,0,0,1,6.719-4.508c.729-.155,1.473-.237,2.236-.356a1.537,1.537,0,0,0-.106-.241,23.5,23.5,0,0,0-6.806-6.462,5.955,5.955,0,0,0-6.568-.05c-.7.417-1.406.808-2.108,1.216a2.327,2.327,0,0,0-1.107,2.955c.263.766.575,1.516.866,2.272a19.566,19.566,0,0,0,5.669,7.968,2.044,2.044,0,0,0,2.575.328c1.615-.979,3.241-1.951,4.775-3.048a30.03,30.03,0,0,0,2.7-2.449M57.265,131.9c-1.429-1.169-2.808-2.315-4.215-3.424a.791.791,0,0,0-.695,0A26.2,26.2,0,0,0,50,129.844a1.16,1.16,0,0,0-.47.787c-.052,1.153-.009,2.309-.028,3.464-.007.411.11.653.545.707,1.507.19,3.012.4,4.522.57a.584.584,0,0,0,.48-.276,7.191,7.191,0,0,1,2.216-3.192m1.242,1.7a14.7,14.7,0,0,0-1.251,2.042c-.684,1.633-1.247,2.053-3.006,1.946-.319-.019-.637-.057-.955-.088l-3.694-.366c-.235.75-.067,1.107.69,1.254,1.856.36,3.683.867,5.544,1.2a17.068,17.068,0,0,0,7.547-.242L58.507,133.6m-11.214-.449c0-1.232.026-2.252-.008-3.271a1.552,1.552,0,0,1,.93-1.6c.654-.329,1.272-.728,2.025-1.166a3.907,3.907,0,0,0-4.112,1.313c-.7,1.167-.272,3.112,1.166,4.721m-10.327-7.89-.019-.159c-1.077-.268-2.151-.551-3.236-.788a.6.6,0,0,0-.512.259c-.344.894-.638,1.808-.948,2.715l.2.128,4.51-2.156M36.724,136.2l-4.143-1.621-.144.146c.247.653.469,1.318.762,1.949a.661.661,0,0,0,.572.258c.932-.2,1.852-.451,2.954-.732m12.954,7.75,4.335-2.277-.06-.232c-.859.1-1.72.2-2.577.314-1.517.211-1.752.514-1.7,2.195m-2.522-6.469.17-.139c-.1-.186-.177-.511-.309-.537-.929-.176-1.87-.29-2.807-.424-.009.05-.018.1-.026.15l2.972.95m8.828-11.1-1.157.662,1.508,1.233c-.121-.654-.226-1.221-.351-1.895" transform="translate(-15.047 -91.721)" fill="#22afd6"/>
      <path id="Path_185612" data-name="Path 185612" d="M51.154,48.125c-.3-.268-.741-.477-.853-.8a1.865,1.865,0,0,1,.173-1.151c.074-.19.368-.307.579-.429q7.845-4.539,15.7-9.071a2.893,2.893,0,0,1,.588-.3,1.052,1.052,0,0,1,1.331.492,1.025,1.025,0,0,1-.27,1.386,3.434,3.434,0,0,1-.558.356Q60.022,43.12,52.2,47.629c-.291.168-.609.29-1.048.5" transform="translate(-40.346 -29.144)" fill="#22afd6"/>
      <path id="Path_185613" data-name="Path 185613" d="M183.7,212.326l4.874,5.741a17.063,17.063,0,0,1-7.547.242c-1.86-.328-3.688-.835-5.543-1.2-.758-.147-.925-.5-.69-1.254l3.694.366c.318.031.636.069.955.088,1.759.107,2.322-.313,3.006-1.946a14.707,14.707,0,0,1,1.251-2.042" transform="translate(-140.237 -170.448)" fill="#22afd6"/>
      <path id="Path_185614" data-name="Path 185614" d="M150.7,227.544l-2.972-.95.026-.15c.937.134,1.877.248,2.806.424.132.025.208.35.309.536l-.17.139" transform="translate(-118.59 -181.781)" fill="#22afd6"/>
      <path id="Path_185615" data-name="Path 185615" d="M202.847,175.733c.125.674.229,1.241.351,1.895l-1.508-1.233,1.157-.662" transform="translate(-161.909 -141.072)" fill="#22afd6"/>
    </g>
  </g>
</svg>
