<svg xmlns="http://www.w3.org/2000/svg" xmlns:xlink="http://www.w3.org/1999/xlink" width="229" height="205" viewBox="0 0 229 205">
  <defs>
    <clipPath id="clip-path">
      <rect id="Rectangle_38632" data-name="Rectangle 38632" width="59.101" height="90" fill="none"/>
    </clipPath>
  </defs>
  <g id="Group_128759" data-name="Group 128759" transform="translate(-433 -5834.25)">
    <rect id="Rectangle_35200" data-name="Rectangle 35200" width="229" height="205" rx="10" transform="translate(433 5834.25)" fill="#c6edff"/>
    <path id="Path_201226" data-name="Path 201226" d="M12.707,14.656H8.6L7.816,17H5.324L9.559,5.625H11.73L15.988,17H13.5Zm-3.477-1.9h2.844L10.645,8.5Zm11.188,2.578a1.481,1.481,0,0,0,1.016-.344,1.2,1.2,0,0,0,.406-.914h2.117a2.9,2.9,0,0,1-.469,1.574,3.093,3.093,0,0,1-1.262,1.109,3.949,3.949,0,0,1-1.77.395A3.67,3.67,0,0,1,17.6,16a4.56,4.56,0,0,1-1.047-3.184v-.148A4.508,4.508,0,0,1,17.59,9.555a3.627,3.627,0,0,1,2.852-1.164,3.555,3.555,0,0,1,2.543.9,3.2,3.2,0,0,1,.973,2.4H21.84a1.539,1.539,0,0,0-.406-1.066,1.513,1.513,0,0,0-2.223.164,3.324,3.324,0,0,0-.4,1.863v.234a3.366,3.366,0,0,0,.4,1.875A1.378,1.378,0,0,0,20.418,15.336Zm9.891.8A2.831,2.831,0,0,1,28,17.156a2.67,2.67,0,0,1-2.074-.781,3.335,3.335,0,0,1-.73-2.289V8.547h2.258v5.461q0,1.32,1.2,1.32a1.631,1.631,0,0,0,1.578-.8V8.547H32.5V17H30.371Zm6.008-7.594.07.945a2.971,2.971,0,0,1,2.43-1.1A2.255,2.255,0,0,1,41.059,9.68,2.9,2.9,0,0,1,43.6,8.391a2.521,2.521,0,0,1,2.047.8,3.681,3.681,0,0,1,.672,2.41V17H44.051V11.609a1.61,1.61,0,0,0-.281-1.051,1.246,1.246,0,0,0-.992-.332,1.409,1.409,0,0,0-1.406.969l.008,5.8H39.121V11.617a1.59,1.59,0,0,0-.289-1.062,1.259,1.259,0,0,0-.984-.328,1.463,1.463,0,0,0-1.391.8V17H34.2V8.547Zm16.8,7.594A2.831,2.831,0,0,1,50.8,17.156a2.67,2.67,0,0,1-2.074-.781A3.335,3.335,0,0,1,48,14.086V8.547h2.258v5.461q0,1.32,1.2,1.32a1.631,1.631,0,0,0,1.578-.8V8.547H55.3V17H53.176ZM59.387,17H57.121V5h2.266Zm6.758,0a2.507,2.507,0,0,1-.227-.758,2.732,2.732,0,0,1-2.133.914,3,3,0,0,1-2.059-.719,2.312,2.312,0,0,1-.816-1.812,2.389,2.389,0,0,1,1-2.062,4.915,4.915,0,0,1,2.879-.727h1.039v-.484a1.393,1.393,0,0,0-.3-.937,1.183,1.183,0,0,0-.949-.352,1.345,1.345,0,0,0-.895.273.929.929,0,0,0-.324.75H61.1a2.268,2.268,0,0,1,.453-1.359,3,3,0,0,1,1.281-.98,4.669,4.669,0,0,1,1.859-.355,3.689,3.689,0,0,1,2.48.785,2.747,2.747,0,0,1,.918,2.207v3.664a4.041,4.041,0,0,0,.336,1.82V17Zm-1.867-1.57a1.945,1.945,0,0,0,.922-.223,1.462,1.462,0,0,0,.625-.6V13.156H64.98q-1.7,0-1.8,1.172l-.008.133a.9.9,0,0,0,.3.7A1.153,1.153,0,0,0,64.277,15.43Zm5.2-2.719a5.094,5.094,0,0,1,.887-3.148,2.877,2.877,0,0,1,2.426-1.172,2.589,2.589,0,0,1,2.039.922V5H77.09V17H75.051l-.109-.9a2.657,2.657,0,0,1-2.172,1.055,2.869,2.869,0,0,1-2.395-1.176A5.258,5.258,0,0,1,69.473,12.711Zm2.258.164a3.328,3.328,0,0,0,.414,1.82,1.349,1.349,0,0,0,1.2.633,1.511,1.511,0,0,0,1.477-.883V11.109a1.489,1.489,0,0,0-1.461-.883Q71.73,10.227,71.73,12.875Zm6.758-.18a5.013,5.013,0,0,1,.484-2.242A3.546,3.546,0,0,1,80.367,8.93a4.069,4.069,0,0,1,2.113-.539,3.849,3.849,0,0,1,2.793,1.047,4.2,4.2,0,0,1,1.207,2.844l.016.578A4.418,4.418,0,0,1,85.41,15.98a4.209,4.209,0,0,1-5.832,0,4.5,4.5,0,0,1-1.09-3.187Zm2.258.164A3.151,3.151,0,0,0,81.2,14.7a1.629,1.629,0,0,0,2.578.008,3.448,3.448,0,0,0,.461-2.012,3.12,3.12,0,0,0-.461-1.828,1.5,1.5,0,0,0-1.3-.648,1.475,1.475,0,0,0-1.281.645A3.506,3.506,0,0,0,80.746,12.859Zm11.891-2.2a6.134,6.134,0,0,0-.812-.062,1.654,1.654,0,0,0-1.68.867V17H87.887V8.547H90.02l.063,1.008a2.092,2.092,0,0,1,1.883-1.164,2.366,2.366,0,0,1,.7.1Zm4.977,6.492a4.15,4.15,0,0,1-3.027-1.141,4.054,4.054,0,0,1-1.168-3.039v-.219a5.106,5.106,0,0,1,.492-2.277A3.612,3.612,0,0,1,95.3,8.934a3.914,3.914,0,0,1,2.059-.543,3.508,3.508,0,0,1,2.73,1.094,4.444,4.444,0,0,1,1,3.1v.922H95.707a2.1,2.1,0,0,0,.66,1.328,2,2,0,0,0,1.395.5,2.437,2.437,0,0,0,2.039-.945l1.109,1.242a3.389,3.389,0,0,1-1.375,1.121A4.511,4.511,0,0,1,97.613,17.156Zm-.258-6.937a1.414,1.414,0,0,0-1.09.453,2.341,2.341,0,0,0-.535,1.3h3.141v-.18a1.669,1.669,0,0,0-.406-1.16A1.459,1.459,0,0,0,97.355,10.219Zm9.594,4.445a.727.727,0,0,0-.41-.652,4.659,4.659,0,0,0-1.316-.426q-3.016-.633-3.016-2.562a2.323,2.323,0,0,1,.934-1.879,3.766,3.766,0,0,1,2.441-.754,4.053,4.053,0,0,1,2.574.758,2.388,2.388,0,0,1,.965,1.969h-2.258a1.092,1.092,0,0,0-.312-.8,1.322,1.322,0,0,0-.977-.316,1.351,1.351,0,0,0-.883.258.814.814,0,0,0-.312.656.7.7,0,0,0,.355.605,3.657,3.657,0,0,0,1.2.4,9.8,9.8,0,0,1,1.422.379,2.336,2.336,0,0,1,1.789,2.273,2.2,2.2,0,0,1-.992,1.871,4.28,4.28,0,0,1-2.562.715,4.47,4.47,0,0,1-1.887-.379,3.166,3.166,0,0,1-1.293-1.039,2.414,2.414,0,0,1-.469-1.426h2.141a1.179,1.179,0,0,0,.445.922,1.766,1.766,0,0,0,1.109.32,1.635,1.635,0,0,0,.98-.246A.766.766,0,0,0,106.949,14.664ZM34.691,32.711a5.094,5.094,0,0,1,.887-3.148A2.877,2.877,0,0,1,38,28.391a2.589,2.589,0,0,1,2.039.922V25h2.266V37H40.27l-.109-.9a2.657,2.657,0,0,1-2.172,1.055,2.869,2.869,0,0,1-2.395-1.176A5.258,5.258,0,0,1,34.691,32.711Zm2.258.164a3.328,3.328,0,0,0,.414,1.82,1.349,1.349,0,0,0,1.2.633,1.511,1.511,0,0,0,1.477-.883V31.109a1.489,1.489,0,0,0-1.461-.883Q36.949,30.227,36.949,32.875Zm11,4.281a4.15,4.15,0,0,1-3.027-1.141,4.054,4.054,0,0,1-1.168-3.039v-.219a5.106,5.106,0,0,1,.492-2.277,3.612,3.612,0,0,1,1.395-1.547,3.914,3.914,0,0,1,2.059-.543,3.508,3.508,0,0,1,2.73,1.094,4.444,4.444,0,0,1,1,3.1v.922H46.043a2.1,2.1,0,0,0,.66,1.328,2,2,0,0,0,1.395.5,2.437,2.437,0,0,0,2.039-.945l1.109,1.242a3.389,3.389,0,0,1-1.375,1.121A4.511,4.511,0,0,1,47.949,37.156Zm-.258-6.937a1.414,1.414,0,0,0-1.09.453,2.341,2.341,0,0,0-.535,1.3h3.141v-.18a1.669,1.669,0,0,0-.406-1.16A1.459,1.459,0,0,0,47.691,30.219ZM57.309,37V30.2H56.051V28.547h1.258v-.719a2.918,2.918,0,0,1,.816-2.207,3.162,3.162,0,0,1,2.285-.785,5.278,5.278,0,0,1,1.148.156l-.023,1.75a2.878,2.878,0,0,0-.687-.07q-1.273,0-1.273,1.2v.68h1.68V30.2h-1.68V37Zm9.867-6.336a6.134,6.134,0,0,0-.812-.062,1.654,1.654,0,0,0-1.68.867V37H62.426V28.547h2.133l.063,1.008A2.092,2.092,0,0,1,66.5,28.391a2.366,2.366,0,0,1,.7.1ZM70.7,37H68.441V28.547H70.7Zm-.664-11.883H72.5l-2.164,2.422H68.5ZM72.293,32.7a5.013,5.013,0,0,1,.484-2.242,3.546,3.546,0,0,1,1.395-1.523,4.069,4.069,0,0,1,2.113-.539,3.849,3.849,0,0,1,2.793,1.047,4.2,4.2,0,0,1,1.207,2.844l.016.578a4.418,4.418,0,0,1-1.086,3.121,4.209,4.209,0,0,1-5.832,0,4.5,4.5,0,0,1-1.09-3.187Zm2.258.164A3.151,3.151,0,0,0,75,34.7a1.629,1.629,0,0,0,2.578.008,3.448,3.448,0,0,0,.461-2.012,3.12,3.12,0,0,0-.461-1.828,1.5,1.5,0,0,0-1.3-.648A1.475,1.475,0,0,0,75,30.863,3.506,3.506,0,0,0,74.551,32.859Z" transform="translate(490 5969.25)" fill="#12263f"/>
    <g id="Group_120816" data-name="Group 120816" transform="translate(518 5869.25)">
      <g id="Group_120815" data-name="Group 120815" clip-path="url(#clip-path)">
        <path id="Path_184279" data-name="Path 184279" d="M20.231,90a4.569,4.569,0,0,1-3.2-3.269A4.1,4.1,0,0,1,19.1,82.123a.99.99,0,0,0,.619-1.066c-.032-1.846-.009-3.693-.014-5.54,0-1.236-.4-1.695-1.616-1.857A63.33,63.33,0,0,1,1.173,68.924,1.745,1.745,0,0,1,0,67.1Q.019,38.655.011,10.209c0-1.194.24-1.507,1.422-1.862Q15.11,4.236,28.786.118a2.533,2.533,0,0,1,1.539,0Q44,4.239,57.681,8.339c1.168.351,1.409.689,1.409,1.882q0,28.445.011,56.891a1.755,1.755,0,0,1-1.184,1.822,63.528,63.528,0,0,1-16.832,4.714c-1.29.174-1.684.6-1.686,1.88,0,1.9.008,3.81-.008,5.715a.757.757,0,0,0,.473.8,4.166,4.166,0,0,1-1.048,7.846c-.047.012-.081.073-.121.111Z" transform="translate(0 0)"/>
        <path id="Path_184280" data-name="Path 184280" d="M59.241,41.839c0,9-.01,17.993.02,26.989a1.067,1.067,0,0,1-.823,1.184,66.169,66.169,0,0,1-14.793,3.926,4.307,4.307,0,0,0-4.1,4.689c0,1.788-.026,3.575.015,5.362.013.562-.159.668-.685.665q-6.372-.033-12.745,0c-.561,0-.674-.159-.665-.685.033-1.875.023-3.751.01-5.626a4.115,4.115,0,0,0-3.6-4.294A69.857,69.857,0,0,1,6.5,69.954.954.954,0,0,1,5.77,68.9q.03-27.077,0-54.154c0-.651.2-.872.814-1.053q12.64-3.754,25.26-7.575a2.238,2.238,0,0,1,1.362,0Q45.791,9.9,58.386,13.649a1.022,1.022,0,0,1,.874,1.2c-.028,9-.018,17.993-.018,26.989" transform="translate(-2.963 -3.084)" fill="#e6f6fe"/>
        <path id="Path_184281" data-name="Path 184281" d="M60.1,175.211c.355,1.194-.219,1.946-1.528,1.949-3.919.009-7.839,0-11.759,0-1.58,0-3.16.021-4.739-.008-1.155-.021-1.685-.816-1.352-1.945a8.52,8.52,0,0,0,2.6.273q7.092-.013,14.184,0a8.585,8.585,0,0,0,2.6-.272" transform="translate(-20.863 -89.977)" fill="#a4bdd2"/>
        <path id="Path_184282" data-name="Path 184282" d="M60.205,174.3c-.21.57-.725.535-1.171.536q-8.516.018-17.033,0c-.447,0-.96.03-1.172-.537a1.282,1.282,0,0,1,1.37-.858q8.319-.006,16.638,0a1.283,1.283,0,0,1,1.369.859" transform="translate(-20.967 -89.069)" fill="#c8e5fc"/>
        <path id="Path_184283" data-name="Path 184283" d="M59.415,48.432q0,11.69,0,23.381c0,1.34-.247,1.66-1.525,2.085a94.6,94.6,0,0,1-13.031,3.46,4.2,4.2,0,0,0-3.735,4.551,13.5,13.5,0,0,1-.134,2.889A5.621,5.621,0,0,1,35.07,89.23a5.782,5.782,0,0,1-5.185-5.412c-.03-.731,0-1.465-.012-2.2a4.115,4.115,0,0,0-3.415-4.18,94.72,94.72,0,0,1-13.528-3.63c-1.1-.39-1.341-.687-1.341-1.846q0-23.514,0-47.026c0-1.193.237-1.51,1.409-1.883q8.139-2.588,16.28-5.169c1.29-.409,1.811-.157,2.315,1.094a4.164,4.164,0,0,0,7.827-.023c.484-1.2,1.02-1.476,2.245-1.089q8.184,2.59,16.363,5.2c1.161.37,1.387.69,1.387,1.9q0,11.735,0,23.469" transform="translate(-5.95 -9.092)"/>
        <path id="Path_184284" data-name="Path 184284" d="M60.668,12.822c0,1.471,0,1.471-1.519,1.471-1.294,0-1.294,0-1.294-1.256,0-1.558,0-1.558,1.519-1.558,1.294,0,1.294,0,1.294,1.343" transform="translate(-29.711 -5.895)"/>
        <path id="Path_184285" data-name="Path 184285" d="M44.127,54.352c-.073-1.4-.073-1.4-1.536-1.4-6.213,0-12.425-.019-18.637.022-.838.005-.98-.255-.973-1.015.036-4.1,0-8.207.031-12.31,0-.6-.121-.792-.757-.784-2.07.025-2.071,0-2.071,2.094,0,3.722-.013,7.444.013,11.166,0,.606-.072.863-.784.848-2.041-.044-2.046,0-2.042-2.038q.013-6.989.032-13.978a1.6,1.6,0,0,1,.835-.453c4.662-1.456,9.325-2.91,13.964-4.437a.984.984,0,0,1,1.433.622,5.307,5.307,0,0,0,9.672,0,.983.983,0,0,1,1.432-.623q6.8,2.215,13.632,4.327a2.265,2.265,0,0,1,1.168.563c.01,5.151.014,10.3.043,15.453,0,.512-.215.553-.625.55-1.785-.016-3.573.046-5.354-.03-.875-.037-1.241.186-1.07,1.078a1.332,1.332,0,0,1-.025.348,3.886,3.886,0,0,1-2.712.123.452.452,0,0,1-.239-.345c-.017-.836-.518-.953-1.223-.947-.685.006-1.224.068-1.245.922a.49.49,0,0,1-.228.359,3.8,3.8,0,0,1-2.733-.112" transform="translate(-8.921 -16.411)" fill="#8efb8f"/>
        <path id="Path_184286" data-name="Path 184286" d="M50.054,77.993H52.81c.072.05.159.109.164.191.052.891.622.919,1.354,1.005,1.024.12,1.028-.664,1.354-1.2h2.755c.074,1.41.074,1.41,1.532,1.41,1.639,0,3.278.01,4.917-.007.413,0,.627.047.625.555q-.039,9.571-.04,19.141a2.37,2.37,0,0,1-1.78.217c-2.445-.2-4.9-.323-7.331-.663C46.7,97.3,37.788,94.156,30.107,87.968a3.477,3.477,0,0,1-1.149-1.185c-.011-2.283,0-4.566-.046-6.848-.014-.723.456-.527.817-.527q9.088-.01,18.177,0h.615c1.458,0,1.458,0,1.532-1.41" transform="translate(-14.848 -40.053)" fill="#6afb6c"/>
        <path id="Path_184287" data-name="Path 184287" d="M23.017,89.368c1.517,1.082,2.9,2.336,4.463,3.365a51,51,0,0,0,15.053,6.673,63.68,63.68,0,0,0,11.329,1.944c1.887.153,3.77.339,5.666.326.01.82-.013,1.642.041,2.46a.842.842,0,0,1-.7,1,87.37,87.37,0,0,1-11.8,3.054,6.971,6.971,0,0,0-5.8,6.942c-.007.645.007,1.29,0,1.935a2.827,2.827,0,0,1-2.776,2.912,2.977,2.977,0,0,1-2.847-2.9,21.01,21.01,0,0,0-.142-3.33,6.96,6.96,0,0,0-5.565-5.541,82.905,82.905,0,0,1-11.878-3.085c-.405-.14-.719-.228-.717-.8q.046-10.639.043-21.277a.286.286,0,0,1,.316.085,29.21,29.21,0,0,1,2.438,3.247c.01,1.137.04,2.275.02,3.411-.008.474.1.71.623.653a4.061,4.061,0,0,1,1.048,0c.857.132,1.332-.112,1.187-1.07" transform="translate(-8.906 -42.637)" fill="#43d549"/>
        <path id="Path_184288" data-name="Path 184288" d="M59.531,33.038c-2.732-.847-5.466-1.688-8.2-2.543q-3.47-1.087-6.93-2.2c-.383-.124-.565-.126-.775.326a5.4,5.4,0,0,1-6.546,3.332,5.059,5.059,0,0,1-3.718-3.171c-.228-.569-.467-.617-1.016-.439-4.835,1.563-9.682,3.093-14.526,4.629a2.922,2.922,0,0,1-.431.071c-.011-1.171-.008-2.342-.04-3.512a.638.638,0,0,1,.538-.741q6.946-2.17,13.874-4.395c.439-.141.6,0,.83.327a6.937,6.937,0,0,0,11.727,0,.671.671,0,0,1,.92-.3q6.807,2.171,13.625,4.3a.83.83,0,0,1,.708.981c-.053,1.11-.034,2.224-.044,3.336" transform="translate(-8.912 -12.497)" fill="#65da69"/>
        <path id="Path_184289" data-name="Path 184289" d="M20.125,85.247a38.061,38.061,0,0,1-2.754-3.332c-.176-.789.032-1.115.942-1.077,1.839.079,1.845.023,1.84,1.874,0,.845-.019,1.689-.028,2.534" transform="translate(-8.891 -41.512)" fill="#69fb6b"/>
        <path id="Path_184290" data-name="Path 184290" d="M80.908,76.51c-.074,1.41-.074,1.41-1.524,1.41-1.274,0-1.274,0-1.348-1.41.073-1.4.073-1.4,1.523-1.4,1.275,0,1.275,0,1.348,1.4" transform="translate(-40.075 -38.57)"/>
        <path id="Path_184291" data-name="Path 184291" d="M24.614,104.028c1.328,0,1.328,0,1.328,1.333,0,1.481,0,1.481-1.442,1.481a4.012,4.012,0,0,0-.612,0c-.62.1-.858-.158-.763-.769a3.44,3.44,0,0,0,0-.525c0-1.525,0-1.525,1.486-1.525" transform="translate(-11.865 -53.423)"/>
      </g>
    </g>
  </g>
</svg>
