<svg id="Group_123102" data-name="Group 123102" xmlns="http://www.w3.org/2000/svg" xmlns:xlink="http://www.w3.org/1999/xlink" width="99.988" height="99.89" viewBox="0 0 99.988 99.89">
  <defs>
    <clipPath id="clip-path">
      <rect id="Rectangle_40121" data-name="Rectangle 40121" width="99.988" height="99.89" fill="none"/>
    </clipPath>
  </defs>
  <g id="Group_123102-2" data-name="Group 123102" clip-path="url(#clip-path)">
    <path id="Path_185923" data-name="Path 185923" d="M.051,107.631v-20.3c.634-1.964,1.526-2.607,3.66-2.619,1.529-.009,3.057.007,4.586-.005,1.123-.009,1.23-.112,1.231-1.232.007-4.683.051-9.367-.02-14.049-.029-1.942.666-3.274,2.505-3.933.6-.214.642-.651.642-1.162q0-3.122,0-6.244,0-7.074,0-14.147a2,2,0,0,0-.162-1.175c-.823,1.026-1.724,1.9-2.541,2.841a51.815,51.815,0,0,0-6,8.523c-.681,1.214-.877,1.256-2.06.658C-.1,53.781-.137,53.673.962,51.737c.128-.226.26-.451.4-.67a57,57,0,0,1,9.391-11.785,57.1,57.1,0,0,1,33.91-15.594A56.85,56.85,0,0,1,83.538,34.434,55.956,55.956,0,0,1,98.09,50.148c.188.3.388.6.574.908.35.55.639,1.134.973,1.692a.881.881,0,0,1-.368,1.383c-.112.065.028-.017-.083.05-2.682,1.63-2.336,1.2-3.512-.789a48.535,48.535,0,0,0-6.759-9.041,12.611,12.611,0,0,0-1.386-1.521c-.271.328-.14.7-.14,1.03q-.013,12.975-.007,25.95c0,.227,0,.455,0,.683-.006,1.833-.069,1.894-1.942,1.891-1.738.021-1.948-.18-1.949-1.958,0-9.854-.02-19.708.021-29.562a3.045,3.045,0,0,0-1.34-2.7A51.487,51.487,0,0,0,55.893,27.59,52.232,52.232,0,0,0,17.539,38.421a2.363,2.363,0,0,0-1,2.073c.022,7.838.011,15.676.015,23.513,0,1.306.051,1.351,1.389,1.357,1.073.005,2.147.015,3.219,0,1.1-.02,1.226-.136,1.229-1.253.013-3.935,0-7.87.006-11.805,0-.65.007-1.3.006-1.951a1.038,1.038,0,0,1,1.2-1.178c.325,0,.65-.008.976-.008H75.412c2.2,0,2.23.03,2.231,2.229q0,9.415,0,18.83c0,.26,0,.52-.005.78-.043,1.153-.243,1.355-1.383,1.4-.164.006-.327-.012-.491-.011-1.684.031-1.842-.115-1.844-1.806q-.009-8,0-16c0-1.448-.045-1.493-1.462-1.493q-22.444,0-44.887,0c-1.4,0-1.443.043-1.445,1.4q-.007,4.684,0,9.368c0,1.474.026,1.5,1.551,1.5,3.513,0,7.026-.007,10.539,0,2.644.008,4.21,1.368,4.054,4a14.44,14.44,0,0,0,2.077,8.151c1.343,2.4,2.478,4.91,3.811,7.547,0-2.732,0-5.259,0-7.785,0-3.741-.011-7.481,0-11.222.011-2.575,1.4-3.988,3.986-4q7.563-.041,15.125,0c2.56.018,3.92,1.4,3.934,3.94q.029,5.074,0,10.149c-.049,7.8.078,15.6-.023,23.392-.033,2.561.048,5.117.026,7.676a3.5,3.5,0,0,1-3.823,3.828c-5.072-.011-10.143.013-15.215-.019a2.2,2.2,0,0,0-2.139,1.123,10.32,10.32,0,0,1-8.209,5.052H38.7c-4.291-.523-7.16-2.921-8.935-6.768a7.411,7.411,0,0,1-.6-1.849c-.116-.679-.5-.9-1.153-.892-1.4.025-2.8.044-4.191-.007a1.151,1.151,0,0,0-1.343,1.055,10.779,10.779,0,0,1-3.47,5.751,9.045,9.045,0,0,1-6.031,2.609c-.338.046-.7-.1-1.018.1H9.615c-3.664-.376-6.222-2.428-8.185-5.391a9.258,9.258,0,0,1-1.379-4.174" transform="translate(-0.038 -17.319)"/>
    <path id="Path_185924" data-name="Path 185924" d="M303.684,221.045q5.267.021,10.533.041c2.725.008,3.909,1.2,3.909,3.932q0,7.367,0,14.733a4.584,4.584,0,0,1-.292,2.006.631.631,0,0,0-.067.454c.6,1.241.334,2.562.344,3.846.032,4.325-.039,8.652.035,12.976a3.681,3.681,0,0,1-2.56,3.982H298.023a3.181,3.181,0,0,1-2.746-2.965,3.92,3.92,0,0,1-.076-.677c-.009-5.225-.062-10.45.023-15.675a5.283,5.283,0,0,0,.038-3.153,3.637,3.637,0,0,1-.073-1.162q0-7.008,0-14.017a6.847,6.847,0,0,1,.182-1.737,3.523,3.523,0,0,1,3.129-2.8,27.718,27.718,0,0,1,4.568-.044,1,1,0,0,1,.618.257" transform="translate(-218.179 -163.141)"/>
    <path id="Path_185925" data-name="Path 185925" d="M195.714,307.992q.025,6.282.05,12.563c0,.877.055,1.758-.011,2.63a3.721,3.721,0,0,0,2.487,4.132H160.179a7.725,7.725,0,0,1,1.74-.458,11.217,11.217,0,0,0,6.527-5.21,1.317,1.317,0,0,1,1.334-.79c5.194.031,10.388-.017,15.581.038a3.927,3.927,0,0,0,3.7-1.816l.163-.019c1.212-.037,2.426,0,3.638-.017.345,0,.723.066.9-.365.177-2.743.015-5.484.083-8.224a5.24,5.24,0,0,1,.235-2.474,1.34,1.34,0,0,1,1.641.01" transform="translate(-118.396 -227.44)" fill="#fefefe"/>
    <path id="Path_185926" data-name="Path 185926" d="M49.283,355.25a11.116,11.116,0,0,0,9.324-8.622c.151-.714.424-.927,1.14-.9,1.689.056,3.382.027,5.073.012.437,0,.7.057.819.576a11.061,11.061,0,0,0,9.161,8.938c.079.017.142.109.212.166H49.247c-.067-.053-.083-.1-.05-.127a.122.122,0,0,1,.086-.04" transform="translate(-36.352 -255.541)" fill="#fefefe"/>
    <path id="Path_185927" data-name="Path 185927" d="M.014,346.221a5.455,5.455,0,0,1,.507,1.612,11.3,11.3,0,0,0,8.57,7.74c.175.042.4-.034.488.212-2.993,0-5.986-.013-8.979.013-.489,0-.6-.11-.6-.6.026-2.993.013-5.986.013-8.979" transform="translate(0 -255.908)" fill="#fefefe"/>
    <path id="Path_185928" data-name="Path 185928" d="M46.706,382.111a.6.6,0,0,0-.036.167h-.976a1.1,1.1,0,0,1,1.012-.167" transform="translate(-33.775 -282.401)" fill="#4c4c4c"/>
    <path id="Path_185929" data-name="Path 185929" d="M123.029,107.845l-1.542.013a1.5,1.5,0,0,1-.343-1.271q-.016-11.6,0-23.2a1.716,1.716,0,0,1,.32-1.289c1.618-.1,1.618-.1,1.618-1.77,0-6.636-.01-13.272.015-19.909,0-.722-.127-.984-.936-.983q-26.447.04-52.894,0c-.862,0-.983.279-.977,1.043.035,4.684-.012,9.369.042,14.053.011.94-.291,1.13-1.145,1.094-1.526-.065-3.058-.048-4.586,0-.621.018-.757-.2-.756-.779q.025-12.54,0-25.081a1.213,1.213,0,0,1,.513-1.064,53.132,53.132,0,0,1,63.129-2.609c1.379.916,3.071,1.689,3.856,3.051.689,1.195.178,2.922.18,4.413q.02,13.614.007,27.228c0,1.259,0,1.258,1.3,1.279.129,0,.258.024.387.037q0,1.551,0,3.1c-1.527.014-3.055.022-4.582.043a3.275,3.275,0,0,0-3.548,3.519c-.02,5.172-.007,10.344,0,15.517a1.848,1.848,0,0,0,.074.77,3.763,3.763,0,0,1-.127,2.8" transform="translate(-45.711 -27.294)" fill="#e5e8ec"/>
    <path id="Path_185930" data-name="Path 185930" d="M148.772,155.113l.026,25.762q-.014,5.56-.029,11.12a48.809,48.809,0,0,1-5.068.072l-.045-.053.028-.064a14.2,14.2,0,0,0-.027-5.973c-.037-.152-.147-.283-.061-.456a7.451,7.451,0,0,0,.335-3.457c.023-4.422.01-8.844.009-13.267a4.837,4.837,0,0,0-.292-2.2c-.042-.087-.113-.188-.1-.271.9-5.587.144-11.211.39-16.812.01-.227,0-.455,0-.683a3.225,3.225,0,0,0-3.481-3.462q-7.8-.024-15.608,0a3.211,3.211,0,0,0-3.439,3.5q-.014,9.944,0,19.9c-.388,0-.388-.34-.486-.537-1.9-3.767-3.775-7.543-5.669-11.311a2.721,2.721,0,0,1-.3-1.307c.018-1.138.014-2.276,0-3.414a3.251,3.251,0,0,0-3.565-3.574c-3.869-.01-7.739-.02-11.608.012-.725.006-1.005-.124-.994-.941.05-3.706.039-7.414.006-11.12-.006-.685.188-.864.867-.863q23.314.028,46.628,0c.73,0,.921.182.916.915-.032,5.593-.018,11.186-.018,16.778,0,1.609,0,1.609,1.581,1.709" transform="translate(-73.022 -100.31)" fill="#a9b1bc"/>
    <path id="Path_185931" data-name="Path 185931" d="M83.835,238.236c-.978,0-1.819-.011-2.66.005a.97.97,0,0,1-.771-.31c-.96-.965-1.938-1.912-3.028-2.983.588-.53,1.105-1.025,1.654-1.482.427-.356.56-.632.045-1.055-.624-.512-1.139-1.493-1.777-1.56-.661-.07-1.174.969-1.746,1.527-1.4,1.363-2.749,2.771-4.153,4.127-.426.411-.579.68-.039,1.124.6.492,1.07,1.421,1.7,1.525.677.111,1.127-.911,1.681-1.43.349-.326.545-.418.912-.021.772.835,1.578,1.643,2.414,2.415a1.1,1.1,0,0,1,.338,1.232c-.163.451-.625.137-.942.125a11.134,11.134,0,0,0-9.719,4.581c-.193.248-.376.5-.651.87-.841-2.781-1.642-5.431-2.443-8.081a4.878,4.878,0,0,0-5.157-3.861c-3.025-.012-6.051-.046-9.075.024-.907.021-1.042-.267-1.032-1.08.044-3.643.038-7.286,0-10.929-.007-.695.114-.936.886-.933,8.23.032,16.46.022,24.689.014.512,0,.886.034,1.164.6,2.478,5.031,4.994,10.043,7.5,15.062.055.11.1.228.207.495" transform="translate(-36.504 -164.139)" fill="#fefefe"/>
    <path id="Path_185932" data-name="Path 185932" d="M102.925,32.507q0,4.761,0,9.522a60.137,60.137,0,0,0-9.03-11.31,54.688,54.688,0,0,0-31.566-15.4C43.1,12.885,26.737,18.859,13.252,32.743a58.26,58.26,0,0,0-7.058,9.283q0-4.761,0-9.522c1.146.7,1.732.045,2.5-.8A61.67,61.67,0,0,1,29.7,16.49,59.232,59.232,0,0,1,48.09,11.6a61.552,61.552,0,0,1,33.546,5.913,63.71,63.71,0,0,1,18.685,14.027c.155.167.3.341.444.518.78.957.781.956,1.875.453a.4.4,0,0,1,.285,0" transform="translate(-4.578 -8.342)" fill="#22afd6"/>
    <path id="Path_185933" data-name="Path 185933" d="M205.646,201.24c-2.374,0-4.748-.025-7.121.016-.7.012-.865-.212-.862-.882q.04-7.17,0-14.341c0-.652.131-.9.845-.9,2.426,0,2.426-.025,2.426,2.422,0,1.073.029,2.147-.011,3.219-.023.6.107.856.79.845,2.7-.04,5.4-.033,8.1,0,.6.006.787-.166.773-.767-.036-1.625.011-3.252-.025-4.877-.014-.618.141-.836.807-.839,2.46-.011,2.46-.039,2.46,2.383,0,4.26-.022,8.52.019,12.78.008.79-.234.971-.981.957-2.406-.045-4.812-.017-7.219-.017" transform="translate(-146.102 -136.842)" fill="#d29f6c"/>
    <path id="Path_185934" data-name="Path 185934" d="M213.822,267.386c0,2.374-.022,4.748.014,7.121.01.655-.136.9-.848.893q-7.218-.046-14.437,0c-.652,0-.9-.14-.895-.852q.046-7.218,0-14.437c0-.637.172-.818.816-.82,2.456-.007,2.455-.032,2.456,2.384,0,1.138.02,2.277-.009,3.414-.013.5.141.674.659.67q4.146-.034,8.291,0c.57.005.714-.191.7-.729-.029-1.658.015-3.317-.024-4.975-.014-.609.19-.755.776-.763,2.493-.034,2.493-.053,2.493,2.438v5.658" transform="translate(-146.098 -191.648)" fill="#d29f6c"/>
    <path id="Path_185935" data-name="Path 185935" d="M131.663,324.868a8.041,8.041,0,1,1,8.076-8.059,8.07,8.07,0,0,1-8.076,8.059" transform="translate(-91.359 -228.238)" fill="#959ea9"/>
    <path id="Path_185936" data-name="Path 185936" d="M20.513,324.867a8.042,8.042,0,1,1,8.068-7.942,8,8,0,0,1-8.068,7.942" transform="translate(-9.238 -228.237)" fill="#959ea9"/>
    <path id="Path_185937" data-name="Path 185937" d="M64.881,296.942c-1.866,0-3.679-.016-5.492.011-.468.007-.518-.279-.592-.6a11.054,11.054,0,0,0-8.824-8.834c-.458-.107-.606-.294-.618-.777-.07-2.694-.085-2.694,2.623-2.694,2.5,0,5.009,0,7.513,0,1.263,0,1.656.292,2.028,1.516q1.611,5.31,3.2,10.626c.064.214.095.439.16.746" transform="translate(-36.466 -209.956)" fill="#c6edff"/>
    <path id="Path_185938" data-name="Path 185938" d="M62.372,197.4c3.965,0,7.93.018,11.9-.016.711-.006.943.151.933.9-.03,2.372,0,2.373-2.368,2.373-7.475,0-14.951-.013-22.426.019-.794,0-1.047-.172-1.029-1,.052-2.278.012-2.279,2.269-2.279H62.372" transform="translate(-36.497 -145.894)" fill="#c6edff"/>
    <path id="Path_185939" data-name="Path 185939" d="M205.508,333.209c2.4,0,4.8.02,7.2-.013.628-.009.9.082.9.818-.022,2.408.012,2.408-2.426,2.408-4.316,0-8.633-.013-12.949.014-.655,0-.99-.119-.823-.838a1.4,1.4,0,0,0,.012-.291c.01-.671-.243-1.59.1-1.951.42-.446,1.345-.134,2.05-.141,1.98-.019,3.959-.007,5.939-.007" transform="translate(-145.864 -246.221)" fill="#cbd0d8"/>
    <path id="Path_185940" data-name="Path 185940" d="M12.088,281.056c0-2.473-.011-4.762.006-7.052.007-.871-.365-2,.145-2.546.562-.6,1.715-.159,2.608-.2,1-.041,2.011.011,3.015-.018.493-.014.694.129.687.652q-.036,2.675,0,5.351c.006.444-.153.608-.566.722a11.649,11.649,0,0,0-5.9,3.086" transform="translate(-8.847 -200.412)" fill="#cbd0d8"/>
    <path id="Path_185941" data-name="Path 185941" d="M224.046,262.544c-1.635,0-1.635,0-1.635-1.642,0-1.537,0-1.537,1.536-1.537,1.728,0,1.728,0,1.728,1.73a3.2,3.2,0,0,0,0,.485c.117.758-.174,1.088-.953.968a4.508,4.508,0,0,0-.68-.005" transform="translate(-164.395 -191.71)" fill="#b07845"/>
    <path id="Path_185942" data-name="Path 185942" d="M223.994,188.408c-1.582,0-1.582,0-1.582-1.6s0-1.589,1.59-1.589c1.675,0,1.675,0,1.675,1.694,0,1.491,0,1.491-1.682,1.491" transform="translate(-164.395 -136.907)" fill="#b07845"/>
    <path id="Path_185943" data-name="Path 185943" d="M176.2,299.491a15.34,15.34,0,0,0-2.987-2.11c-.414-.2-.284-.618-.256-.955.031-.379.364-.287.606-.3,2.649-.183,2.649-.182,2.638,2.472,0,.223,0,.446,0,.9" transform="translate(-127.808 -218.828)" fill="#c6edff"/>
    <path id="Path_185944" data-name="Path 185944" d="M100.378,24.165c-1.257.975-1.236.957-2.359-.291C88.348,13.132,76.431,6.347,62.149,4.05,44.344,1.186,28.243,5.394,13.938,16.384A53,53,0,0,0,5.7,24.261c-.629.746-1.1.974-1.747.119a1.25,1.25,0,0,0-.31-.218C2.462,23,2.457,23,3.58,21.75,13.825,10.339,26.481,3.066,41.634.834c23.39-3.446,43.156,3.821,59.134,21.285.845.923.825.939-.128,1.765a3.465,3.465,0,0,0-.263.282" transform="translate(-2.031 0)"/>
    <path id="Path_185945" data-name="Path 185945" d="M316.982,250.641c-2.405,0-4.81-.016-7.215.012-.573.007-.785-.122-.782-.747q.039-7.313,0-14.626c0-.633.216-.736.782-.741,2.431-.021,2.431-.039,2.431,2.405,0,1.105.018,2.211-.008,3.315-.012.506.079.762.681.756q4.192-.043,8.385,0c.538,0,.648-.2.641-.682-.023-1.69.011-3.38-.02-5.07-.01-.538.13-.712.7-.725,2.523-.057,2.523-.077,2.523,2.417,0,4.258-.017,8.516.016,12.773.005.719-.175.947-.917.932-2.4-.047-4.81-.018-7.215-.018" transform="translate(-228.385 -173.346)" fill="#d29f6c"/>
    <path id="Path_185946" data-name="Path 185946" d="M308.99,316.7c0-2.405.017-4.811-.013-7.215-.008-.578.121-.772.744-.777,2.467-.019,2.467-.045,2.467,2.369,0,1.073.036,2.147-.014,3.217-.031.659.134.9.847.889,2.665-.043,5.331-.038,8,0,.658.009.9-.129.88-.842-.056-1.623.012-3.25-.033-4.875-.016-.614.175-.751.765-.755,2.459-.017,2.459-.038,2.459,2.378,0,4.258-.018,8.516.021,12.773.007.78-.225.975-.983.97q-7.118-.049-14.236,0c-.73.005-.933-.182-.918-.916.048-2.4.018-4.81.018-7.215" transform="translate(-228.375 -228.175)" fill="#d29f6c"/>
    <path id="Path_185947" data-name="Path 185947" d="M335.226,311.963c-1.475,0-1.475,0-1.475-1.491,0-1.69,0-1.69,1.652-1.69,1.54,0,1.54,0,1.54,1.526,0,1.655,0,1.655-1.717,1.655" transform="translate(-246.691 -228.236)" fill="#b17946"/>
    <path id="Path_185948" data-name="Path 185948" d="M335.385,234.645c1.559,0,1.559,0,1.558,1.805,0,1.381,0,1.381-1.99,1.38-1.2,0-1.2,0-1.2-1.956,0-1.229,0-1.229,1.634-1.229" transform="translate(-246.691 -173.437)" fill="#b17946"/>
    <path id="Path_185949" data-name="Path 185949" d="M270.954,351.552l5.068-.072c-.659.421-1.388.172-2.077.178a10.841,10.841,0,0,1-2.99-.106" transform="translate(-200.275 -259.796)" fill="#e5e8ec"/>
    <path id="Path_185950" data-name="Path 185950" d="M150.45,65.265q-6.825,0-13.649,0c-.472,0-.834.06-.867-.659a14.516,14.516,0,1,1,28.977-1.769c.093,2.424.093,2.424-2.274,2.424H150.45" transform="translate(-100.463 -36.291)"/>
    <path id="Path_185951" data-name="Path 185951" d="M145.71,325.862a4.813,4.813,0,1,1-4.855-4.8,4.82,4.82,0,0,1,4.855,4.8" transform="translate(-100.587 -237.312)"/>
    <path id="Path_185952" data-name="Path 185952" d="M29.63,330.741a4.839,4.839,0,1,1,4.812-4.864,4.858,4.858,0,0,1-4.812,4.864" transform="translate(-18.306 -237.313)"/>
    <path id="Path_185953" data-name="Path 185953" d="M183.5,89.516h-8.818a4.659,4.659,0,0,1,8.818,0" transform="translate(-129.115 -63.835)" fill="#4fc0e8"/>
    <path id="Path_185954" data-name="Path 185954" d="M171.519,64.158c.267.951-.292,1.313-1.259,1.848-1.433.793-2.156.3-3.03-.708s-.923-.958.254-1.629a13.025,13.025,0,0,1,3.065-1.221c.7-.19,1.122-.11.977.765a6.768,6.768,0,0,0-.007.945" transform="translate(-123.133 -46.096)" fill="#68d4f2"/>
    <path id="Path_185955" data-name="Path 185955" d="M197.717,63.89c0-1.773,0-1.78,1.7-1.259a12.051,12.051,0,0,1,2.9,1.356c.421.266.513.434.111.858-1.772,1.87-2.113,1.938-4.416.74a.486.486,0,0,1-.3-.525c0-.39,0-.78,0-1.171" transform="translate(-146.142 -46.072)" fill="#68d4f2"/>
    <path id="Path_185956" data-name="Path 185956" d="M151.217,78.278c.706.8,1.313,1.51,1.957,2.19a.485.485,0,0,1,0,.761c-.667.675-.25,2.029-1.457,2.339a4.034,4.034,0,0,1-.971.012c-1.9,0-1.912,0-1.288-1.859a12.97,12.97,0,0,1,.724-1.694c.261-.516.587-1,1.035-1.747" transform="translate(-110.199 -57.859)" fill="#68d5f3"/>
    <path id="Path_185957" data-name="Path 185957" d="M220.557,84.517a3.276,3.276,0,0,0-.584.005c-.786.144-1.2-.155-1.3-.963-.091-.7-.958-1.335-.7-1.922.319-.723,1.134-1.218,1.7-1.843.344-.38.514-.306.773.1a13.038,13.038,0,0,1,1.643,3.821c.174.673.02.891-.654.809a7.382,7.382,0,0,0-.876-.006" transform="translate(-161.077 -58.797)" fill="#68d5f3"/>
    <path id="Path_185958" data-name="Path 185958" d="M151.561,335.07a1.617,1.617,0,0,1-3.234.039,1.617,1.617,0,0,1,3.234-.039" transform="translate(-109.635 -246.498)" fill="#cacfd6"/>
    <path id="Path_185959" data-name="Path 185959" d="M38.824,333.495a1.6,1.6,0,0,1,1.585,1.611,1.594,1.594,0,1,1-1.585-1.611" transform="translate(-27.512 -246.502)" fill="#cacfd7"/>
  </g>
</svg>
