<svg id="Group_123100" data-name="Group 123100" xmlns="http://www.w3.org/2000/svg" xmlns:xlink="http://www.w3.org/1999/xlink" width="100" height="73.913" viewBox="0 0 100 73.913">
  <defs>
    <clipPath id="clip-path">
      <rect id="Rectangle_37238" data-name="Rectangle 37238" width="100" height="73.913" fill="none"/>
    </clipPath>
  </defs>
  <g id="Group_111293" data-name="Group 111293" clip-path="url(#clip-path)">
    <path id="Path_105467" data-name="Path 105467" d="M0,101.971a18.715,18.715,0,0,0,.565-3.68,25.957,25.957,0,0,1,1.569-6.013,7.815,7.815,0,0,1,1.086-1.84A3.5,3.5,0,0,1,6.184,89.05,30.93,30.93,0,0,1,22,94.24a26.064,26.064,0,0,1,2.637,1.841,21.974,21.974,0,0,0,11.45,4.494.857.857,0,0,0,1.031-.569A5.779,5.779,0,0,1,44.4,97.171a5.681,5.681,0,0,1,3.522,6.963,7.139,7.139,0,0,0-.01,4.746,5.662,5.662,0,0,1-3.473,6.979,5.77,5.77,0,0,1-7.31-2.756A.93.93,0,0,0,36,112.52a21.343,21.343,0,0,0-10.7,4.063,41.619,41.619,0,0,1-5.29,3.534H53.626a31.354,31.354,0,0,1-1.386-6.655c-.649-6.512-.631-12.991,1.082-19.372a10.123,10.123,0,0,1,1.631-3.512,3.529,3.529,0,0,1,3.09-1.529,30.617,30.617,0,0,1,14.983,4.685,35.714,35.714,0,0,1,3.857,2.646,21.8,21.8,0,0,0,11.158,4.2.705.705,0,0,0,.838-.424c1.677-3.051,4.843-4.189,7.747-2.825A5.9,5.9,0,0,1,99.5,105.1a3.386,3.386,0,0,0,0,2.863,5.868,5.868,0,0,1-9.653,6.413,3.056,3.056,0,0,1-.738-1.018c-.291-.911-.911-.915-1.666-.8A21.631,21.631,0,0,0,76.58,117a31.714,31.714,0,0,1-4.625,3.059,1.933,1.933,0,0,0,1.1.156c5.533.006,11.067-.011,16.6.009a9.724,9.724,0,0,1,.857,19.429c-10.545.108-21.091.046-31.637.045-1.326,0-1.821-.472-2.225-1.977.478-1.543.982-1.922,2.595-1.924,3.45,0,6.9,0,10.35-.009.26,0,.571.141.8-.14-2.443-3.814-2.383-7.628.053-11.486H29.314a9.952,9.952,0,0,1,.04,11.572,1.621,1.621,0,0,0,.262.056q5.468.005,10.936.008c1.611,0,2.127.4,2.577,1.937-.424,1.6-.905,1.968-2.621,1.968q-15.078,0-30.156,0c-5.132,0-8.5-2.489-10.063-7.4-.053-.167-.026-.409-.288-.451v-3.711c.066-.059.175-.109.192-.179a9.889,9.889,0,0,1,2.74-4.948.384.384,0,0,0,.077-.579c-1.6-2.427-2.054-5.206-2.5-8A13.161,13.161,0,0,0,0,111.15Zm61.966,17.783a30.635,30.635,0,0,0,12.474-6.027,25.9,25.9,0,0,1,15.416-5.249,2,2,0,0,1,2.337,2.034,1.942,1.942,0,0,0,2.3,1.816,1.981,1.981,0,0,0,1.54-2.507A4.841,4.841,0,0,0,95.14,108c-.88-1.149-.872-1.782.019-2.966a4.781,4.781,0,0,0,.769-1.455c.437-1.4-.129-2.567-1.38-2.825s-2.159.511-2.352,1.95a1.874,1.874,0,0,1-2.082,1.851A25.487,25.487,0,0,1,74.7,99.616a41.354,41.354,0,0,0-4.45-2.986,28.092,28.092,0,0,0-8.279-3.2,55.721,55.721,0,0,1,0,26.327M10.126,93.425a55.391,55.391,0,0,1,0,26.3c.171-.023.295-.031.414-.058a28.976,28.976,0,0,0,11.572-5.591,26.438,26.438,0,0,1,15.494-5.589c1.854-.1,2.431.37,2.779,2.2a1.912,1.912,0,0,0,2.249,1.644,1.941,1.941,0,0,0,1.577-2.3,4.688,4.688,0,0,0-1.03-2.174,1.9,1.9,0,0,1,.008-2.659,4.646,4.646,0,0,0,1-2.08,1.929,1.929,0,0,0-1.571-2.385,1.9,1.9,0,0,0-2.229,1.764c-.249,1.561-.843,2.1-2.405,2.059a25.659,25.659,0,0,1-15.516-5.211c-.771-.6-1.57-1.158-2.388-1.687a29.176,29.176,0,0,0-9.959-4.23m11.217,42.367a5.85,5.85,0,0,0,5.954-5.8,5.845,5.845,0,0,0-11.687-.19,5.8,5.8,0,0,0,5.733,5.993m56.988,0a5.838,5.838,0,1,0-.016-11.676,5.838,5.838,0,0,0,.016,11.676m7.89,0c1.424,0,2.712.028,4-.006a5.816,5.816,0,0,0,1.492-11.4c-1.772-.524-3.58-.192-5.534-.3a10.035,10.035,0,0,1,.045,11.706m-72.775-11.6c-1.524,0-2.994-.115-4.439.025a5.727,5.727,0,0,0-5.069,5.006,5.843,5.843,0,0,0,3.624,6.159c1.926.76,3.921.3,5.983.428-2.425-4.379-2.428-6.1-.1-11.618m-7.869-4.758.528-.016a48.412,48.412,0,0,0,0-25.676H5.595a48.617,48.617,0,0,0-.016,25.692M57.94,93.644h-.487A46.238,46.238,0,0,0,57.7,119.5a46.832,46.832,0,0,0,.24-25.858" transform="translate(0 -65.803)" fill="#030303"/>
    <path id="Path_105468" data-name="Path 105468" d="M126.116,237.142c-.451-1.542-.966-1.935-2.577-1.937q-5.468-.008-10.936-.008a1.63,1.63,0,0,1-.262-.057,9.952,9.952,0,0,0-.04-11.571h41.139c-2.436,3.859-2.5,7.672-.054,11.486-.229.282-.54.14-.8.141-3.45.012-6.9.005-10.35.009-1.613,0-2.117.381-2.595,1.924l-4.792,0a2.009,2.009,0,0,0-1.31-1.772c-1.226-.44-2.2.2-2.665,1.772l-4.759.017" transform="translate(-82.987 -165.211)" fill="#38d4ff"/>
    <path id="Path_105469" data-name="Path 105469" d="M101.44,28.553a6.516,6.516,0,0,1,2.635-5.259c2.023-1.576,2.073-3.147.166-4.9a1.906,1.906,0,0,1-.306-2.7,1.958,1.958,0,0,1,2.7-.35,6.644,6.644,0,0,1,.418,10.578c-.151.123-.313.232-.466.352a2.719,2.719,0,0,0-.1,4.543,1.968,1.968,0,0,1,.466,2.895,1.992,1.992,0,0,1-2.944.108,6.512,6.512,0,0,1-2.574-5.263" transform="translate(-74.961 -11.053)" fill="#030303"/>
    <path id="Path_105470" data-name="Path 105470" d="M266.3,5.866a6.507,6.507,0,0,1-2.582,5.221c-2.084,1.655-2.141,3.138-.181,4.958a1.937,1.937,0,0,1,.249,2.711,1.96,1.96,0,0,1-2.712.289,6.639,6.639,0,0,1-.429-10.514c.2-.164.416-.311.618-.475a2.7,2.7,0,0,0,.038-4.427c-1.051-.9-1.254-1.973-.544-2.883a1.991,1.991,0,0,1,3.01-.129A6.479,6.479,0,0,1,266.3,5.866" transform="translate(-190.849 -0.001)" fill="#030303"/>
    <path id="Path_105471" data-name="Path 105471" d="M64.126,13.593a6.469,6.469,0,0,1,2.6-5.2c2.035-1.6,2.11-3.2.224-4.9a1.927,1.927,0,0,1-.358-2.7A1.961,1.961,0,0,1,69.367.45a6.606,6.606,0,0,1,.169,10.691,3.156,3.156,0,0,0-1.46,1.973,2.769,2.769,0,0,0,1.06,2.756,1.953,1.953,0,0,1,.524,2.881,1.993,1.993,0,0,1-3.011.1,6.464,6.464,0,0,1-2.523-5.259" transform="translate(-47.387 -0.025)" fill="#030303"/>
    <path id="Path_105472" data-name="Path 105472" d="M303.639,20.669a6.622,6.622,0,0,1-2.689,5.437c-1.957,1.525-2,3.162-.132,4.837a1.94,1.94,0,0,1-2.365,3.075,6.644,6.644,0,0,1-.445-10.575c.176-.143.366-.269.543-.411a2.718,2.718,0,0,0,.057-4.49,1.957,1.957,0,1,1,2.441-3.021,6.462,6.462,0,0,1,2.59,5.149" transform="translate(-218.441 -11.038)" fill="#030303"/>
    <path id="Path_105473" data-name="Path 105473" d="M183.456,270.1c.468-1.567,1.439-2.211,2.665-1.772a2.009,2.009,0,0,1,1.31,1.772c-.251,1.315-.835,1.928-1.877,1.969-1.115.044-1.724-.528-2.1-1.97" transform="translate(-135.569 -198.19)" fill="#030303"/>
    <path id="Path_105474" data-name="Path 105474" d="M237.391,132.155a55.721,55.721,0,0,0,0-26.327,28.08,28.08,0,0,1,8.279,3.2,41.379,41.379,0,0,1,4.449,2.986,25.489,25.489,0,0,0,15.415,4.935,1.874,1.874,0,0,0,2.082-1.851c.193-1.439,1.116-2.2,2.352-1.95s1.817,1.427,1.38,2.825a4.787,4.787,0,0,1-.769,1.455c-.89,1.184-.9,1.817-.019,2.966a4.84,4.84,0,0,1,.892,1.825,1.981,1.981,0,0,1-1.54,2.507,1.942,1.942,0,0,1-2.3-1.816,2,2,0,0,0-2.337-2.034,25.9,25.9,0,0,0-15.416,5.249,30.638,30.638,0,0,1-12.474,6.027" transform="translate(-175.425 -78.204)" fill="#fcd88d"/>
    <path id="Path_105475" data-name="Path 105475" d="M38.793,105.817a29.175,29.175,0,0,1,9.959,4.231c.818.529,1.617,1.092,2.388,1.687a25.662,25.662,0,0,0,15.517,5.211c1.562.038,2.156-.5,2.4-2.059a1.9,1.9,0,0,1,2.229-1.764,1.93,1.93,0,0,1,1.571,2.385,4.648,4.648,0,0,1-1,2.08,1.9,1.9,0,0,0-.008,2.659,4.683,4.683,0,0,1,1.03,2.173,1.941,1.941,0,0,1-1.577,2.3,1.912,1.912,0,0,1-2.249-1.644c-.349-1.832-.925-2.3-2.779-2.2a26.438,26.438,0,0,0-15.494,5.588,28.971,28.971,0,0,1-11.572,5.591c-.119.028-.243.035-.414.058a55.392,55.392,0,0,0,0-26.3" transform="translate(-28.667 -78.196)" fill="#fcd88d"/>
    <path id="Path_105476" data-name="Path 105476" d="M65.536,235.063a5.84,5.84,0,0,1,.139-11.679,5.91,5.91,0,0,1,5.815,5.875,5.85,5.85,0,0,1-5.954,5.8m.126-3.9a1.946,1.946,0,0,0,1.924-1.929,1.989,1.989,0,0,0-1.936-1.939,1.939,1.939,0,0,0-1.945,2,1.888,1.888,0,0,0,1.957,1.867" transform="translate(-44.192 -165.074)" fill="#fbf1f1"/>
    <path id="Path_105477" data-name="Path 105477" d="M283.554,235.078a5.838,5.838,0,1,1,5.855-5.786,5.848,5.848,0,0,1-5.855,5.786m.009-3.9a1.9,1.9,0,0,0,1.943-1.891,1.956,1.956,0,0,0-1.979-1.977,1.989,1.989,0,0,0-1.911,1.963,1.937,1.937,0,0,0,1.947,1.9" transform="translate(-205.222 -165.088)" fill="#fbf1f1"/>
    <path id="Path_105478" data-name="Path 105478" d="M330.192,234.97a10.035,10.035,0,0,0-.045-11.706c1.954.111,3.763-.22,5.534.3a5.816,5.816,0,0,1-1.492,11.4c-1.286.034-2.574.006-4,.006" transform="translate(-243.969 -164.983)" fill="#38d4ff"/>
    <path id="Path_105479" data-name="Path 105479" d="M24.457,223.538c-2.329,5.517-2.327,7.238.1,11.618-2.062-.128-4.057.332-5.983-.428a5.843,5.843,0,0,1-3.624-6.159,5.727,5.727,0,0,1,5.069-5.006c1.445-.14,2.915-.025,4.439-.025" transform="translate(-11.01 -165.155)" fill="#38d4ff"/>
    <path id="Path_105480" data-name="Path 105480" d="M16.5,132.7a48.62,48.62,0,0,1,.016-25.692h.508a48.411,48.411,0,0,1,0,25.677l-.528.016" transform="translate(-10.924 -79.075)" fill="#f6e3cb"/>
    <path id="Path_105481" data-name="Path 105481" d="M215.714,106.657a46.832,46.832,0,0,1-.24,25.858,46.238,46.238,0,0,1-.247-25.858h.487" transform="translate(-157.774 -78.816)" fill="#f6e3cb"/>
    <path id="Path_105482" data-name="Path 105482" d="M76.709,242.225a1.888,1.888,0,0,1-1.957-1.867,1.939,1.939,0,0,1,1.945-2,1.989,1.989,0,0,1,1.936,1.939,1.946,1.946,0,0,1-1.924,1.929" transform="translate(-55.238 -176.139)" fill="#030303"/>
    <path id="Path_105483" data-name="Path 105483" d="M294.611,242.225a1.938,1.938,0,0,1-1.947-1.9,1.989,1.989,0,0,1,1.911-1.963,1.955,1.955,0,0,1,1.979,1.977,1.9,1.9,0,0,1-1.943,1.891" transform="translate(-216.271 -176.139)" fill="#030303"/>
  </g>
</svg>
