<svg id="Group_121844" data-name="Group 121844" xmlns="http://www.w3.org/2000/svg" xmlns:xlink="http://www.w3.org/1999/xlink" width="150" height="150" viewBox="0 0 150 150">
  <defs>
    <clipPath id="clip-path">
      <rect id="Rectangle_39199" data-name="Rectangle 39199" width="150" height="150" fill="#0f1e5a"/>
    </clipPath>
  </defs>
  <g id="Group_121844-2" data-name="Group 121844" clip-path="url(#clip-path)">
    <path id="Path_185223" data-name="Path 185223" d="M53.226,130.644c0,3.821,0,7.487,0,11.153,0,5.337-2.873,8.2-8.224,8.2q-18.445,0-36.889,0C2.894,150,0,147.087,0,141.838q0-13.456,0-26.911c0-5.7,2.714-8.437,8.4-8.476.35,0,.7,0,1.278,0V104.5q0-45.658,0-91.315C9.679,5,14.675,0,22.848,0q57,0,113.993,0C145.008,0,150,5.006,150,13.2q0,52.158,0,104.317c0,8.085-5.025,13.129-13.078,13.129q-40.82,0-81.639,0ZM77.46,23.6c-.018.4-.039.651-.039.9q0,45.51-.022,91.021a1.326,1.326,0,0,0,1.161,1.543c8.085,2.275,16.155,4.6,24.232,6.911,1.173.335,2.357.637,3.576.965V15.339L77.46,23.6m33.889,5.733c.7-.1,1.334-.241,1.972-.279,4.288-.254,7.641,3.106,7.643,7.7q.013,33.41,0,66.819c0,.3,0,.605-.016.907a7.286,7.286,0,0,1-7.779,6.789c-.587-.049-1.168-.176-1.8-.276v5.048h33.688V24.316H111.349ZM38.739,125.7H14.48V111.29c-2.261,0-4.413-.008-6.566,0-2.25.011-3.071.839-3.072,3.121q-.009,13.754,0,27.507c0,2.461.784,3.238,3.261,3.239q18.514,0,37.029,0c2.472,0,3.253-.781,3.255-3.247q.007-9.446,0-18.892c0-2.972.014-5.945-.006-8.917-.011-1.638-.774-2.711-2.173-2.766-2.45-.1-4.905-.027-7.469-.027ZM72.53,24.3H24.288V87.156h9.583V81.674c0-4.888.046-9.776-.019-14.663-.032-2.376.186-4.627,1.892-6.515a8.857,8.857,0,0,1-1.894-6.266c.066-5.794.014-11.589.024-17.384.008-4.807,3.021-7.808,7.847-7.812q15.379-.012,30.809,0Zm-57.9-9.746v91.819h4.748V19.355h1.948q25.475,0,50.951-.028a19.448,19.448,0,0,0,4.739-.654c3.5-.9,6.969-1.96,10.447-2.961,1.072-.309,2.137-.641,3.205-.962l-.059-.192ZM48.407,33.871c-2.376,0-4.535-.011-6.693,0s-3,.86-3,3.04q-.014,9.067,0,18.133c0,2.162.856,3.007,3.028,3.013,4.231.012,8.462,0,12.693,0,5.087,0,10.175.009,15.262-.006,1.789-.005,2.846-.827,2.857-2.406.046-6.447.032-12.895.01-19.342a2.134,2.134,0,0,0-1.936-2.341c-2.538-.155-5.091-.047-7.8-.047v9.544H48.407Zm14.51,38.583H48.335V62.907c-2.476,0-4.789-.037-7.1.013a2.365,2.365,0,0,0-2.511,2.6q-.041,9.444,0,18.889a2.387,2.387,0,0,0,2.595,2.674q14.355.035,28.711,0a2.318,2.318,0,0,0,2.532-2.422q.058-9.671,0-19.342A2.13,2.13,0,0,0,70.6,63c-2.536-.148-5.087-.045-7.685-.045ZM15.18,9.59H144.471a1.463,1.463,0,0,0,.015-.374,1.966,1.966,0,0,0-.179-.413,7.425,7.425,0,0,0-7.091-3.977q-57.378.028-114.756.013c-.4,0-.808-.011-1.209.019A6.838,6.838,0,0,0,15.18,9.59M24.2,106.451h1.815q9.516,0,19.033,0c5.256,0,8.155,2.871,8.176,8.085,0,.488,0,.976,0,1.586.9,0,1.646.037,2.386-.008a2.368,2.368,0,0,0,2.435-2.526q.046-9.591,0-19.184A2.177,2.177,0,0,0,56,92.009c-2.492-.138-5-.04-7.656-.04v9.523H33.816V91.948c-2.513,0-4.921-.064-7.323.025a2.211,2.211,0,0,0-2.273,2.349c-.054,3.972-.019,7.944-.019,12.129m91.927-36.29q0-16.329,0-32.658a8.486,8.486,0,0,0-.04-1.509,2.4,2.4,0,0,0-4.76,0,7.447,7.447,0,0,0-.037,1.358q0,32.809,0,65.618a7.482,7.482,0,0,0,.037,1.358,2.4,2.4,0,0,0,4.759,0,8.527,8.527,0,0,0,.04-1.509q0-16.328,0-32.658M72.516,91.887H62.761v24.159h9.754Zm38.842-72.639h33.678V14.6H111.358Zm33.13,101.825H111.415V125.8c8.989,0,17.853.031,26.716-.017a6.676,6.676,0,0,0,6.355-4.71m-53.926,4.694.048-.245c-3.946-1.125-7.887-2.266-11.84-3.366a20.174,20.174,0,0,0-4.81-1.135c-6.64-.128-13.284-.054-19.927-.048a5.551,5.551,0,0,0-.7.085v4.709ZM33.808,111.391H19.469v9.5h4.744v-4.657h4.9v4.649h4.694ZM57.939,33.972h-4.6v4.7h4.6Zm.021,29.049H53.3v4.652H57.96ZM43.48,92.04H38.828V96.7H43.48Z" transform="translate(0 0)" fill="#0f1e5a"/>
    <path id="Path_185224" data-name="Path 185224" d="M311.384,112.822c0-11.185-.022-22.369.01-33.554a7.248,7.248,0,1,1,14.493-.14c.037,4.282.011,8.565.011,12.847q0,27.206,0,54.411c0,4.236-2.82,7.435-6.732,7.7a7.267,7.267,0,0,1-7.771-7.413c-.029-8.867-.009-17.734-.009-26.6q0-3.628,0-7.255m9.677.156q0-16.329,0-32.658a8.411,8.411,0,0,0-.04-1.509,2.4,2.4,0,0,0-4.76,0,7.48,7.48,0,0,0-.037,1.357q0,32.809,0,65.618a7.442,7.442,0,0,0,.038,1.357,2.4,2.4,0,0,0,4.76,0,8.527,8.527,0,0,0,.039-1.509q0-16.328,0-32.658" transform="translate(-185.577 -42.819)" fill="#0f1e5a"/>
  </g>
</svg>
