<svg id="Group_121842" data-name="Group 121842" xmlns="http://www.w3.org/2000/svg" xmlns:xlink="http://www.w3.org/1999/xlink" width="150.035" height="150" viewBox="0 0 150.035 150">
  <defs>
    <clipPath id="clip-path">
      <rect id="Rectangle_39198" data-name="Rectangle 39198" width="150.034" height="150" fill="#0f1e5a"/>
    </clipPath>
  </defs>
  <g id="Group_121843" data-name="Group 121843" clip-path="url(#clip-path)">
    <path id="Path_185216" data-name="Path 185216" d="M123.363,150h-96.7a4.382,4.382,0,0,0-.66-.265A12.362,12.362,0,0,1,16.173,139.4c-2.011-12.4-3.961-24.806-5.942-37.209C9.456,97.337,8.663,92.49,7.9,87.8a34.416,34.416,0,0,1-3.86-1.254c-2.176-1-3.225-2.981-4.044-5.1V78.517c1.521-4.549,4.757-6.339,9.435-6.052,2.527.155,5.071.033,7.608.022a8.792,8.792,0,0,0,1.018-.1,34.95,34.95,0,0,1-1.85-5.451c-2.349-14.227-4.582-28.473-6.856-42.712-.489-3.063-1-6.122-1.493-9.128-.788-.129-1.419-.19-2.028-.339C2.66,13.977.972,11.732,0,8.792V6.156C2.006,1.219,3.82,0,9.188,0H141c.635,0,1.271-.02,1.9.022A7.732,7.732,0,0,1,150,6.852a7.537,7.537,0,0,1-5.758,7.937c-.652.158-1.334.2-2.029.3-.1.459-.22.878-.288,1.3-1.894,11.843-3.65,23.709-5.723,35.521-1.2,6.856-1.239,13.985-4.4,20.579.525,0,1,0,1.485,0,3.367.035,6.745-.091,10.1.152a7.4,7.4,0,0,1,6.639,7.194,7.5,7.5,0,0,1-6.258,7.533c-.518.088-1.037.171-1.562.257-.1.44-.2.814-.262,1.195-2.581,16.127-5.229,32.243-7.692,48.388-.767,5.026-2.531,9.206-7.324,11.539A31.342,31.342,0,0,1,123.363,150m-48.42-14.977h41.167c2.707,0,3.357-.577,3.761-3.187.515-3.325,1.071-6.644,1.605-9.966,1.106-6.885,2.224-13.769,3.308-20.658.414-2.634-.493-3.68-3.112-3.684-6.007-.007-12.014-.025-18.02.032a2.832,2.832,0,0,0-1.859.771,12.287,12.287,0,0,1-9.2,4.162q-17.58.083-35.16,0a12.417,12.417,0,0,1-9.11-4.054,3.071,3.071,0,0,0-1.953-.875c-5.908-.067-11.818-.041-17.727-.038-3,0-3.841,1.016-3.361,3.983q2.443,15.092,4.863,30.188c.452,2.825,1.017,3.327,3.927,3.327H74.944m.1-72.545q20.729,0,41.457,0c2.194,0,2.991-.656,3.313-2.666q2.474-15.456,4.947-30.913c.452-2.825-.47-3.912-3.347-3.915-5.86-.006-11.72-.033-17.579.038a3.31,3.31,0,0,0-2.1.9,12.011,12.011,0,0,1-8.666,4.008q-18.017.076-36.035.005a11.4,11.4,0,0,1-8.64-4.006,2.714,2.714,0,0,0-2.277-.96c-5.811.03-11.621.012-17.433.016-3.04,0-3.886,1.074-3.39,4.127q2.452,15.09,4.857,30.187c.426,2.671.986,3.182,3.731,3.182q20.582,0,41.164,0m29.915-42.5h1.664c5.03,0,10.061-.012,15.091,0,5.524.017,8.884,3.809,8.044,9.238q-2.44,15.76-5.039,31.5c-.721,4.4-3.549,6.758-7.995,6.76q-41.683.017-83.365,0c-4.526,0-7.351-2.38-8.077-6.842q-2.549-15.669-5.015-31.351c-.85-5.43,2.485-9.281,7.975-9.3,5.079-.019,10.158,0,15.237,0h1.555c.244-4.239-.672-5.077-4.493-5.03-8.643.105-17.288.033-25.932.033H12.939c.592,3.716,1.15,7.227,1.711,10.737,2.1,13.147,4.176,26.3,6.329,39.439.87,5.309,3.4,7.336,8.806,7.336H94.836c8.742,0,17.484.02,26.226-.01,4.45-.015,7.2-2.434,7.91-6.833q3.175-19.718,6.345-39.436c.593-3.692,1.158-7.388,1.759-11.233H109.543c-4.073,0-4.528.44-4.656,4.5a3.965,3.965,0,0,0,.076.5m-.11,72.548h1.741c5.078,0,10.157-.012,15.236,0,5.445.017,8.764,3.772,7.933,9.158q-2.445,15.832-5.069,31.636c-.72,4.352-3.634,6.69-8.072,6.691q-41.606.008-83.21,0c-4.49,0-7.382-2.39-8.109-6.83q-2.577-15.737-5.037-31.493c-.833-5.392,2.477-9.144,7.925-9.161,5.127-.016,10.255,0,15.382-.007.508,0,1.017-.046,1.545-.071,0-.426.011-.668,0-.908-.186-3.582-.643-4.018-4.2-4.018H13c.035.4.039.546.061.688q4.023,25.21,8.054,50.419a7.435,7.435,0,0,0,7.6,6.367q46.293.021,92.587,0a7.45,7.45,0,0,0,7.645-6.653q3.036-18.923,6.08-37.845c.684-4.268,1.344-8.539,2.041-12.977H112.484c-1.562,0-3.126-.023-4.687.009a2.489,2.489,0,0,0-2.787,2.541c-.087.759-.1,1.526-.156,2.45M75,4.995H8.927c-.488,0-.979-.025-1.465.014A2.577,2.577,0,0,0,5,7.445,2.646,2.646,0,0,0,7.4,9.96a14.03,14.03,0,0,0,1.464.026q16.336,0,32.671,0c5.272,0,8.16,2.7,8.518,7.946a7.26,7.26,0,0,0,7.245,7.01q17.726.09,35.453,0a7.255,7.255,0,0,0,7.219-7.035c.354-5.232,3.247-7.917,8.544-7.919q16.409,0,32.817,0c.44,0,.881.018,1.318-.016a2.369,2.369,0,0,0,2.32-2.068,2.254,2.254,0,0,0-1.6-2.638A6.418,6.418,0,0,0,141.22,5Q108.11,4.986,75,4.995m-.134,72.516q-32.888,0-65.777,0c-.585,0-1.175-.017-1.756.038a2.388,2.388,0,0,0-2.312,2.239,2.442,2.442,0,0,0,1.949,2.569,8.27,8.27,0,0,0,1.887.158c11.036.009,22.072-.006,33.108.013,4.811.009,7.741,2.8,8.076,7.6a7.48,7.48,0,0,0,7.834,7.386c2.686.026,5.371.005,8.057.005,8.741,0,17.482.018,26.223-.009,4.306-.013,7.677-2.9,7.767-6.947.1-4.556,3.255-8.194,8.729-8.1,10.789.184,21.583.054,32.375.054.488,0,.979.023,1.464-.02a2.572,2.572,0,0,0,2.537-2.516,2.618,2.618,0,0,0-2.481-2.431c-.581-.058-1.17-.041-1.756-.041q-32.961,0-65.923,0" transform="translate(0 0)" fill="#0f1e5a"/>
    <path id="Path_185217" data-name="Path 185217" d="M107.19,276.947a9.734,9.734,0,0,1-1.122,2.06q-6.118,6.206-12.319,12.33a2.429,2.429,0,0,1-3.649.079,2.464,2.464,0,0,1,.194-3.647q6.033-6.084,12.108-12.127c.821-.821,1.829-1.347,2.886-.7a10.6,10.6,0,0,1,1.9,2" transform="translate(-54.4 -167.161)" fill="#0f1e5a"/>
    <path id="Path_185218" data-name="Path 185218" d="M90.725,271.022a10.5,10.5,0,0,1-1.012,1.984,25.135,25.135,0,0,1-2.467,2.488,2.477,2.477,0,0,1-3.54-3.466,13.418,13.418,0,0,1,2.727-2.619,3.556,3.556,0,0,1,2.679-.282c.659.222,1.062,1.205,1.613,1.9" transform="translate(-50.518 -163.711)" fill="#0f1e5a"/>
    <path id="Path_185219" data-name="Path 185219" d="M107.28,91.859a12.45,12.45,0,0,1-1.3,2.1q-5.952,6.035-11.977,12c-1.237,1.228-2.7,1.305-3.75.285a2.513,2.513,0,0,1,.181-3.754q6.021-6.07,12.083-12.1a2.321,2.321,0,0,1,2.917-.609,9.241,9.241,0,0,1,1.849,2.081" transform="translate(-54.468 -54.462)" fill="#0f1e5a"/>
    <path id="Path_185220" data-name="Path 185220" d="M85.68,90.8c-.676-.541-1.647-.956-1.947-1.657a3.074,3.074,0,0,1,.188-2.533A15.655,15.655,0,0,1,86.863,83.6a2.225,2.225,0,0,1,2.957,0,2.083,2.083,0,0,1,.762,2.833,31,31,0,0,1-3.835,3.9c-.179.171-.555.136-.839.2l-.227.263" transform="translate(-50.848 -50.543)" fill="#0f1e5a"/>
    <path id="Path_185221" data-name="Path 185221" d="M164.461,30.5c-4.973,0-9.947.017-14.92-.012a2.471,2.471,0,0,1-2.6-2.415,2.553,2.553,0,0,1,2.5-2.549c.387-.034.78-.014,1.17-.014h27.646c.341,0,.683-.013,1.023.007a2.582,2.582,0,0,1,2.674,2.527,2.507,2.507,0,0,1-2.718,2.448c-4.924.023-9.849.009-14.774.007" transform="translate(-89.433 -15.523)" fill="#0f1e5a"/>
    <path id="Path_185222" data-name="Path 185222" d="M164.474,210.847q6.947,0,13.895,0a10.235,10.235,0,0,1,1.459.058,2.293,2.293,0,0,1,2.093,2.269,2.251,2.251,0,0,1-1.659,2.461,5.824,5.824,0,0,1-1.728.205q-14.114.018-28.228.008c-.146,0-.293,0-.439,0-1.809-.069-2.964-1.09-2.922-2.584.04-1.452,1.135-2.4,2.9-2.409,4.875-.021,9.751-.007,14.626-.008" transform="translate(-89.433 -128.325)" fill="#0f1e5a"/>
  </g>
</svg>
