<svg id="Group_123098" data-name="Group 123098" xmlns="http://www.w3.org/2000/svg" xmlns:xlink="http://www.w3.org/1999/xlink" width="86.679" height="100" viewBox="0 0 86.679 100">
  <defs>
    <clipPath id="clip-path">
      <rect id="Rectangle_37249" data-name="Rectangle 37249" width="86.679" height="100" fill="none"/>
    </clipPath>
  </defs>
  <g id="Group_111321" data-name="Group 111321" clip-path="url(#clip-path)">
    <path id="Path_105640" data-name="Path 105640" d="M5.913,40.235q0-1.645,0-3.289c1.311-.288,1.686-.732,1.687-2.062,0-7.322.012-14.644-.014-21.966,0-.751.159-1.032.97-1.012,2.462.062,4.927.04,7.391.05v3.27c-.833.01-1.665.028-2.5.03-2.093,0-2.514.414-2.514,2.468q0,34.985,0,69.971c0,2.158.4,2.56,2.523,2.563l22.7.034a29.072,29.072,0,0,0,3.165,2.079c.569.347,1.265.528,1.631,1.165-1.338.365-1.676.776-1.681,2.094-.007,2.048-.015,4.1,0,6.144a1.667,1.667,0,1,0,3.323.023c.021-1.77.005-3.541.007-5.311a5.941,5.941,0,0,0-.231-2.258c1.3.065,2.3.963,3.532,1.226.01,2.078.014,4.155.034,6.233.011,1.163.624,1.869,1.611,1.9,1.03.032,1.7-.7,1.718-1.9.022-1.662.026-3.324.038-4.986,1.115.089,2.115.778,3.276.629.007,1.453.006,2.906.024,4.359.014,1.162.625,1.867,1.613,1.9,1.029.031,1.7-.7,1.717-1.9.02-1.176.025-2.352.036-3.528a22.789,22.789,0,0,0,3.271.21c.009,1.141.005,2.283.032,3.423a1.668,1.668,0,1,0,3.326,0c.028-1.072.025-2.144.035-3.216h3.27c.011,1.072.008,2.144.035,3.216a1.668,1.668,0,1,0,3.326,0c.028-1.071.025-2.144.035-3.216h3.27c.011,1.072.008,2.144.035,3.216a1.668,1.668,0,1,0,3.326,0c.028-1.071.025-2.144.035-3.216h3.27c.011,1.072.008,2.144.035,3.216a1.668,1.668,0,1,0,3.326,0c.028-1.071.025-2.144.036-3.216h4.937c.01,1.8-.054,3.613.059,5.41.07,1.107-.323,1.29-1.333,1.289q-38.679-.041-77.358-.022c-1.343,0-1.344,0-1.344-1.331q0-30.71,0-61.421c0-1.548-.316-1.968-1.689-2.269M15.936,98.642c0-1.04.009-2.081,0-3.121-.014-1.218-.66-1.943-1.691-1.928a1.658,1.658,0,0,0-1.637,1.876q-.021,3.121,0,6.242a1.66,1.66,0,0,0,1.637,1.876c1.031.016,1.677-.711,1.691-1.929.012-1.005,0-2.011,0-3.017m6.667,0V95.523c0-.035,0-.069,0-.1a1.668,1.668,0,0,0-1.691-1.826,1.63,1.63,0,0,0-1.636,1.77q-.033,3.224,0,6.449a1.633,1.633,0,0,0,1.632,1.775,1.656,1.656,0,0,0,1.691-1.823c.019-1.04,0-2.08,0-3.121m6.666-.028c0-1.11.025-2.22-.007-3.329a1.659,1.659,0,1,0-3.316,0c-.029,2.184-.026,4.369,0,6.553a1.662,1.662,0,1,0,3.32,0c.027-1.074.006-2.15.006-3.225M32.6,98.5c0,1.075-.013,2.15,0,3.225a1.673,1.673,0,1,0,3.326.028q.026-3.172,0-6.345a1.667,1.667,0,1,0-3.323-.028c-.022,1.04,0,2.08-.005,3.121" transform="translate(-4.267 -8.59)" fill="#22afd6"/>
    <path id="Path_105641" data-name="Path 105641" d="M71.911,95.433c-1.228-.263-2.235-1.161-3.532-1.226a2.535,2.535,0,0,0-1.422-.692c-.365-.637-1.061-.819-1.631-1.165a29.1,29.1,0,0,1-3.165-2.079c.451-.011.9-.033,1.352-.033q22.281,0,44.562,0c1.611,0,2.2-.543,2.2-2.056q.005-32.116,0-64.232c0-1.318-.364-1.749-1.688-2.08v-3.26q1.825-.464,1.678-1.872c-.1-.958-.807-1.485-2.019-1.5-.278,0-.555,0-.833,0H43.3c-.451,0-.9-.019-1.352-.03v-3.27c.347-.01.693-.03,1.04-.03q34.682,0,69.364-.03c1.093,0,1.283.314,1.282,1.325q-.046,29.887-.022,59.775c0,1.544.307,1.957,1.683,2.287q0,1.64,0,3.28c-1.311.312-1.679.751-1.682,2.067q-.022,8.974-.033,17.949h-4.937c-.011-1.066-.007-2.134-.036-3.2a1.667,1.667,0,1,0-3.325,0c-.03,1.066-.026,2.133-.036,3.2h-3.27c-.011-1.066-.007-2.134-.036-3.2a1.667,1.667,0,1,0-3.325,0c-.03,1.066-.026,2.133-.036,3.2H95.31c-.011-1.066-.007-2.134-.036-3.2a1.667,1.667,0,1,0-3.325,0c-.03,1.066-.026,2.133-.036,3.2h-3.27c-.011-1.066-.006-2.133-.036-3.2a1.667,1.667,0,1,0-3.325,0c-.028,1-.023,2-.032,2.993a22.79,22.79,0,0,1-3.271-.21c-.012-.962,0-1.925-.042-2.886a1.66,1.66,0,1,0-3.32-.006c-.035.686-.021,1.374-.028,2.062-1.161.149-2.161-.54-3.276-.629-.012-.342-.03-.683-.034-1.025-.015-1.269-.53-1.981-1.507-2.078-1.014-.1-1.671.555-1.86,1.853" transform="translate(-30.27 -8.569)" fill="#22afd6"/>
    <path id="Path_105642" data-name="Path 105642" d="M83.313,172q.015-8.974.033-17.949c0-1.316.371-1.755,1.682-2.067,1.31.354,1.648.774,1.649,2.117q.005,12.915,0,25.831c0,1.492-.587,2.076-2.085,2.077q-41.251,0-82.5,0c-1.5,0-2.084-.582-2.085-2.075q0-32.081,0-64.161c0-1.355.333-1.768,1.644-2.116,1.372.3,1.689.722,1.689,2.269q0,30.71,0,61.421c0,1.33,0,1.331,1.344,1.331q38.679,0,77.358.022c1.011,0,1.4-.182,1.333-1.289-.113-1.8-.048-3.606-.059-5.41" transform="translate(-0.001 -82.008)"/>
    <path id="Path_105643" data-name="Path 105643" d="M85.027,66.694c-1.376-.33-1.683-.743-1.683-2.287q0-29.887.022-59.775c0-1.011-.188-1.326-1.282-1.325q-34.682.056-69.364.03c-.347,0-.693.019-1.04.03-2.464-.01-4.928.013-7.39-.05-.811-.021-.972.261-.97,1.012.026,7.322.018,14.644.013,21.966,0,1.33-.376,1.773-1.687,2.062C.336,28,0,27.591,0,26.238Q0,14.208,0,2.178C0,.545.551,0,2.195,0Q29.279,0,56.363,0H84.281c1.918,0,2.4.478,2.4,2.392q0,30.987,0,61.974c0,1.565-.278,1.952-1.65,2.327" transform="translate(0 0)"/>
    <path id="Path_105644" data-name="Path 105644" d="M95.6,30.494c1.324.331,1.688.763,1.688,2.08q0,32.116,0,64.232c0,1.512-.592,2.056-2.2,2.056l-44.562,0c-.451,0-.9.021-1.352.033l-22.7-.034c-2.125,0-2.524-.405-2.524-2.563V26.33c0-2.054.421-2.464,2.515-2.468.833,0,1.665-.019,2.5-.03.451.01.9.03,1.351.03H94.426c.277,0,.555,0,.832,0,1.213.014,1.921.541,2.019,1.5q.145,1.411-1.678,1.872l-41.22,0q-13.215-.016-26.431-.044c-.584,0-.685.231-.675.736.026,1.318.009,2.636.009,3.954,0,6.452.013,12.9-.018,19.355,0,.762.162,1.033.964.984,1.21-.073,2.427-.025,3.641-.017,1.495.009,2.067.582,2.078,2.079.015,2.08.023,4.161.034,6.242v5.022c-.011.381-.028.762-.031,1.143-.013,1.631-.555,2.173-2.192,2.179-1.18,0-2.363.058-3.538-.019-.817-.053-.96.245-.956.993.031,5.55.017,11.1.017,16.652,0,2.741-.006,5.481.008,8.222,0,.33-.2.82.461.817,1.962-.007,3.923,0,5.882,0,.028-.352-.194-.441-.325-.579a13.3,13.3,0,0,1,3.132-21.179,33.729,33.729,0,0,1,8.149-3.336c3.493-.922,7.021-1.355,10.335.414a2.955,2.955,0,0,0,3.712-.267,1.725,1.725,0,0,1,.268-.159.417.417,0,0,0,.213-.525,7.176,7.176,0,0,1,.455-4.366A9.161,9.161,0,0,1,62.9,62.2h-1q-11.23,0-22.461,0c-1.432,0-1.853-.33-2.188-1.676.352-1.315.771-1.647,2.112-1.656,1.083-.006,2.167,0,3.382,0-.485-.5-.821-.845-1.16-1.189A14.57,14.57,0,0,1,37.321,48.2,14.951,14.951,0,0,1,55.889,32.7a4.851,4.851,0,0,0,3.278-.258A15.294,15.294,0,0,1,74.2,38.011a3.193,3.193,0,0,0,3.136.975,10.815,10.815,0,0,1,6.292.878c1.208.551,1.645,1.4,1.225,2.352-.429.969-1.35,1.247-2.544.722a7.094,7.094,0,0,0-4.053-.681c-3.1.526-5.4-.592-7.425-2.913a11.641,11.641,0,1,0-9.245,19.487q8.892.158,17.788,0a8.181,8.181,0,0,0,7.868-8.308,7.507,7.507,0,0,0-.721-3.424,1.708,1.708,0,0,1,.756-2.456c.921-.42,1.811-.005,2.313,1.111a11.38,11.38,0,0,1,.709,7.513,12.651,12.651,0,0,1-3.092,5.583c2.025,0,3.856-.052,5.683.022.875.036,1.075-.215,1.072-1.077-.036-8.364-.023-16.727-.02-25.091,0-1.452.314-1.861,1.656-2.21M93.919,65.553c.012-.9.019-1.795.038-2.692.008-.38-.026-.67-.533-.668-2.811.013-5.623.006-8.434.006a8.983,8.983,0,0,1,3.347,3.33,9.638,9.638,0,0,1,.6,2.615c0,.393.293.515.535.7A6.638,6.638,0,1,1,81.462,79.42a.992.992,0,0,0-1.37-.067c-.428.292-.892.532-1.347.783a.623.623,0,0,0-.406.647,19.676,19.676,0,0,1-.192,3.1,18.678,18.678,0,0,1-6.19,9.036,1.592,1.592,0,0,1-2.4-.074,1.7,1.7,0,0,1,.191-2.416c.657-.666,1.37-1.281,1.988-1.981,2.051-2.32,3.644-4.871,3.2-8.135A2.186,2.186,0,0,1,76.035,77.8c1.173-.655,2.351-1.3,3.519-1.967,1.938-1.1,2.114-1.079,3.531.586a3.309,3.309,0,0,0,4.729.369,3.2,3.2,0,0,0,.327-4.6,2.526,2.526,0,0,0-1.38-1.032,1.787,1.787,0,0,1-1.22-2.122,3.3,3.3,0,1,0-6.53-1,2.868,2.868,0,0,0,.282,1.907c.535,1.237.291,2.112-.689,2.541-.949.415-1.8-.029-2.361-1.222a7.033,7.033,0,0,1,0-5.731,8.093,8.093,0,0,1,3.608-3.291H68.325a8.469,8.469,0,0,1,3.343,3.291,10.283,10.283,0,0,1,.6,2.6.686.686,0,0,0,.345.586,6.655,6.655,0,0,1,2.7,7.619c-1.729,4.308-6.437,5.947-10.119,3.391a1.851,1.851,0,0,0-2.36-.034A1.988,1.988,0,0,0,61.648,81.7a11.492,11.492,0,0,1-2.2,6.609,27.779,27.779,0,0,1-6.263,6.343c-.222.166-.685.257-.539.641.131.344.543.215.844.215q13.486,0,26.971,0a4.942,4.942,0,0,0,5-3.893,4.874,4.874,0,0,0-2.687-5.54,2.057,2.057,0,0,1-1.315-2.129c.951-1.4,1.533-1.543,3.034-.767a8.247,8.247,0,0,1,4.3,8.908,12.858,12.858,0,0,1-1.433,3.452c2,0,3.876-.03,5.749.016.686.016.875-.19.866-.869-.037-2.742-.012-5.485-.016-8.227q-.013-9.84-.032-19.679,0-.608,0-1.216M47.5,43.859l.16-.358a15.706,15.706,0,0,1,5.105-7.863c-4.1-.42-8.849,2.227-10.507,5.7a11.236,11.236,0,0,0,.354,12.284c2.177,3.4,6.558,5.579,9.993,5.069a15.285,15.285,0,0,1-4.331-5.931,16.188,16.188,0,0,1-.775-8.887ZM62.342,68.034a3.152,3.152,0,0,0,.368,2.1,1.63,1.63,0,0,1-.694,2.315A14.509,14.509,0,0,1,60.038,73.6c-.83.361-.917.75-.316,1.406.51.558.58,1.746,1.213,1.806.655.062,1.39-.659,2.081-1.054,1.789-1.023,2.035-.981,3.373.628a3.31,3.31,0,0,0,4.74.413,3.2,3.2,0,0,0,.342-4.612,2.52,2.52,0,0,0-1.38-1.033,1.786,1.786,0,0,1-1.22-2.122,3.3,3.3,0,1,0-6.529-1M48.836,73.019A24.165,24.165,0,0,0,36.457,77.8a9.929,9.929,0,0,0,1.006,16.279,9.255,9.255,0,0,0,9.062.671c4.48-2.092,8.351-5.063,10.759-9.473,3.129-5.73-1-12.334-8.448-12.253M30.589,60.493h.027v-2.5c0-2.544,0-2.521-2.574-2.454-.609.016-.752.213-.745.783.028,2.256.011,4.511.011,6.767,0,2.5,0,2.482,2.523,2.428.578-.012.787-.154.77-.757-.04-1.421-.013-2.845-.013-4.268" transform="translate(-17.28 -17.196)"/>
    <path id="Path_105645" data-name="Path 105645" d="M33.253,310.337c0,1.006.009,2.011,0,3.017-.014,1.218-.66,1.944-1.691,1.928a1.66,1.66,0,0,1-1.637-1.876q-.021-3.121,0-6.242a1.658,1.658,0,0,1,1.637-1.876c1.032-.016,1.678.71,1.691,1.928.012,1.04,0,2.08,0,3.121" transform="translate(-21.583 -220.286)"/>
    <path id="Path_105646" data-name="Path 105646" d="M57.193,310.339c0,1.04.015,2.081,0,3.121a1.656,1.656,0,0,1-1.691,1.822,1.633,1.633,0,0,1-1.632-1.774q-.032-3.224,0-6.449a1.63,1.63,0,0,1,1.636-1.77,1.668,1.668,0,0,1,1.691,1.826c0,.035,0,.069,0,.1q0,1.56,0,3.121" transform="translate(-38.856 -220.286)"/>
    <path id="Path_105647" data-name="Path 105647" d="M81.134,310.309c0,1.075.021,2.15-.006,3.225a1.662,1.662,0,1,1-3.32,0c-.024-2.184-.027-4.369,0-6.554a1.658,1.658,0,1,1,3.316,0c.032,1.109.007,2.219.008,3.329" transform="translate(-56.13 -220.284)"/>
    <path id="Path_105648" data-name="Path 105648" d="M101.759,310.192c0-1.04-.017-2.081.005-3.121a1.667,1.667,0,1,1,3.323.028q.029,3.172,0,6.345a1.673,1.673,0,1,1-3.326-.028c-.016-1.075,0-2.15,0-3.225" transform="translate(-73.421 -220.285)"/>
    <path id="Path_105649" data-name="Path 105649" d="M127.386,305.081a2.537,2.537,0,0,1,1.422.692,5.935,5.935,0,0,1,.231,2.258c0,1.77.014,3.541-.007,5.311a1.667,1.667,0,1,1-3.323-.023c-.019-2.048-.011-4.1,0-6.144,0-1.318.342-1.729,1.681-2.094" transform="translate(-90.699 -220.136)"/>
    <path id="Path_105650" data-name="Path 105650" d="M149.554,307.144c.188-1.3.845-1.953,1.86-1.853.977.1,1.492.809,1.507,2.078,0,.342.022.683.034,1.025-.012,1.662-.016,3.324-.038,4.985-.016,1.2-.688,1.93-1.718,1.9-.987-.03-1.6-.736-1.611-1.9-.02-2.077-.024-4.155-.034-6.233" transform="translate(-107.913 -220.281)"/>
    <path id="Path_105651" data-name="Path 105651" d="M173.535,309.031c.008-.687-.006-1.376.028-2.062a1.66,1.66,0,1,1,3.32.006c.042.961.03,1.924.043,2.886-.011,1.176-.016,2.352-.036,3.528-.02,1.2-.688,1.928-1.717,1.9-.988-.03-1.6-.734-1.613-1.9-.018-1.453-.017-2.906-.024-4.359" transform="translate(-125.217 -220.289)"/>
    <path id="Path_105652" data-name="Path 105652" d="M197.46,310.07c.009-1,0-2,.032-2.993a1.667,1.667,0,1,1,3.325,0c.03,1.066.026,2.133.036,3.2-.011,1.072-.008,2.144-.035,3.216a1.668,1.668,0,1,1-3.326,0c-.026-1.141-.022-2.282-.031-3.423" transform="translate(-142.481 -220.289)"/>
    <path id="Path_105653" data-name="Path 105653" d="M221.392,310.278c.011-1.067.006-2.134.036-3.2a1.667,1.667,0,1,1,3.325,0c.03,1.066.025,2.133.036,3.2-.011,1.072-.008,2.144-.035,3.216a1.668,1.668,0,1,1-3.326,0c-.027-1.072-.025-2.144-.035-3.216" transform="translate(-159.749 -220.289)"/>
    <path id="Path_105654" data-name="Path 105654" d="M245.338,310.278c.011-1.067.006-2.134.036-3.2a1.667,1.667,0,1,1,3.325,0c.03,1.066.025,2.133.036,3.2-.011,1.072-.008,2.144-.035,3.216a1.668,1.668,0,1,1-3.326,0c-.027-1.072-.025-2.144-.035-3.216" transform="translate(-177.028 -220.289)"/>
    <path id="Path_105655" data-name="Path 105655" d="M269.284,310.278c.011-1.067.006-2.134.036-3.2a1.667,1.667,0,1,1,3.325,0c.03,1.066.025,2.133.036,3.2-.011,1.072-.008,2.144-.035,3.216a1.668,1.668,0,1,1-3.326,0c-.027-1.072-.025-2.144-.035-3.216" transform="translate(-194.306 -220.289)"/>
    <path id="Path_105656" data-name="Path 105656" d="M174.465,39.3c-1.342.349-1.655.759-1.656,2.21,0,8.364-.015,16.728.02,25.091,0,.862-.2,1.113-1.072,1.077-1.826-.074-3.658-.022-5.683-.022a12.649,12.649,0,0,0,3.092-5.583,11.382,11.382,0,0,0-.709-7.513c-.5-1.116-1.393-1.531-2.314-1.111a1.709,1.709,0,0,0-.756,2.456,7.5,7.5,0,0,1,.721,3.424h-3.252c-.314-3.327-2.743-5.369-5.907-4.947a9.841,9.841,0,0,1-9.258-3.557,8.57,8.57,0,0,0-2.9-2.313c-3.606-1.643-6.8-.871-9.673,1.7a15.27,15.27,0,0,1-.624-3.741,11.467,11.467,0,0,1,15.2,1.677c2.026,2.321,4.33,3.439,7.425,2.913a7.094,7.094,0,0,1,4.053.681c1.194.525,2.115.247,2.544-.722.42-.948-.017-1.8-1.225-2.352a10.813,10.813,0,0,0-6.292-.878,3.192,3.192,0,0,1-3.136-.975,15.3,15.3,0,0,0-15.035-5.57c-1.225-1.543-2.751-2.8-4.086-4.232-.273-.294-.684-.5-.7-.978l41.22,0V39.3" transform="translate(-96.144 -26.003)" fill="#fefefe"/>
    <path id="Path_105657" data-name="Path 105657" d="M62.976,35.922c.018.48.429.684.7.978,1.335,1.436,2.861,2.689,4.086,4.232a4.851,4.851,0,0,1-3.278.259,14.951,14.951,0,0,0-18.568,15.5,14.569,14.569,0,0,0,4.267,9.472c.34.344.675.692,1.161,1.19-1.216,0-2.3-.005-3.383,0-1.341.008-1.76.341-2.112,1.656h-3.27c-.011-2.08-.018-4.161-.034-6.242-.011-1.5-.584-2.07-2.078-2.079-1.214-.008-2.432-.056-3.641.018-.8.048-.968-.222-.964-.984.031-6.452.018-12.9.018-19.355,0-1.318.018-2.636-.009-3.954-.01-.505.09-.738.675-.736q13.215.041,26.431.044" transform="translate(-25.877 -25.888)" fill="#c6edff"/>
    <path id="Path_105658" data-name="Path 105658" d="M71.467,200.486c7.449-.081,11.577,6.523,8.447,12.253-2.408,4.409-6.279,7.381-10.759,9.473a9.254,9.254,0,0,1-9.061-.671,9.93,9.93,0,0,1-1.006-16.279,24.163,24.163,0,0,1,12.379-4.776" transform="translate(-39.911 -144.663)" fill="#fabb04"/>
    <path id="Path_105659" data-name="Path 105659" d="M155.773,219.988a2.057,2.057,0,0,0,1.314,2.129,4.874,4.874,0,0,1,2.688,5.54,4.942,4.942,0,0,1-5,3.893q-13.485.015-26.97,0c-.3,0-.714.129-.844-.215-.146-.384.317-.476.539-.641a27.785,27.785,0,0,0,6.263-6.343,11.5,11.5,0,0,0,2.2-6.609,1.987,1.987,0,0,1,1.189-2.007,1.851,1.851,0,0,1,2.36.034c3.682,2.556,8.391.917,10.119-3.392l.719,1.466a2.185,2.185,0,0,0-1.105,2.517c.448,3.264-1.145,5.815-3.2,8.135-.618.7-1.331,1.315-1.988,1.981a1.7,1.7,0,0,0-.191,2.416,1.592,1.592,0,0,0,2.4.074,18.675,18.675,0,0,0,6.189-9.036l3.313.055" transform="translate(-91.593 -153.248)" fill="#fabb04"/>
    <path id="Path_105660" data-name="Path 105660" d="M68.165,173.59a7.176,7.176,0,0,0-.455,4.366.417.417,0,0,1-.213.525,1.744,1.744,0,0,0-.268.159,2.955,2.955,0,0,1-3.712.267c-3.315-1.769-6.843-1.336-10.336-.414a33.731,33.731,0,0,0-8.149,3.336A13.3,13.3,0,0,0,41.9,203.007c.131.138.353.228.325.579-1.959,0-3.92,0-5.882,0-.659,0-.46-.488-.461-.817-.013-2.741-.007-5.481-.007-8.222,0-5.551.014-11.1-.017-16.652,0-.748.139-1.046.956-.993,1.174.077,2.358.023,3.537.019,1.637-.006,2.179-.548,2.192-2.179,0-.381.021-.762.031-1.143l25.59-.011" transform="translate(-25.872 -125.257)" fill="#c6edff"/>
    <path id="Path_105661" data-name="Path 105661" d="M153.109,86.375h3.252a8.181,8.181,0,0,1-7.868,8.308q-8.892.142-17.788,0a11.621,11.621,0,0,1-5.959-21.163,15.256,15.256,0,0,0,.624,3.741.824.824,0,0,1-.088.183c-2.335,2.78-2.952,5.868-1.362,9.174,1.6,3.337,4.427,4.787,8.089,4.768,5.164-.026,10.329-.006,15.493-.007,3.323,0,5.213-1.689,5.606-5" transform="translate(-86.396 -53.046)" fill="#f3f0cd"/>
    <path id="Path_105662" data-name="Path 105662" d="M221.916,192l-3.313-.055a19.6,19.6,0,0,0,.193-3.1.622.622,0,0,1,.406-.647c.455-.251.919-.491,1.347-.783a.991.991,0,0,1,1.37.067,6.638,6.638,0,1,0,8.013-10.576c-.242-.185-.536-.306-.536-.7a9.629,9.629,0,0,0-.6-2.615l4.194.027c.393.487.723,1.045,1.393,1.213q.016,9.84.032,19.679c0,2.742-.021,5.485.016,8.227.009.68-.181.886-.866.869-1.873-.045-3.747-.016-5.749-.016a12.865,12.865,0,0,0,1.434-3.452,8.247,8.247,0,0,0-4.3-8.908c-1.5-.775-2.083-.628-3.034.768" transform="translate(-157.737 -125.256)" fill="#c6edff"/>
    <path id="Path_105663" data-name="Path 105663" d="M85.579,160.6l-25.59.011v-5.022h3.27c.334,1.346.756,1.676,2.188,1.676q11.23,0,22.461,0h1a9.159,9.159,0,0,0-3.329,3.332" transform="translate(-43.286 -112.271)" fill="#22afd6"/>
    <path id="Path_105664" data-name="Path 105664" d="M199.7,185.856l-.719-1.466a6.655,6.655,0,0,0-2.7-7.619.687.687,0,0,1-.345-.586,10.3,10.3,0,0,0-.6-2.6h4.575a7.036,7.036,0,0,0,0,5.731c.561,1.193,1.413,1.637,2.362,1.222.98-.429,1.224-1.3.689-2.541a2.872,2.872,0,0,1-.281-1.907c.252.234.521.451.752.7a10.071,10.071,0,0,0,8.377,3.448,3.2,3.2,0,0,1-.327,4.6,3.309,3.309,0,0,1-4.728-.369c-1.418-1.665-1.594-1.69-3.532-.587-1.167.665-2.345,1.312-3.519,1.967" transform="translate(-140.946 -125.256)" fill="#fff"/>
    <path id="Path_105665" data-name="Path 105665" d="M90.662,89.246a16.187,16.187,0,0,0,.775,8.887,15.286,15.286,0,0,0,4.331,5.931c-3.435.511-7.816-1.666-9.993-5.069a11.235,11.235,0,0,1-.354-12.284,13.472,13.472,0,0,0,3.444,7.969,11.749,11.749,0,0,1,1.8-5.434" transform="translate(-60.443 -62.568)" fill="#f1697e"/>
    <path id="Path_105666" data-name="Path 105666" d="M163.17,186.737a3.2,3.2,0,0,1-.342,4.612,3.309,3.309,0,0,1-4.74-.414c-1.339-1.609-1.585-1.651-3.373-.628-.691.4-1.426,1.116-2.081,1.054-.633-.06-.7-1.248-1.213-1.806-.6-.656-.514-1.045.316-1.406A14.508,14.508,0,0,0,153.716,187a1.629,1.629,0,0,0,.694-2.314,3.153,3.153,0,0,1-.368-2.1c.252.234.521.451.752.7a10.071,10.071,0,0,0,8.376,3.448" transform="translate(-108.98 -131.747)" fill="#fff"/>
    <path id="Path_105667" data-name="Path 105667" d="M94.952,74.355a11.749,11.749,0,0,0-1.8,5.434,13.472,13.472,0,0,1-3.444-7.969c1.658-3.475,6.4-6.122,10.506-5.7a15.7,15.7,0,0,0-5.105,7.863l-.161.358Z" transform="translate(-64.733 -47.678)" fill="#f1697e"/>
    <path id="Path_105668" data-name="Path 105668" d="M170.97,179.172a10.071,10.071,0,0,1-8.376-3.448c-.231-.253-.5-.47-.752-.7a3.3,3.3,0,1,1,6.528,1,1.787,1.787,0,0,0,1.22,2.122,2.52,2.52,0,0,1,1.38,1.032" transform="translate(-116.78 -124.182)" fill="#fff"/>
    <path id="Path_105669" data-name="Path 105669" d="M230.84,179.172a10.071,10.071,0,0,1-8.377-3.448c-.231-.253-.5-.471-.752-.7a3.3,3.3,0,1,1,6.53,1,1.787,1.787,0,0,0,1.22,2.121,2.524,2.524,0,0,1,1.38,1.033" transform="translate(-159.978 -124.182)" fill="#fff"/>
    <path id="Path_105670" data-name="Path 105670" d="M39.269,142.617c0,1.423-.027,2.846.013,4.268.017.6-.192.745-.77.757-2.523.054-2.523.073-2.523-2.428,0-2.256.016-4.511-.011-6.767-.007-.57.136-.767.745-.783,2.574-.067,2.574-.089,2.574,2.454v2.5h-.027" transform="translate(-25.96 -99.32)" fill="#0f1e5a"/>
    <path id="Path_105671" data-name="Path 105671" d="M191.246,165.061h-4.575a8.469,8.469,0,0,0-3.343-3.291h11.526a8.09,8.09,0,0,0-3.608,3.291" transform="translate(-132.283 -116.728)" fill="#22afd6"/>
    <path id="Path_105672" data-name="Path 105672" d="M250.721,164.972l-4.194-.027a8.985,8.985,0,0,0-3.346-3.33c2.811,0,5.623.007,8.434-.006.508,0,.542.288.533.668-.019.9-.026,1.794-.039,2.692l-1.388,0" transform="translate(-175.471 -116.612)" fill="#22afd6"/>
    <path id="Path_105673" data-name="Path 105673" d="M270.262,173.678l1.388,0q0,.608,0,1.216c-.67-.168-1-.726-1.393-1.213" transform="translate(-195.012 -125.317)" fill="#fefefe"/>
    <path id="Path_105674" data-name="Path 105674" d="M108.534,94.83l.16-.358-.16.358" transform="translate(-78.314 -68.168)" fill="#fabb04"/>
    <path id="Path_105675" data-name="Path 105675" d="M161.667,89.43c-.394,3.311-2.284,5-5.607,5-5.164,0-10.329-.019-15.493.007-3.663.019-6.485-1.431-8.089-4.768-1.59-3.307-.973-6.395,1.362-9.174a.825.825,0,0,0,.089-.183c2.873-2.57,6.066-3.342,9.673-1.7a8.567,8.567,0,0,1,2.9,2.313,9.841,9.841,0,0,0,9.258,3.557c3.163-.422,5.593,1.62,5.907,4.947m-3.419.011c-.167-1.317-.847-1.839-2.211-1.629a13.05,13.05,0,0,1-7.754-1.287,16.418,16.418,0,0,1-4.727-3.833,4.833,4.833,0,0,0-7.936,1.1,4.908,4.908,0,0,0,4.32,7.255c5.472.046,10.944.017,16.416.008,1.178,0,1.625-.409,1.891-1.616" transform="translate(-94.955 -56.1)"/>
    <path id="Path_105676" data-name="Path 105676" d="M146.054,92.455a4.833,4.833,0,0,1,7.936-1.1,16.408,16.408,0,0,0,4.727,3.833,13.051,13.051,0,0,0,7.754,1.288c1.365-.21,2.044.312,2.211,1.629-4.114,0-8.228.032-12.341-.018a10.393,10.393,0,0,1-5.572-1.638,4.293,4.293,0,0,0,.7-.433,1.651,1.651,0,1,0-2.646-1.766,4.52,4.52,0,0,0-.12.918,19.964,19.964,0,0,1-2.652-2.711" transform="translate(-105.388 -64.762)" fill="#f39692"/>
    <path id="Path_105677" data-name="Path 105677" d="M149.32,103.451a10.393,10.393,0,0,0,5.572,1.638c4.113.05,8.227.017,12.341.018-.266,1.207-.713,1.614-1.891,1.616-5.472.009-10.945.038-16.416-.008a4.908,4.908,0,0,1-4.319-7.255,19.978,19.978,0,0,0,2.652,2.71,1.778,1.778,0,0,0,2.063,1.281" transform="translate(-103.939 -71.767)" fill="#f39692"/>
    <path id="Path_105678" data-name="Path 105678" d="M157.64,105.146a1.778,1.778,0,0,1-2.063-1.281,4.519,4.519,0,0,1,.12-.918,1.65,1.65,0,1,1,2.646,1.766,4.305,4.305,0,0,1-.7.433" transform="translate(-112.259 -73.462)"/>
  </g>
</svg>
