<svg id="Group_123101" data-name="Group 123101" xmlns="http://www.w3.org/2000/svg" xmlns:xlink="http://www.w3.org/1999/xlink" width="99.903" height="99.89" viewBox="0 0 99.903 99.89">
  <defs>
    <clipPath id="clip-path">
      <rect id="Rectangle_40120" data-name="Rectangle 40120" width="99.903" height="99.89" fill="none"/>
    </clipPath>
  </defs>
  <g id="Group_123101-2" data-name="Group 123101" clip-path="url(#clip-path)">
    <path id="Path_185883" data-name="Path 185883" d="M98.237,49.913c1.316.354,1.66.773,1.66,2.1q0,19.715-.006,39.43a8.272,8.272,0,0,1-8.437,8.432q-25.544.028-51.088.006c-1.329,0-1.752-.348-2.1-1.663-.2-1.129.422-1.858,1.757-1.946,1.446-.1,2.9-.028,4.348-.033,1.937-.007,1.937,0,1.934-1.912,0-.38,0-.759.013-1.139-.047-4.886-.007-9.772-.021-14.658,0-1.609-.023-1.641-1.618-1.627-3.058.026-2.7-.378-2.728,2.706a19.625,19.625,0,0,1-.037,1.974,1.933,1.933,0,0,1-1.94,1.93c-2.215.1-4.436.1-6.651,0a1.938,1.938,0,0,1-1.975-2.006c-.088-1.071-.019-2.147-.036-3.221-.02-1.289-.027-1.294-1.343-1.408A17.238,17.238,0,0,1,28.1,76.9c-.779-.031-1.182.271-1.127,1.083.009.137,0,.277,0,.415q0,8.2,0,16.4c0,1.354.063,1.415,1.39,1.424,1.453.011,2.907,0,4.361.007a3.4,3.4,0,0,1,1.326.2A1.437,1.437,0,0,1,35,98.222c-.354,1.316-.775,1.662-2.1,1.663q-15.436.005-30.872,0C.6,99.883,0,99.284,0,97.86Q0,82.426,0,66.992c0-1.327.347-1.748,1.663-2.1,1.137-.2,1.866.419,1.96,1.758.1,1.417.03,2.84.036,4.26.008,2,0,2,1.975,2H44.2c.277,0,.555.005.832,0,1.122-.036,1.224-.14,1.253-1.277.014-.554-.023-1.109.028-1.661-.039-4.917-.005-9.834-.018-14.751,0-1.6-.028-1.638-1.621-1.624-3.045.026-2.694-.379-2.724,2.708a19.521,19.521,0,0,1-.037,1.973,1.933,1.933,0,0,1-1.938,1.93c-2.214.1-4.433.1-6.647,0a1.941,1.941,0,0,1-1.98-2c-.089-1.07-.02-2.146-.037-3.219-.02-1.3-.024-1.3-1.333-1.418-.656.041-1.314.036-1.97.015-.759-.024-1.05.323-1.044,1.059.013,1.382,0,2.765,0,4.147,0,2.972.006,5.945-.005,8.917a2.391,2.391,0,0,1-.706,1.982,1.9,1.9,0,0,1-2.222.256,2.3,2.3,0,0,1-1.04-2.231c-.008-4.088,0-8.177,0-12.265,0-1.863,0-1.874-1.91-1.862-2.686.018-2.42-.311-2.441,2.461-.006.727.039,1.457-.033,2.182a1.946,1.946,0,0,1-2,1.978c-2.181.082-4.366.087-6.547,0a1.959,1.959,0,0,1-2.023-2.071C7.956,57.075,8.019,56,8,54.925,7.98,53.72,7.956,53.7,6.7,53.577c-.69.03-1.381.026-2.071.01-.711-.016-.986.317-.985,1,0,1.588.008,3.176,0,4.764a2.7,2.7,0,0,1-.3,1.5c-.388.6-.837,1.134-1.681.77C.348,61.275,0,60.855,0,59.527Q0,44.132,0,28.735c0-1.509.572-2.095,2.055-2.1q11.288-.008,22.576,0c1.412,0,2,.607,2,2.044.006,6.727.017,13.454-.016,20.181,0,.81.107,1.134,1.035,1.1,2.312-.074,2.314-.02,2.314-2.3q0-19.349,0-38.7C29.971,3.484,33.445,0,38.92,0Q64.93,0,90.939,0c5.48,0,8.957,3.48,8.959,8.962q0,17.736,0,35.472c0,1.436-.314,1.844-1.661,2.21A1.5,1.5,0,0,1,96.349,45.4a6.809,6.809,0,0,1-.111-1.76q0-17.006,0-34.013c0-.485.014-.971-.018-1.455a4.753,4.753,0,0,0-4.511-4.49c-1.211-.067-2.427-.021-3.64-.021q-20.649,0-41.3,0c-1.56,0-3.12.015-4.68-.02-1.213.041-2.426-.01-3.639.019a4.723,4.723,0,0,0-4.81,4.832Q33.6,28.408,33.63,48.324c0,1.187.11,1.274,1.329,1.292,1.04.016,2.08-.019,3.118.018,1.792.046,3.587-.024,5.378.038.869.03,1.227-.3,1.367-1.14.173-1.038.533-1.979,0-3.093a1.673,1.673,0,0,1,1.574-2.333,5.534,5.534,0,0,0,3.444-1.025,8.33,8.33,0,0,1,8.393.876,1.472,1.472,0,0,0,2.034,0,15.317,15.317,0,0,1,1.64-1.1c1.179-.733,2.308-.6,2.946.343.664.978.352,2.088-.836,2.922-.624.438-1.252.875-1.905,1.265a1.092,1.092,0,0,0-.534,1.383A8.465,8.465,0,0,1,56.506,57.89a10.2,10.2,0,0,1-2.405.635,7.813,7.813,0,0,1-2.972-.293c-.6-.189-.948-.046-.9.654.005.068,0,.138,0,.207.038.791-.313,1.771.136,2.326.536.661,1.453-.057,2.21-.1a9.149,9.149,0,0,1,5.681,1.6c.347.229.634.7,1.176.486.9-.449,1.675-1.094,2.532-1.607a1.952,1.952,0,1,1,2.172,3.216c-.445.326-.913.619-1.353.956a1.827,1.827,0,0,0-1.023,2.472,6.123,6.123,0,0,1-.014,3.09c-.3,1.341-.254,1.389,1.165,1.39q9.307.005,18.615,0c.416,0,.832-.008,1.248.007,1.527.054,2.416.8,2.4,2.012s-.906,1.937-2.45,1.959c-2.184.032-4.368,0-6.552.013-2.88.019-2.571-.311-2.583,2.533q-.019,4.367,0,8.734c0,1.288.093,1.383,1.341,1.385q6.656.014,13.311,0c1.234,0,1.328-.1,1.331-1.4q.014-7.747,0-15.493,0-24.644,0-49.288c0-.52-.018-1.04.02-1.559a1.979,1.979,0,1,1,3.95-.02c.035.449.021.9.021,1.352q0,33.487,0,66.973c0,2.978-.451,3.426-3.44,3.427q-7.489,0-14.977,0c-1.463,0-1.935.681-1.5,2.1a.647.647,0,0,0,.569.516,6.813,6.813,0,0,0,1.038.047q7.8,0,15.6,0c3.538-.006,5.37-1.861,5.381-5.41.005-1.559-.026-3.119.013-4.679-.042-11.077-.009-22.153-.018-33.229a6.649,6.649,0,0,1,.115-1.756,1.5,1.5,0,0,1,1.889-1.237" transform="translate(0 0)" fill="#323232"/>
    <path id="Path_185884" data-name="Path 185884" d="M5.989,199.834c1.315-.352,1.657-.772,1.663-2.1.008-1.835.023-3.67-.01-5.5-.011-.58.147-.8.75-.763.862.055,1.729.034,2.594.046.551.972.256,2.031.266,3.045a13.12,13.12,0,0,0,1.559,6.381,12.864,12.864,0,0,0,11.1,6.892c1.514.093,3.037-.075,4.551.111,1.649.439,2.5-.215,2.5-1.95.006-4.522.022-9.044-.017-13.566-.007-.779.2-1.037.973-.962s1.585.037,2.378.049c.554.937.259,1.964.265,2.943a13.216,13.216,0,0,0,1.564,6.488,12.892,12.892,0,0,0,11.114,6.889c.827.052,1.661,0,2.491.011a1.566,1.566,0,0,1,1.178.28c.032,1.068.448,2.425-.135,3.119-.555.662-1.953.2-2.977.2-12.994.014-25.989,0-38.983.032-.95,0-1.228-.236-1.183-1.186.081-1.694.029-3.394.021-5.092-.006-1.33-.348-1.751-1.663-2.1v-3.267" transform="translate(-4.323 -138.206)" fill="#feb600"/>
    <path id="Path_185885" data-name="Path 185885" d="M207.387,58.556c-1.345.354-1.666.767-1.667,2.193q0,16.4,0,32.792c0,.414-.024.828-.037,1.243-1.291-.243-1.6-1.3-1.874-2.337a7.71,7.71,0,0,1-.084-1.97q0-35.991,0-71.982a16.511,16.511,0,0,0-.032-1.664A3.021,3.021,0,0,0,200.854,14a15.348,15.348,0,0,0-1.559-.032h-44.11a5.75,5.75,0,0,1-2.36-.269c-.764-.334-1.534-.693-1.621-1.689.346-.013.691-.038,1.037-.038q23.92,0,47.841,0c3.676,0,5.637,1.967,5.637,5.652q0,17.731,0,35.461c0,1.433.318,1.842,1.667,2.2v3.267" transform="translate(-109.15 -8.644)" fill="#e8f0f1"/>
    <path id="Path_185886" data-name="Path 185886" d="M115.7,291.955c.033,1.067.447,2.424-.133,3.118-.554.663-1.95.171-2.975.206s-2.078,0-3.117.009c-1.329.01-1.751.349-2.1,1.663H104.11c-.35-1.316-.769-1.657-2.1-1.663-1.835-.008-3.671-.023-5.505.01-.579.011-.768-.148-.766-.749q.031-9.244,0-18.488c0-.578.145-.8.75-.763.862.055,1.729.034,2.594.046.553.937.259,1.964.265,2.943a13.211,13.211,0,0,0,1.564,6.488,12.891,12.891,0,0,0,11.114,6.89c.827.052,1.661,0,2.491.011a1.567,1.567,0,0,1,1.178.28" transform="translate(-69.114 -198.729)" fill="#feb600"/>
    <path id="Path_185887" data-name="Path 185887" d="M182.828,91.987a11.83,11.83,0,0,0,3.23-1.088,8.246,8.246,0,0,0,3.851-9.618c-.178-.6-.1-.921.448-1.241.836-.485,1.63-1.048,2.419-1.609a1.662,1.662,0,1,0-1.8-2.788c-.09.052-.176.111-.262.168a10.521,10.521,0,0,1-2.609,1.664c-1.007.286-1.6-.943-2.5-1.343a9,9,0,0,0-6.961-.172c-.639-1.425-.3-2.9-.216-4.358.374-.68.912-.29,1.372-.174a8.072,8.072,0,0,0,10.013-9.454c-.343-1.625-.334-1.627,1.02-2.536.518-.348,1.047-.68,1.554-1.044.9-.645,1.15-1.407.709-2.109-.461-.733-1.293-.808-2.288-.185-.676.423-1.34.867-1.993,1.324a1.371,1.371,0,0,1-1.8-.021,8.125,8.125,0,0,0-7.472-1.416c-.35.1-.74.283-1.048-.119a8.452,8.452,0,0,1,.351-4.741,1.374,1.374,0,0,1,.934-1.009c1.687-.138,3.378-.022,5.067-.065a1.61,1.61,0,0,0,1.645-.839,1.333,1.333,0,0,0-.11-1.285c-.166-.288-.528-.471-.475-.878a.919.919,0,0,1,.735-.32c1.309-.06,2.618-.055,3.926,0a.861.861,0,0,1,.8.382c-.036.332-.3.533-.455.8a1.3,1.3,0,0,0,.889,2.063,5.073,5.073,0,0,0,1.136.07q8.187,0,16.374,0a2.592,2.592,0,0,0,1.867-.437c.5-.438.248-1.132.594-1.614.913-.246,1.446.379,1.928.938a7.38,7.38,0,0,1,1.882,4.944q0,3.9,0,7.8,0,16.487.013,32.973A8.086,8.086,0,0,1,214,99.7a3.233,3.233,0,0,1-2.25,1.525,5.4,5.4,0,0,0-2.995-.623c-3.6.029-7.2.018-10.805.005a4.631,4.631,0,0,0-2.211.452c-1.411.192-3.683-.749-4.249-1.757.482-.335.985-.644,1.443-1.011a1.624,1.624,0,0,0,.355-2.3,1.6,1.6,0,0,0-2.215-.421c-.978.582-1.92,1.224-2.877,1.84-.906-.057-1.393-.821-2.026-1.29a16.538,16.538,0,0,1-3.228-3.565c-.119-.16-.242-.342-.119-.563" transform="translate(-128.687 -33.701)" fill="#fefefe"/>
    <path id="Path_185888" data-name="Path 185888" d="M181.5,92.485a6.4,6.4,0,0,0,3.5-6.036q.033-20.622.008-41.245a6.666,6.666,0,0,0-2.486-5.355,1.252,1.252,0,0,0-1.017-.433,4.8,4.8,0,0,0-3.047-.725c-5.317.023-10.635.01-15.952.009a2.225,2.225,0,0,1-1.4-.224,29.964,29.964,0,0,0-5.463,0c-.682.392-1.421.143-2.132.175-1,.045-2.006,0-3.009.016a1.576,1.576,0,0,0-1.649.835,1.373,1.373,0,0,0,.53,1.734c.13.107.263.23.188.434-1.088.77-1.03,1.993-1.163,3.105a21.326,21.326,0,0,0-.014,2.562,2.932,2.932,0,0,1-2.81,1.4,1.473,1.473,0,0,0-1.6.45,1.372,1.372,0,0,0,.008,1.738,1.627,1.627,0,0,1,.136,1.477c-1.1,4.17,0,7.109,3.56,9.609.279.2.61.347.705.724q0,2.29,0,4.58c-.6.4-1.229.768-1.806,1.2-.32.24-.55.135-.843,0a1.533,1.533,0,0,0-2.024.524,1.473,1.473,0,0,0,.07,2,.93.93,0,0,1,.149,1.1,10.106,10.106,0,0,0-.5,2.111c-.055.565-.194.771-.788.757-1.975-.045-3.95-.036-5.926-.047a4.285,4.285,0,0,1-.051-3.366,2.681,2.681,0,0,0,1.4-2.754q-.045-15.912-.017-31.823c0-2.241.074-2.312,2.352-2.312q22.934,0,45.869,0c2.328,0,2.394.068,2.4,2.379,0,.589.041,1.182-.008,1.767a2.528,2.528,0,0,0,1.375,2.763A4.214,4.214,0,0,1,190.007,45c-1.379.361-1.666.752-1.666,2.306q0,33.132,0,66.264c0,1.381,0,1.381-1.363,1.381-4.751,0-9.5-.016-14.253.016-.771.005-1.068-.132-1.056-1,.053-3.814.044-7.629.005-11.442-.008-.747.22-.92.934-.909,2.7.041,5.41.017,8.115.016,1.821,0,2.6-.486,2.616-1.639.02-1.184-.78-1.691-2.667-1.691H159.347a8.353,8.353,0,0,0,.2-6.089c-.133-.365.062-.505.3-.661l1.389-.9a9.962,9.962,0,0,0,4.043,1.692c.357,2.291.4,2.324,2.86,2.325q5.253,0,10.506,0c2.307,0,2.307,0,2.853-2.185" transform="translate(-98.432 -25.056)" fill="#c6edff"/>
    <path id="Path_185889" data-name="Path 185889" d="M124.69,55.294q0,1.632,0,3.265c-1.454.011-2.909,0-4.363.044-.508.014-.693-.165-.633-.654a4.307,4.307,0,0,0,0-.519q0-19.9,0-39.8c0-3.673,1.971-5.649,5.637-5.647,1.038,0,2.077.024,3.115.037a3.838,3.838,0,0,0,3.478,1.643q22.775-.043,45.55-.017c2.565,0,3.823,1.26,3.823,3.83q0,36.914-.018,73.828a3.99,3.99,0,0,0,1.645,3.486c.01,1.905.078,3.812.015,5.715a4.834,4.834,0,0,1-4.592,4.665c-6.03.079-12.062.029-18.093.043-.432,0-.581-.112-.614-.576-.2-2.761-.213-2.76,2.48-2.76q7.643,0,15.286,0c1.695,0,2.226-.536,2.227-2.242q0-34.416,0-68.831c0-1.437-.316-1.846-1.662-2.207V25.328c1.244-.794,1.419-1.987,1.349-3.341-.077-1.487.01-2.981-.029-4.471-.036-1.366-.477-1.8-1.817-1.866-.346-.018-.693-.01-1.04-.01H126.1c-2.507,0-2.738.229-2.738,2.723,0,11.2.015,22.394-.02,33.59,0,1.35.107,2.546,1.352,3.341" transform="translate(-86.397 -8.649)" fill="#cfd7d9"/>
    <path id="Path_185890" data-name="Path 185890" d="M41.385,207.961a17.209,17.209,0,0,1-5.44.128,13.307,13.307,0,0,1-12.03-12.72c-.052-1.277-.007-2.558-.007-3.837a1.863,1.863,0,0,1,.206-.028c1.457-.042,1.457-.042,1.458,1.368,0,1.142-.017,2.285.005,3.426a1.672,1.672,0,0,0,1.873,1.853q3.115.029,6.23,0a1.674,1.674,0,0,0,1.875-1.852c.023-1.349.031-2.7-.006-4.049-.016-.577.139-.79.746-.766,1.141.046,2.286.056,3.425,0,.7-.036.854.214.85.874-.027,4.568,0,9.137-.024,13.705a2.155,2.155,0,0,0,.839,1.9" transform="translate(-17.245 -138.225)" fill="#fecf00"/>
    <path id="Path_185891" data-name="Path 185891" d="M190.675,275.345a1.847,1.847,0,0,1,.206-.028c1.457-.042,1.457-.042,1.457,1.369,0,1.142-.016,2.285.005,3.427a1.673,1.673,0,0,0,1.875,1.851q3.115.029,6.231,0a1.673,1.673,0,0,0,1.873-1.855c.023-1.349.032-2.7-.007-4.049-.017-.583.15-.784.75-.762,1.175.044,2.354.031,3.53,0,.5-.011.742.071.739.664-.033,5.33-.035,10.66-.047,15.99a.874.874,0,0,1-.553.255c-5.6.456-10.433-.99-13.862-5.738A12.632,12.632,0,0,1,190.4,278.8c.013-1.151-.3-2.345.273-3.457" transform="translate(-137.393 -198.731)" fill="#fecf00"/>
    <path id="Path_185892" data-name="Path 185892" d="M124.381,291.956a28.691,28.691,0,0,1-6.692-.412,13.416,13.416,0,0,1-9.745-10.826,52.462,52.462,0,0,1-.175-5.373,1.845,1.845,0,0,1,.206-.029c1.457-.042,1.457-.042,1.457,1.369,0,1.142-.017,2.285.005,3.427a1.673,1.673,0,0,0,1.875,1.852q3.115.029,6.231,0a1.674,1.674,0,0,0,1.873-1.855c.022-1.35.032-2.7-.007-4.049-.017-.583.15-.784.75-.762,1.175.044,2.354.031,3.53,0,.5-.011.742.071.739.664-.033,5.33-.035,10.66-.047,15.99" transform="translate(-77.796 -198.731)" fill="#fecf00"/>
    <path id="Path_185893" data-name="Path 185893" d="M23.053,107.743a1.854,1.854,0,0,1,.206-.028c1.457-.042,1.457-.042,1.457,1.369,0,1.142-.016,2.285.005,3.427a1.673,1.673,0,0,0,1.875,1.851q3.115.029,6.231,0a1.673,1.673,0,0,0,1.873-1.855c.023-1.35.032-2.7-.007-4.049-.017-.583.15-.784.75-.762,1.175.045,2.354.031,3.53,0,.5-.011.742.071.739.664-.033,5.33-.035,10.66-.047,15.99a.874.874,0,0,1-.553.255c-5.6.456-10.433-.99-13.862-5.738a12.632,12.632,0,0,1-2.469-7.672c.013-1.151-.3-2.345.273-3.457" transform="translate(-16.391 -77.742)" fill="#fecf00"/>
    <path id="Path_185894" data-name="Path 185894" d="M23.053,275.345a1.846,1.846,0,0,1,.206-.028c1.457-.042,1.457-.042,1.457,1.369,0,1.142-.016,2.285.005,3.427a1.673,1.673,0,0,0,1.875,1.851q3.115.029,6.231,0a1.673,1.673,0,0,0,1.873-1.855c.023-1.349.032-2.7-.007-4.049-.017-.583.15-.784.75-.762,1.175.044,2.354.031,3.53,0,.5-.011.742.071.739.664-.033,5.33-.035,10.66-.047,15.99a.874.874,0,0,1-.553.255c-5.6.456-10.433-.99-13.862-5.738a12.633,12.633,0,0,1-2.469-7.672c.013-1.151-.3-2.345.273-3.457" transform="translate(-16.391 -198.731)" fill="#fecf00"/>
    <path id="Path_185895" data-name="Path 185895" d="M124.381,208.155a28.691,28.691,0,0,1-6.692-.412,13.416,13.416,0,0,1-9.745-10.826,52.468,52.468,0,0,1-.175-5.373,1.722,1.722,0,0,1,.206-.029c1.457-.043,1.457-.042,1.457,1.369,0,1.142-.017,2.285.005,3.427a1.673,1.673,0,0,0,1.875,1.851q3.115.029,6.231,0a1.674,1.674,0,0,0,1.873-1.855c.022-1.35.032-2.7-.007-4.049-.017-.583.15-.784.75-.762,1.175.044,2.354.031,3.53,0,.5-.011.742.072.739.664-.033,5.33-.035,10.66-.047,15.99" transform="translate(-77.796 -138.237)" fill="#fecf00"/>
    <path id="Path_185896" data-name="Path 185896" d="M182.881,275.312c.018,2.614-.214,5.249.768,7.773a13.127,13.127,0,0,0,10.472,8.653,39.352,39.352,0,0,0,5.372.185c.034,1.067.446,2.422-.132,3.117-.553.664-1.95.2-2.973.2-5.3.021-10.592-.008-15.888.029-.778.005-.976-.194-.971-.971q.051-9.033,0-18.066c0-.766.171-1.053.966-.973s1.589.038,2.385.049" transform="translate(-129.599 -198.697)" fill="#feb600"/>
    <path id="Path_185897" data-name="Path 185897" d="M15.259,107.71c.018,2.614-.214,5.249.768,7.773A13.127,13.127,0,0,0,26.5,124.136a39.348,39.348,0,0,0,5.372.185c.034,1.067.446,2.422-.132,3.117-.553.664-1.95.2-2.973.2-5.3.021-10.592-.008-15.888.029-.778.005-.976-.194-.971-.971q.051-9.033,0-18.066c0-.766.171-1.053.966-.973s1.589.038,2.385.049" transform="translate(-8.596 -77.709)" fill="#feb600"/>
    <path id="Path_185898" data-name="Path 185898" d="M15.259,275.312c.018,2.614-.214,5.249.768,7.773A13.127,13.127,0,0,0,26.5,291.738a39.352,39.352,0,0,0,5.372.185c.034,1.067.446,2.422-.132,3.117-.553.664-1.95.2-2.973.2-5.3.021-10.592-.008-15.888.029-.778.005-.976-.194-.971-.971q.051-9.033,0-18.066c0-.767.171-1.053.966-.973s1.589.038,2.385.049" transform="translate(-8.596 -198.697)" fill="#feb600"/>
    <path id="Path_185899" data-name="Path 185899" d="M181.775,177.123c.507.357,1.026.7,1.517,1.075a1.772,1.772,0,0,0,2.29.058c1-.683,2.02-1.329,3.011-2.02.5-.349.763-.38.858.338a4.944,4.944,0,0,1-6.226,5.181,6.614,6.614,0,0,1-1.45-4.631" transform="translate(-131.188 -127.048)" fill="#22afd6"/>
    <path id="Path_185900" data-name="Path 185900" d="M183.773,208.044a21.008,21.008,0,0,0,5.373,5.418c-.288.374-.523.152-.776-.055a8.167,8.167,0,0,0-8.163-1.578c-.413.135-.64.192-.63-.368q.032-1.765,0-3.531c-.009-.536.191-.543.621-.383a9.9,9.9,0,0,0,3.576.5" transform="translate(-129.632 -149.758)" fill="#c6edff"/>
    <path id="Path_185901" data-name="Path 185901" d="M179.562,248.427c.837.627,1.5,1.11,2.151,1.615a1.763,1.763,0,0,0,2.288.067c1-.682,2.026-1.321,3.011-2.021.644-.458.825-.22.866.445a5.055,5.055,0,0,1-.969,3.209,1.025,1.025,0,0,1-.978.433c-1.866-.013-3.733-.023-5.6,0-.564.009-.813-.129-.783-.744.046-.929.012-1.861.012-3.008" transform="translate(-129.612 -178.919)" fill="#22afd6"/>
    <path id="Path_185902" data-name="Path 185902" d="M43.625,191.548c1.613,0,1.613,0,1.613,1.639,0,1.691,0,1.691-1.665,1.691s-1.665,0-1.665-1.691c0-1.639,0-1.639,1.717-1.639" transform="translate(-30.253 -138.275)" fill="#fee900"/>
    <path id="Path_185903" data-name="Path 185903" d="M43.522,278.678c-1.614,0-1.614,0-1.614-1.638,0-1.692,0-1.692,1.664-1.692s1.666,0,1.666,1.69c0,1.64,0,1.64-1.716,1.64" transform="translate(-30.253 -198.768)" fill="#fee900"/>
    <path id="Path_185904" data-name="Path 185904" d="M127.341,278.678c-1.622,0-1.622,0-1.622-1.63,0-1.7,0-1.7,1.656-1.7,1.674,0,1.674,0,1.674,1.682,0,1.648,0,1.648-1.708,1.648" transform="translate(-90.754 -198.768)" fill="#fee900"/>
    <path id="Path_185905" data-name="Path 185905" d="M45.239,109.448c0,1.629,0,1.629-1.623,1.629-1.707,0-1.707,0-1.707-1.753,0-1.576,0-1.576,1.571-1.576h.1c1.655,0,1.655,0,1.655,1.7" transform="translate(-30.253 -77.78)" fill="#fee900"/>
    <path id="Path_185906" data-name="Path 185906" d="M212.861,277.058c0,1.62,0,1.62-1.631,1.62-1.7,0-1.7,0-1.7-1.657,0-1.672,0-1.672,1.683-1.672,1.646,0,1.646,0,1.646,1.709" transform="translate(-151.256 -198.769)" fill="#fee900"/>
    <path id="Path_185907" data-name="Path 185907" d="M125.72,193.165c0-1.617,0-1.617,1.635-1.617,1.695,0,1.695,0,1.695,1.661s0,1.669-1.687,1.669c-1.643,0-1.643,0-1.643-1.713" transform="translate(-90.755 -138.275)" fill="#fee900"/>
    <path id="Path_185908" data-name="Path 185908" d="M182.085,162.558a4.425,4.425,0,0,1,5.556.117c-.89.591-1.749,1.152-2.6,1.73-.268.183-.447.049-.645-.1-.768-.581-1.537-1.16-2.314-1.747" transform="translate(-131.444 -116.68)" fill="#22afd6"/>
    <path id="Path_185909" data-name="Path 185909" d="M187.7,234.564c-.871.579-1.725,1.136-2.568,1.71-.313.214-.51.016-.728-.147q-1.108-.836-2.218-1.678c1.177-1.251,4.114-1.232,5.513.115" transform="translate(-131.516 -168.582)" fill="#22afd6"/>
    <path id="Path_185910" data-name="Path 185910" d="M175.88,176.079a23.427,23.427,0,0,0,1.45,4.631c-1.852-.49-2.095-.77-2.079-2.659a1.841,1.841,0,0,0-1.214-2.038c-.931-.324-.185-.89-.285-1.464a9.3,9.3,0,0,1,2.128,1.529" transform="translate(-125.292 -126.004)" fill="#1c94af"/>
    <path id="Path_185911" data-name="Path 185911" d="M166.492,93.867a8.42,8.42,0,0,1-4.983-8.065,6.363,6.363,0,0,1,.249-1.633c.241-.837.655-1.591-.121-2.443-.409-.449-.156-1.136.247-1.623a1.3,1.3,0,0,1,1.557-.54c.847.481,1.329.045,1.91-.393.355-.267.758-.469,1.14-.7a8.388,8.388,0,0,1,8.836,1.473c.312.268.528.194.815-.006.71-.494,1.436-.967,2.157-1.445,1.326-.881,2.283-.844,2.894.109.593.924.265,1.784-1,2.636a.9.9,0,0,1-.084.061c-1.72.86-2.493,1.8-2.118,4.133.924,5.742-4.906,10.383-10.507,8.726l-.989-.29" transform="translate(-116.533 -56.189)" fill="#323232"/>
    <path id="Path_185912" data-name="Path 185912" d="M238.334,123.038q-4.362,0-8.724,0c-1.327,0-2.075-.595-2.095-1.633s.737-1.691,2.033-1.692q8.828-.008,17.656-.006a1.753,1.753,0,0,1,1.783.988,1.541,1.541,0,0,1-.177,1.663,1.841,1.841,0,0,1-1.648.687c-2.943-.012-5.885-.005-8.828-.005" transform="translate(-164.238 -86.413)" fill="#323232"/>
    <path id="Path_185913" data-name="Path 185913" d="M238.435,191.545q4.31,0,8.62,0c1.324,0,2.074.6,2.09,1.638s-.743,1.687-2.041,1.688q-8.776.008-17.552,0c-1.3,0-2.055-.645-2.037-1.691s.763-1.632,2.092-1.635q4.414-.008,8.828,0" transform="translate(-164.238 -138.271)" fill="#323232"/>
    <path id="Path_185914" data-name="Path 185914" d="M222.574,47.988a6.94,6.94,0,0,1,.821-.1q8.929-.008,17.858-.005a1.6,1.6,0,0,1,1.725,1.042c.373,1.286-.246,2.268-1.547,2.274-6.062.026-12.124.014-18.187.009a1.591,1.591,0,0,1-1.677-1.277,1.63,1.63,0,0,1,1.007-1.947" transform="translate(-159.904 -34.569)" fill="#323232"/>
    <path id="Path_185915" data-name="Path 185915" d="M243.491,99.094c-2.665,0-5.331.007-8,0-1.236,0-1.972-.622-1.993-1.63s.718-1.691,1.927-1.693c5.365-.009,10.73,0,16.1-.008a1.754,1.754,0,0,1,1.784.986,1.54,1.54,0,0,1-.174,1.662,1.837,1.837,0,0,1-1.647.689c-2.665-.012-5.331-.005-8-.005" transform="translate(-168.56 -69.128)" fill="#323232"/>
    <path id="Path_185916" data-name="Path 185916" d="M248.629,167.6c2.388,0,4.776-.007,7.164,0,1.238.005,1.974.618,2,1.626.023,1.042-.742,1.7-2.03,1.7q-7.112.01-14.224,0c-1.3,0-2.058-.634-2.046-1.681s.758-1.641,2.08-1.645c2.353-.006,4.707,0,7.06,0" transform="translate(-172.882 -120.985)" fill="#323232"/>
    <path id="Path_185917" data-name="Path 185917" d="M256.06,240.245c.422,1.619-.219,2.485-1.879,2.489q-6.242.013-12.484,0c-1.779,0-2.432-.941-1.856-2.629a2.353,2.353,0,0,1,1.866-.708q6.229.032,12.458,0a2.147,2.147,0,0,1,1.9.848" transform="translate(-172.989 -172.816)" fill="#323232"/>
    <path id="Path_185918" data-name="Path 185918" d="M180.78,51.155a1.685,1.685,0,0,1-1.114-2.063,1.74,1.74,0,0,1,2.017-1.235c1.722.07,3.45-.115,5.169.106A1.621,1.621,0,0,1,187.826,50a1.685,1.685,0,0,1-1.852,1.188c-1.731-.024-3.463-.027-5.194-.039" transform="translate(-129.645 -34.541)" fill="#323232"/>
    <path id="Path_185919" data-name="Path 185919" d="M133.368,63.93c-1.316-.354-1.661-.773-1.661-2.1q0-17.882,0-35.765c0-1.557.567-2.117,2.138-2.117q26.151,0,52.3,0c1.621,0,2.162.553,2.166,2.2q.007,2.859,0,5.718c-.006,1.329-.346,1.749-1.661,2.1-1.317-.348-1.657-.769-1.665-2.1-.008-1.282-.03-2.566.011-3.847.019-.6-.179-.83-.765-.747a2.957,2.957,0,0,1-.416,0q-23.816,0-47.631-.024c-.976,0-1.174.28-1.171,1.2q.048,16.638.019,33.275c0,1.437-.318,1.847-1.665,2.2" transform="translate(-95.074 -17.285)" fill="#323232"/>
    <path id="Path_185920" data-name="Path 185920" d="M178.891,104.97c.561.4,1.127.8,1.682,1.209,1.222.905,1.578.917,2.879.058.866-.572,1.751-1.118,2.586-1.731.664-.488.932-.42.978.446a5.116,5.116,0,0,1-2.9,4.773,4.805,4.805,0,0,1-5.458-.933,6.621,6.621,0,0,1-.245-3.144c.016-.29.054-.641.479-.677" transform="translate(-128.742 -75.222)" fill="#22afd6"/>
    <path id="Path_185921" data-name="Path 185921" d="M184.884,89.753a6.628,6.628,0,0,1,.759.041c.786.147,1.842.254,2.086.921.179.49-.986.755-1.463,1.224a1.437,1.437,0,0,1-2.348-.086,3.794,3.794,0,0,0-.326-.256c-.382-.328-1.168-.584-1.08-.97.131-.571.931-.585,1.486-.737a6.519,6.519,0,0,1,.886-.137" transform="translate(-131.747 -64.791)" fill="#22afd6"/>
    <path id="Path_185922" data-name="Path 185922" d="M175.535,103.728c-.468,1.25-.043,2.554-.234,3.821a4.612,4.612,0,0,1-1.364-5.067l1.6,1.246" transform="translate(-125.386 -73.98)" fill="#1c94af"/>
  </g>
</svg>
