<svg xmlns="http://www.w3.org/2000/svg" xmlns:xlink="http://www.w3.org/1999/xlink" width="724.267" height="751.63" viewBox="0 0 724.267 751.63">
  <defs>
    <clipPath id="clip-path">
      <rect id="Rectangle_38589" data-name="Rectangle 38589" width="86.952" height="153.347" fill="none"/>
    </clipPath>
    <clipPath id="clip-path-3">
      <rect id="Rectangle_38564" data-name="Rectangle 38564" width="86.952" height="137.812" fill="none"/>
    </clipPath>
    <clipPath id="clip-path-4">
      <rect id="Rectangle_38578" data-name="Rectangle 38578" width="60.703" height="90.234" fill="none"/>
    </clipPath>
    <clipPath id="clip-path-5">
      <rect id="Rectangle_38565" data-name="Rectangle 38565" width="13.125" height="13.125" fill="none"/>
    </clipPath>
    <clipPath id="clip-path-9">
      <rect id="Rectangle_38569" data-name="Rectangle 38569" width="4.922" height="4.922" fill="none"/>
    </clipPath>
    <clipPath id="clip-path-14">
      <rect id="Rectangle_38574" data-name="Rectangle 38574" width="9.844" height="9.844" fill="none"/>
    </clipPath>
    <clipPath id="clip-path-19">
      <rect id="Rectangle_38581" data-name="Rectangle 38581" width="34.452" height="137.812" fill="none"/>
    </clipPath>
    <clipPath id="clip-path-20">
      <rect id="Rectangle_38582" data-name="Rectangle 38582" width="26.25" height="137.812" fill="none"/>
    </clipPath>
    <clipPath id="clip-path-21">
      <rect id="Rectangle_38584" data-name="Rectangle 38584" width="52.5" height="11.485" fill="none"/>
    </clipPath>
    <clipPath id="clip-path-22">
      <rect id="Rectangle_38585" data-name="Rectangle 38585" width="73.828" height="10.78" fill="none"/>
    </clipPath>
    <clipPath id="clip-path-23">
      <rect id="Rectangle_38586" data-name="Rectangle 38586" width="23.905" height="19.587" fill="none"/>
    </clipPath>
    <clipPath id="clip-path-24">
      <rect id="Rectangle_38587" data-name="Rectangle 38587" width="15.702" height="19.587" fill="none"/>
    </clipPath>
    <clipPath id="clip-path-25">
      <rect id="Rectangle_38610" data-name="Rectangle 38610" width="70.05" height="87.574" fill="#0f1e5a"/>
    </clipPath>
    <clipPath id="clip-path-26">
      <rect id="Rectangle_38617" data-name="Rectangle 38617" width="105" height="88.539" fill="#0f1e5a"/>
    </clipPath>
    <clipPath id="clip-path-27">
      <rect id="Rectangle_38618" data-name="Rectangle 38618" width="79.23" height="78.677" fill="#0f1e5a"/>
    </clipPath>
    <clipPath id="clip-path-28">
      <rect id="Rectangle_38619" data-name="Rectangle 38619" width="70" height="80.769" fill="#0f1e5a"/>
    </clipPath>
    <clipPath id="clip-path-29">
      <rect id="Rectangle_38620" data-name="Rectangle 38620" width="70" height="86.185" fill="#0f1e5a"/>
    </clipPath>
  </defs>
  <g id="Group_128747" data-name="Group 128747" transform="translate(-459.21 -4551.515)">
    <g id="Group_120473" data-name="Group 120473" transform="translate(14.023 3963.076)">
      <g id="Group_120472" data-name="Group 120472" transform="translate(68.057 2251.544) rotate(-109)">
        <g id="Group_120471" data-name="Group 120471" transform="translate(648 833)">
          <g id="Group_120480" data-name="Group 120480">
            <path id="Path_181530" data-name="Path 181530" d="M264,562.5a2.515,2.515,0,1,1,.448.043A2.46,2.46,0,0,1,264,562.5m119.622-4a2.547,2.547,0,1,1,3.019,1.965,3.551,3.551,0,0,1-.535.058,2.532,2.532,0,0,1-2.485-2.022m-139.747-.2a2.546,2.546,0,1,1,.607.072,2.9,2.9,0,0,1-.607-.072m159.6-4.493a2.543,2.543,0,1,1,3.135,1.763,2.86,2.86,0,0,1-.679.1,2.557,2.557,0,0,1-2.456-1.864M224.05,552.772h0a2.554,2.554,0,1,1,.766.116,2.408,2.408,0,0,1-.766-.116m198.922-4.955a2.55,2.55,0,1,1,3.251,1.56,2.438,2.438,0,0,1-.838.144,2.556,2.556,0,0,1-2.413-1.7m-218.325-1.835a2.539,2.539,0,1,1,.91.173,2.551,2.551,0,0,1-.91-.173m237.395-5.4a2.547,2.547,0,1,1,3.337,1.329,2.433,2.433,0,0,1-1,.217,2.578,2.578,0,0,1-2.34-1.546m-256.321-2.658h0a2.56,2.56,0,1,1,1.069.231,2.538,2.538,0,0,1-1.069-.231m274.871-5.837a2.554,2.554,0,1,1,2.268,1.387,2.542,2.542,0,0,1-2.268-1.387m-293.219-3.467a2.569,2.569,0,1,1,1.228.3,2.661,2.661,0,0,1-1.228-.3m311.162-6.241a2.549,2.549,0,1,1,2.2,1.242,2.544,2.544,0,0,1-2.2-1.242m-328.874-4.291a2.551,2.551,0,1,1,3.525-.766,2.553,2.553,0,0,1-3.525.766m346.095-6.6a2.545,2.545,0,1,1,3.554.65,2.567,2.567,0,0,1-3.554-.65m-363.041-5.114a2.546,2.546,0,1,1,3.554-.52,2.533,2.533,0,0,1-3.554.52m379.5-6.906a2.55,2.55,0,1,1,3.583.4v-.014a2.545,2.545,0,0,1-3.583-.39m-395.605-5.923h0a2.557,2.557,0,1,1,1.647.607,2.545,2.545,0,0,1-1.647-.607M527.8,486.33a2.551,2.551,0,1,1,3.6.144,2.473,2.473,0,0,1-1.719.679,2.532,2.532,0,0,1-1.878-.823m-426.378-6.718a2.546,2.546,0,1,1,1.791.737,2.551,2.551,0,0,1-1.791-.737m441.012-7.471a2.565,2.565,0,1,1,1.763.695,2.563,2.563,0,0,1-1.763-.695M87.265,464.659h0a2.547,2.547,0,1,1,1.921.867,2.593,2.593,0,0,1-1.921-.867m468.78-7.7a2.546,2.546,0,1,1,3.583-.361,2.573,2.573,0,0,1-3.583.361M74.219,448.724h0a2.541,2.541,0,1,1,3.568.491,2.587,2.587,0,0,1-1.546.52,2.535,2.535,0,0,1-2.023-1.011M62.358,431.893a2.564,2.564,0,1,1,2.138,1.156,2.557,2.557,0,0,1-2.138-1.156M20.447,316.851a2.546,2.546,0,1,1,2.832,2.239c-.1,0-.2.014-.3.014a2.535,2.535,0,0,1-2.528-2.254m-1.618-20.529a2.552,2.552,0,1,1,2.644,2.442.215.215,0,0,1-.1.014,2.558,2.558,0,0,1-2.543-2.456m597.5-10.633a2.088,2.088,0,0,0,0-.692,2.55,2.55,0,1,1,5.1-.016,1.6,1.6,0,0,1-.027.361,3.085,3.085,0,0,1,.027.347,2.55,2.55,0,0,1-5.1,0M21.256,278.364a2.606,2.606,0,1,1,.087,0Zm594.253-13.551h0a2.543,2.543,0,1,1,2.745,2.34h-.2a2.539,2.539,0,0,1-2.543-2.34M22.6,258.022a2.578,2.578,0,1,1,.3.014,2.126,2.126,0,0,1-.3-.014M613.111,244.76a2.553,2.553,0,1,1,2.918,2.109,1.921,1.921,0,0,1-.4.043,2.555,2.555,0,0,1-2.515-2.153M25.533,237.84a2.574,2.574,0,1,1,.477.043,2.661,2.661,0,0,1-.477-.043m583.634-12.887h0a2.547,2.547,0,1,1,3.077,1.878,2.179,2.179,0,0,1-.607.072,2.554,2.554,0,0,1-2.47-1.95M30.011,217.946a2.572,2.572,0,1,1,.679.087,2.824,2.824,0,0,1-.679-.087m573.7-12.41h0a2.542,2.542,0,1,1,3.206,1.647,2.907,2.907,0,0,1-.78.116,2.532,2.532,0,0,1-2.426-1.763M36.036,198.442a2.553,2.553,0,1,1,3.265-1.531,2.526,2.526,0,0,1-2.384,1.676,2.682,2.682,0,0,1-.881-.144M596.757,186.6h0a2.557,2.557,0,1,1,2.355,1.575,2.548,2.548,0,0,1-2.355-1.575M43.548,179.459a2.544,2.544,0,1,1,1.055.231,2.551,2.551,0,0,1-1.055-.231m544.815-11.24a2.547,2.547,0,1,1,2.283,1.4,2.549,2.549,0,0,1-2.283-1.4M52.491,161.125a2.569,2.569,0,1,1,1.214.3,2.648,2.648,0,0,1-1.214-.3m526.12-10.59a2.547,2.547,0,1,1,3.5.867,2.58,2.58,0,0,1-1.315.361,2.531,2.531,0,0,1-2.182-1.228M62.777,143.5a2.543,2.543,0,1,1,3.525-.751v.014a2.557,2.557,0,0,1-2.138,1.156,2.473,2.473,0,0,1-1.387-.419m504.782-9.9h0a2.53,2.53,0,1,1,2.08,1.084,2.531,2.531,0,0,1-2.08-1.084M74.335,126.712a2.563,2.563,0,1,1,1.531.506,2.529,2.529,0,0,1-1.531-.506m480.959-9.188a2.552,2.552,0,1,1,1.965.925,2.545,2.545,0,0,1-1.965-.925M87.077,110.792a2.549,2.549,0,1,1,3.6-.231,2.547,2.547,0,0,1-3.6.231M541.9,102.369a2.55,2.55,0,1,1,3.7-3.511,2.55,2.55,0,0,1-3.7,3.511M100.932,95.825a2.529,2.529,0,1,1,1.806.766,2.537,2.537,0,0,1-1.806-.766m341.7-62.007a2.548,2.548,0,1,1,1,.2,2.461,2.461,0,0,1-1-.2m-18.868-7.281a2.526,2.526,0,1,1,.838.144,2.837,2.837,0,0,1-.838-.144M221.609,22.043A2.547,2.547,0,1,1,224.8,23.7a2.812,2.812,0,0,1-.766.116,2.535,2.535,0,0,1-2.427-1.777M404.452,20.5a2.51,2.51,0,1,1,.679.1,2.759,2.759,0,0,1-.679-.1M241.2,16.365a2.546,2.546,0,1,1,3.092,1.864,3.157,3.157,0,0,1-.621.072,2.556,2.556,0,0,1-2.47-1.936m143.59-.636h0a2.518,2.518,0,1,1,.52.058,2.127,2.127,0,0,1-.52-.058M261.122,11.974a2.546,2.546,0,1,1,2.962,2.051,2.5,2.5,0,0,1-.462.043,2.549,2.549,0,0,1-2.5-2.095m103.73.274a2.533,2.533,0,0,1-2.167-2.875,2.547,2.547,0,1,1,5.042.722,2.535,2.535,0,0,1-2.514,2.182,1.466,1.466,0,0,1-.361-.029M281.29,8.882a2.545,2.545,0,1,1,2.817,2.239,2.035,2.035,0,0,1-.289.014,2.535,2.535,0,0,1-2.528-2.254m63.437,1.17h0a2.544,2.544,0,1,1,.4-5.071h-.014a2.546,2.546,0,0,1-.188,5.085.954.954,0,0,1-.2-.014M301.6,7.076a2.546,2.546,0,1,1,2.673,2.413.4.4,0,0,1-.13.014A2.563,2.563,0,0,1,301.6,7.076m22.913,2.066a2.572,2.572,0,1,1,.029,0Z" transform="translate(8.36 1.797)" fill="#a4a5a2"/>
          </g>
        </g>
      </g>
    </g>
    <g id="Group_120481" data-name="Group 120481" transform="translate(-20.41 3986.076)">
      <rect id="Rectangle_36829" data-name="Rectangle 36829" width="37.827" height="29.356" transform="translate(712.091 905.422) rotate(-164.385)" fill="#0f1e5a"/>
      <path id="Path_181606" data-name="Path 181606" d="M325.28,78.113l-.436,23.452-.436,23.452-21.335-14.726L281.733,95.565l21.773-8.726Z" transform="translate(678.674 1204.877) rotate(-109)" fill="#0f1e5a"/>
      <path id="Path_181607" data-name="Path 181607" d="M326.885,200.763,370.4,186.6C348.979,127.1,295.987,88.392,232.42,86.41v44.139a108.772,108.772,0,0,1,94.465,70.214" transform="translate(689.302 1224.41) rotate(-109)" fill="#0f1e5a"/>
      <rect id="Rectangle_36830" data-name="Rectangle 36830" width="29.355" height="37.828" transform="translate(859.008 799.456) rotate(-179.112)" fill="#0f1e5a"/>
      <path id="Path_181608" data-name="Path 181608" d="M375.82,252.44,361.845,233.6l-13.976-18.838-8.816,24.38-8.82,24.381,22.795-5.54Z" transform="translate(729.111 1164.698) rotate(-109)" fill="#0f1e5a"/>
      <path id="Path_181609" data-name="Path 181609" d="M354.575,162.492l-43.623,14.174a108.538,108.538,0,0,1-35.369,111.715L301.9,324.6c49.97-38.75,70.32-101.39,52.674-162.113" transform="translate(715.044 1195.246) rotate(-109)" fill="#0f1e5a"/>
      <rect id="Rectangle_36831" data-name="Rectangle 36831" width="37.827" height="29.353" transform="matrix(-0.95, 0.313, -0.313, -0.95, 1008.235, 889.271)" fill="#0f1e5a"/>
      <path id="Path_181610" data-name="Path 181610" d="M236.685,346.825,249.9,327.445l13.216-19.376-25.922-.339-25.927-.337,12.709,19.717Z" transform="translate(785.285 1201.311) rotate(-109)" fill="#0f1e5a"/>
      <path id="Path_181611" data-name="Path 181611" d="M253.1,272.834a107.975,107.975,0,0,1-58.233-16.968l-24.775,34.1c25.719,17.49,55.08,26.708,85.229,26.708s59.512-9.219,85.231-26.708L314.34,253.9A108.014,108.014,0,0,1,253.1,272.834" transform="translate(768.752 1226.371) rotate(-109)" fill="#0f1e5a"/>
      <rect id="Rectangle_36832" data-name="Rectangle 36832" width="37.828" height="29.355" transform="matrix(-0.628, -0.778, 0.778, -0.628, 938.398, 1075.291)" fill="#0f1e5a"/>
      <path id="Path_181612" data-name="Path 181612" d="M94.169,252.44,108.143,233.6l13.976-18.838,8.817,24.38,8.819,24.381-22.792-5.54Z" transform="translate(763.29 1263.959) rotate(-109)" fill="#0f1e5a"/>
      <path id="Path_181613" data-name="Path 181613" d="M165.259,204.961a108.531,108.531,0,0,1,4.125-29.617l-39.556-12.852C112.179,223.215,132.534,285.853,182.5,324.6l24.689-33.983a108.308,108.308,0,0,1-41.933-85.66" transform="translate(737.053 1259.164) rotate(-109)" fill="#0f1e5a"/>
      <rect id="Rectangle_36833" data-name="Rectangle 36833" width="29.355" height="37.827" transform="matrix(-0.805, -0.593, 0.593, -0.805, 756.269, 1078.122)" fill="#0f1e5a"/>
      <path id="Path_181614" data-name="Path 181614" d="M147.091,78.113l.436,23.452.436,23.452L169.3,110.291l21.338-14.726-21.773-8.726Z" transform="translate(698.167 1261.491) rotate(-109)" fill="#0f1e5a"/>
      <path id="Path_181615" data-name="Path 181615" d="M267.842,130.348V86.41C204.275,88.392,151.442,127.1,130.027,186.6l39.6,12.881a108.492,108.492,0,0,1,98.214-69.137" transform="translate(704.127 1267.465) rotate(-109)" fill="#0f1e5a"/>
    </g>
    <g id="Group_120807" data-name="Group 120807" transform="translate(22.527 -40.174)">
      <g id="Group_120806" data-name="Group 120806" transform="translate(759.117 4880.119)">
        <g id="Group_120805" data-name="Group 120805" clip-path="url(#clip-path)">
          <g id="Group_120784" data-name="Group 120784">
            <g id="Group_120783" data-name="Group 120783" clip-path="url(#clip-path)">
              <g id="Group_120740" data-name="Group 120740" transform="translate(0 15.535)" opacity="0.8">
                <g id="Group_120739" data-name="Group 120739">
                  <g id="Group_120738" data-name="Group 120738" clip-path="url(#clip-path-3)">
                    <path id="Path_184217" data-name="Path 184217" d="M68.905,30.3V19.646h-52.5V30.532a8.074,8.074,0,0,1-3.029,6.3L3.7,44.575a9.864,9.864,0,0,0-3.7,7.7v97.265a7.915,7.915,0,0,0,7.915,7.915H79.037a7.915,7.915,0,0,0,7.915-7.915V52.56a9.867,9.867,0,0,0-4.062-7.978L72.23,36.83A8.076,8.076,0,0,1,68.905,30.3" transform="translate(0 -19.646)" fill="#f6f6f6"/>
                  </g>
                </g>
              </g>
              <path id="Path_184218" data-name="Path 184218" d="M75.639,156.3H13.919A7.694,7.694,0,0,1,6.224,148.6V61.142H83.333V148.6a7.694,7.694,0,0,1-7.694,7.694" transform="translate(-1.302 -12.794)" fill="#c6edff"/>
              <g id="Group_120782" data-name="Group 120782" transform="translate(16.406 51.629)" opacity="0.51">
                <g id="Group_120781" data-name="Group 120781">
                  <g id="Group_120780" data-name="Group 120780" clip-path="url(#clip-path-4)">
                    <g id="Group_120743" data-name="Group 120743" transform="translate(1.641)" style="mix-blend-mode: multiply;isolation: isolate">
                      <g id="Group_120742" data-name="Group 120742">
                        <g id="Group_120741" data-name="Group 120741" clip-path="url(#clip-path-5)">
                          <path id="Path_184219" data-name="Path 184219" d="M35.947,71.853a6.562,6.562,0,1,1-6.562-6.562,6.563,6.563,0,0,1,6.562,6.562" transform="translate(-22.822 -65.291)" fill="#85dbf9"/>
                        </g>
                      </g>
                    </g>
                    <g id="Group_120746" data-name="Group 120746" transform="translate(42.656 21.328)" style="mix-blend-mode: multiply;isolation: isolate">
                      <g id="Group_120745" data-name="Group 120745">
                        <g id="Group_120744" data-name="Group 120744" clip-path="url(#clip-path-5)">
                          <path id="Path_184220" data-name="Path 184220" d="M87.816,98.825a6.562,6.562,0,1,1-6.562-6.562,6.562,6.562,0,0,1,6.562,6.562" transform="translate(-74.691 -92.263)" fill="#85dbf9"/>
                        </g>
                      </g>
                    </g>
                    <g id="Group_120749" data-name="Group 120749" transform="translate(9.844 54.14)" style="mix-blend-mode: multiply;isolation: isolate">
                      <g id="Group_120748" data-name="Group 120748">
                        <g id="Group_120747" data-name="Group 120747" clip-path="url(#clip-path-5)">
                          <path id="Path_184221" data-name="Path 184221" d="M46.321,140.319a6.562,6.562,0,1,1-6.562-6.562,6.563,6.563,0,0,1,6.562,6.562" transform="translate(-33.196 -133.757)" fill="#85dbf9"/>
                        </g>
                      </g>
                    </g>
                    <g id="Group_120752" data-name="Group 120752" transform="translate(27.89 45.937)" style="mix-blend-mode: multiply;isolation: isolate">
                      <g id="Group_120751" data-name="Group 120751">
                        <g id="Group_120750" data-name="Group 120750" clip-path="url(#clip-path-5)">
                          <path id="Path_184222" data-name="Path 184222" d="M69.143,129.946a6.562,6.562,0,1,1-6.562-6.562,6.562,6.562,0,0,1,6.562,6.562" transform="translate(-56.018 -123.384)" fill="#85dbf9"/>
                        </g>
                      </g>
                    </g>
                    <g id="Group_120755" data-name="Group 120755" transform="translate(24.609 18.047)" style="mix-blend-mode: multiply;isolation: isolate">
                      <g id="Group_120754" data-name="Group 120754">
                        <g id="Group_120753" data-name="Group 120753" clip-path="url(#clip-path-9)">
                          <path id="Path_184223" data-name="Path 184223" d="M56.791,90.574a2.461,2.461,0,1,1-2.461-2.461,2.461,2.461,0,0,1,2.461,2.461" transform="translate(-51.869 -88.113)" fill="#85dbf9"/>
                        </g>
                      </g>
                    </g>
                    <g id="Group_120758" data-name="Group 120758" transform="translate(0 29.531)" style="mix-blend-mode: multiply;isolation: isolate">
                      <g id="Group_120757" data-name="Group 120757">
                        <g id="Group_120756" data-name="Group 120756" clip-path="url(#clip-path-9)">
                          <path id="Path_184224" data-name="Path 184224" d="M25.67,105.1a2.461,2.461,0,1,1-2.461-2.461A2.461,2.461,0,0,1,25.67,105.1" transform="translate(-20.748 -102.636)" fill="#85dbf9"/>
                        </g>
                      </g>
                    </g>
                    <g id="Group_120761" data-name="Group 120761" transform="translate(47.578 67.265)" style="mix-blend-mode: multiply;isolation: isolate">
                      <g id="Group_120760" data-name="Group 120760" transform="translate(0 0)">
                        <g id="Group_120759" data-name="Group 120759" clip-path="url(#clip-path-9)">
                          <path id="Path_184225" data-name="Path 184225" d="M85.837,152.817a2.461,2.461,0,1,1-2.461-2.461,2.461,2.461,0,0,1,2.461,2.461" transform="translate(-80.915 -150.356)" fill="#85dbf9"/>
                        </g>
                      </g>
                    </g>
                    <g id="Group_120764" data-name="Group 120764" transform="translate(32.812 78.749)" style="mix-blend-mode: multiply;isolation: isolate">
                      <g id="Group_120763" data-name="Group 120763">
                        <g id="Group_120762" data-name="Group 120762" clip-path="url(#clip-path-9)">
                          <path id="Path_184226" data-name="Path 184226" d="M67.165,167.34a2.461,2.461,0,1,1-2.461-2.461,2.461,2.461,0,0,1,2.461,2.461" transform="translate(-62.242 -164.879)" fill="#85dbf9"/>
                        </g>
                      </g>
                    </g>
                    <g id="Group_120767" data-name="Group 120767" transform="translate(19.687 85.312)" style="mix-blend-mode: multiply;isolation: isolate">
                      <g id="Group_120766" data-name="Group 120766">
                        <g id="Group_120765" data-name="Group 120765" clip-path="url(#clip-path-9)">
                          <path id="Path_184227" data-name="Path 184227" d="M50.567,175.639a2.461,2.461,0,1,1-2.461-2.461,2.461,2.461,0,0,1,2.461,2.461" transform="translate(-45.645 -173.178)" fill="#85dbf9"/>
                        </g>
                      </g>
                    </g>
                    <g id="Group_120770" data-name="Group 120770" transform="translate(4.922 75.468)" style="mix-blend-mode: multiply;isolation: isolate">
                      <g id="Group_120769" data-name="Group 120769">
                        <g id="Group_120768" data-name="Group 120768" clip-path="url(#clip-path-14)">
                          <path id="Path_184228" data-name="Path 184228" d="M36.815,165.651a4.922,4.922,0,1,1-4.922-4.922,4.922,4.922,0,0,1,4.922,4.922" transform="translate(-26.972 -160.729)" fill="#85dbf9"/>
                        </g>
                      </g>
                    </g>
                    <g id="Group_120773" data-name="Group 120773" transform="translate(13.125 44.296)" style="mix-blend-mode: multiply;isolation: isolate">
                      <g id="Group_120772" data-name="Group 120772">
                        <g id="Group_120771" data-name="Group 120771" clip-path="url(#clip-path-9)">
                          <path id="Path_184229" data-name="Path 184229" d="M42.268,123.77a2.461,2.461,0,1,1-2.461-2.461,2.461,2.461,0,0,1,2.461,2.461" transform="translate(-37.346 -121.309)" fill="#85dbf9"/>
                        </g>
                      </g>
                    </g>
                    <g id="Group_120776" data-name="Group 120776" transform="translate(42.656 9.843)" style="mix-blend-mode: multiply;isolation: isolate">
                      <g id="Group_120775" data-name="Group 120775">
                        <g id="Group_120774" data-name="Group 120774" clip-path="url(#clip-path-9)">
                          <path id="Path_184230" data-name="Path 184230" d="M79.613,80.2a2.461,2.461,0,1,1-2.461-2.461A2.461,2.461,0,0,1,79.613,80.2" transform="translate(-74.691 -77.739)" fill="#85dbf9"/>
                        </g>
                      </g>
                    </g>
                    <g id="Group_120779" data-name="Group 120779" transform="translate(55.781 1.641)" style="mix-blend-mode: multiply;isolation: isolate">
                      <g id="Group_120778" data-name="Group 120778">
                        <g id="Group_120777" data-name="Group 120777" clip-path="url(#clip-path-9)">
                          <path id="Path_184231" data-name="Path 184231" d="M96.211,69.827a2.461,2.461,0,1,1-2.461-2.461,2.461,2.461,0,0,1,2.461,2.461" transform="translate(-91.289 -67.366)" fill="#85dbf9"/>
                        </g>
                      </g>
                    </g>
                  </g>
                </g>
              </g>
              <path id="Path_184232" data-name="Path 184232" d="M71.4,141.723H21.722a3.05,3.05,0,0,1-3.049-3.049V80.788a3.05,3.05,0,0,1,3.049-3.049H71.4a3.049,3.049,0,0,1,3.049,3.049v57.886a3.049,3.049,0,0,1-3.049,3.049" transform="translate(-3.907 -16.267)" fill="#f6f6f6"/>
              <rect id="Rectangle_38579" data-name="Rectangle 38579" width="44.764" height="13.429" transform="translate(20.4 77.878)" fill="#2f4260"/>
            </g>
          </g>
          <text id="COVID_19" data-name="COVID 19" transform="translate(25.241 85.64)" fill="#f6f6f6" font-size="6" font-family="Montserrat-Bold, Montserrat" font-weight="700"><tspan x="0" y="0" letter-spacing="-0.014em">C</tspan><tspan y="0" letter-spacing="-0.023em">O</tspan><tspan y="0" letter-spacing="-0.015em">V</tspan><tspan y="0">ID 19</tspan></text>
          <text id="Vacuna" transform="translate(21.472 105.289)" fill="#2f4260" font-size="9" font-family="Montserrat-Bold, Montserrat" font-weight="700"><tspan x="0" y="0" letter-spacing="-0.054em">V</tspan><tspan y="0" letter-spacing="0.006em">a</tspan><tspan y="0">cuna</tspan></text>
          <g id="Group_120804" data-name="Group 120804">
            <g id="Group_120803" data-name="Group 120803" clip-path="url(#clip-path)">
              <g id="Group_120787" data-name="Group 120787" transform="translate(52.5 15.535)" opacity="0.42" style="mix-blend-mode: multiply;isolation: isolate">
                <g id="Group_120786" data-name="Group 120786">
                  <g id="Group_120785" data-name="Group 120785" clip-path="url(#clip-path-19)">
                    <path id="Path_184233" data-name="Path 184233" d="M96.782,44.583l-10.591-7.7A8.239,8.239,0,0,1,82.8,30.217V19.647H66.392V30.808a7.078,7.078,0,0,0,2.916,5.725l11.069,8.05a9.866,9.866,0,0,1,4.062,7.978v96.983a7.914,7.914,0,0,1-7.915,7.915H92.93a7.914,7.914,0,0,0,7.915-7.915V52.561a9.864,9.864,0,0,0-4.062-7.978" transform="translate(-66.392 -19.646)" fill="#ccc"/>
                  </g>
                </g>
              </g>
              <g id="Group_120790" data-name="Group 120790" transform="translate(6.562 15.535)" opacity="0.63" style="mix-blend-mode: screen;isolation: isolate">
                <g id="Group_120789" data-name="Group 120789">
                  <g id="Group_120788" data-name="Group 120788" clip-path="url(#clip-path-20)">
                    <path id="Path_184234" data-name="Path 184234" d="M12.361,44.583l13.531-9.84a1.1,1.1,0,0,0,.454-.891v-14.2h8.2v14.2a1.1,1.1,0,0,1-.453.891l-13.531,9.84A9.864,9.864,0,0,0,16.5,52.561v96.983a7.915,7.915,0,0,0,7.915,7.915h-8.2A7.914,7.914,0,0,1,8.3,149.543V52.561a9.864,9.864,0,0,1,4.062-7.978" transform="translate(-8.299 -19.646)" fill="#f6f6f6"/>
                  </g>
                </g>
              </g>
              <g id="Group_120793" data-name="Group 120793" transform="translate(16.406 17.176)" opacity="0.42" style="mix-blend-mode: multiply;isolation: isolate">
                <g id="Group_120792" data-name="Group 120792">
                  <g id="Group_120791" data-name="Group 120791" clip-path="url(#clip-path-21)">
                    <rect id="Rectangle_38583" data-name="Rectangle 38583" width="52.5" height="11.484" transform="translate(0 0.001)" fill="#ccc"/>
                  </g>
                </g>
              </g>
              <path id="Path_184235" data-name="Path 184235" d="M76.268,19.587H14.158A5.859,5.859,0,0,1,8.3,13.728V5.859A5.859,5.859,0,0,1,14.158,0H76.268a5.859,5.859,0,0,1,5.859,5.859v7.87a5.859,5.859,0,0,1-5.859,5.859" transform="translate(-1.737)" fill="#2f4260"/>
              <g id="Group_120796" data-name="Group 120796" transform="translate(6.562 8.807)" opacity="0.48" style="mix-blend-mode: multiply;isolation: isolate">
                <g id="Group_120795" data-name="Group 120795">
                  <g id="Group_120794" data-name="Group 120794" clip-path="url(#clip-path-22)">
                    <path id="Path_184236" data-name="Path 184236" d="M76.268,17H14.158A5.859,5.859,0,0,1,8.3,11.137v4.922a5.859,5.859,0,0,0,5.859,5.859H76.268a5.859,5.859,0,0,0,5.859-5.859V11.137A5.859,5.859,0,0,1,76.268,17" transform="translate(-8.299 -11.137)" fill="#2f4260"/>
                  </g>
                </g>
              </g>
              <g id="Group_120799" data-name="Group 120799" transform="translate(51.563)" opacity="0.48" style="mix-blend-mode: multiply;isolation: isolate">
                <g id="Group_120798" data-name="Group 120798">
                  <g id="Group_120797" data-name="Group 120797" clip-path="url(#clip-path-23)">
                    <path id="Path_184237" data-name="Path 184237" d="M83.254,0H65.207a5.859,5.859,0,0,1,5.859,5.859v7.87a5.859,5.859,0,0,1-5.859,5.859H83.254a5.859,5.859,0,0,0,5.859-5.859V5.859A5.859,5.859,0,0,0,83.254,0" transform="translate(-65.207)" fill="#2f4260"/>
                  </g>
                </g>
              </g>
              <g id="Group_120802" data-name="Group 120802" transform="translate(13.829)" opacity="0.48" style="mix-blend-mode: screen;isolation: isolate">
                <g id="Group_120801" data-name="Group 120801">
                  <g id="Group_120800" data-name="Group 120800" clip-path="url(#clip-path-24)">
                    <path id="Path_184238" data-name="Path 184238" d="M27.332,13.728V5.859A5.858,5.858,0,0,1,33.19,0H23.347a5.858,5.858,0,0,0-5.858,5.859v7.87a5.858,5.858,0,0,0,5.858,5.859H33.19a5.858,5.858,0,0,1-5.858-5.859" transform="translate(-17.488)" fill="#2f4260"/>
                  </g>
                </g>
              </g>
            </g>
          </g>
        </g>
      </g>
    </g>
    <g id="Group_120809" data-name="Group 120809" transform="translate(621.973 5105.289)">
      <g id="Group_120808" data-name="Group 120808" clip-path="url(#clip-path-25)">
        <path id="Path_184239" data-name="Path 184239" d="M70.05,47.5q0,17.557,0,35.115c0,3.233-1.723,4.963-4.945,4.963q-30.095,0-60.19,0C1.748,87.573,0,85.83,0,82.671q0-35.252,0-70.5C0,9.067,1.764,7.3,4.856,7.3c7.053,0,14.105-.01,21.158.016a1.315,1.315,0,0,0,1.358-.765c.621-1.148,1.311-2.259,2.006-3.365a6.6,6.6,0,0,1,11.262-.053c.7,1.1,1.385,2.217,2.011,3.362a1.384,1.384,0,0,0,1.416.825C51.088,7.286,58.111,7.3,65.133,7.3c3.169,0,4.916,1.74,4.916,4.9q0,17.649,0,35.3M61.229,78.773V16.057H48.142c0,.233,0,.353,0,.472a4.891,4.891,0,0,1-5.2,5.364q-8.026.01-16.051,0a4.859,4.859,0,0,1-4.935-4.12,13.74,13.74,0,0,1-.082-1.645H8.8V78.773ZM44.91,10.218c.481.809.92,1.459,1.265,2.156a1.286,1.286,0,0,0,1.354.78c4.894-.031,9.789-.018,14.683-.016,1.546,0,2,.456,2,2.014q0,32.288,0,64.576c0,1.55-.457,2.007-2.008,2.007H7.849c-1.555,0-2.011-.453-2.011-2q0-32.288,0-64.576c0-1.563.449-2.018,1.993-2.019q7.387,0,14.774-.007c.289,0,.725.011.843-.157.59-.847,1.1-1.752,1.7-2.756h-.945q-9.621,0-19.243,0c-1.611,0-2.045.437-2.045,2.058q0,35.161,0,70.323c0,1.616.437,2.054,2.05,2.054h60.1c1.619,0,2.061-.439,2.061-2.046q0-35.161,0-70.323c0-1.625-.435-2.067-2.038-2.067q-9.576,0-19.152,0Zm-9.852,8.757c2.614,0,5.228.006,7.841,0,2.041-.006,2.931-1.513,1.9-3.249q-3.215-5.4-6.472-10.778a3.682,3.682,0,0,0-6.586-.02q-3.265,5.372-6.47,10.779c-1.041,1.746-.174,3.261,1.857,3.268,2.644.009,5.288,0,7.933,0" transform="translate(0 0)" fill="#0f1e5a"/>
        <path id="Path_184240" data-name="Path 184240" d="M69.1,98.49l1.943,2.036a24.279,24.279,0,0,0-1.963,1.769,2.193,2.193,0,0,0-.557,1.32c-.046,3.252-.023,6.5-.026,9.756,0,1.506-.467,1.987-1.934,1.988q-5.379.005-10.759,0c-1.418,0-1.9-.491-1.9-1.929q-.005-5.38,0-10.76c0-1.425.485-1.9,1.923-1.9,1.756,0,3.512,0,5.32,0v2.873H56.883v8.752H65.5v-6.415l-4.6,4.63-1.867-2.049L69.1,98.49" transform="translate(-40.768 -74.493)" fill="#0f1e5a"/>
        <path id="Path_184241" data-name="Path 184241" d="M61.157,172.393v2.891H56.889v8.727h8.639V177.5L61,182.327,58.953,180.1l10.055-10.067,1.951,2.1c-.6.558-1.226,1.178-1.9,1.743a1.663,1.663,0,0,0-.579,1.433c.023,3.252.014,6.5.01,9.757,0,1.429-.487,1.915-1.913,1.917q-5.379.006-10.759,0c-1.433,0-1.918-.483-1.919-1.909q-.006-5.425,0-10.851c0-1.317.507-1.825,1.811-1.831,1.788-.008,3.577,0,5.443,0" transform="translate(-40.767 -128.606)" fill="#0f1e5a"/>
        <path id="Path_184242" data-name="Path 184242" d="M61.13,247.267H56.892v8.7H65.52v-6.282l-4.541,4.58-2-2.206L69,242.021l2.009,2.1c-.641.573-1.363,1.136-1.975,1.8a2.051,2.051,0,0,0-.519,1.245c-.042,3.282-.021,6.565-.024,9.848,0,1.439-.483,1.931-1.9,1.933q-5.425.007-10.85,0c-1.322,0-1.84-.506-1.842-1.8q-.011-5.517,0-11.033c0-1.207.525-1.745,1.7-1.754,1.82-.014,3.641,0,5.525,0Z" transform="translate(-40.764 -183.053)" fill="#0f1e5a"/>
        <rect id="Rectangle_38597" data-name="Rectangle 38597" width="15.937" height="2.811" transform="translate(39.476 29.254)" fill="#0f1e5a"/>
        <rect id="Rectangle_38598" data-name="Rectangle 38598" width="15.937" height="2.811" transform="translate(39.446 46.752)" fill="#0f1e5a"/>
        <rect id="Rectangle_38599" data-name="Rectangle 38599" width="15.937" height="2.81" transform="translate(39.445 64.267)" fill="#0f1e5a"/>
        <rect id="Rectangle_38600" data-name="Rectangle 38600" width="10.091" height="2.815" transform="translate(32.176 35.09)" fill="#0f1e5a"/>
        <rect id="Rectangle_38601" data-name="Rectangle 38601" width="10.1" height="2.808" transform="translate(32.18 52.608)" fill="#0f1e5a"/>
        <rect id="Rectangle_38602" data-name="Rectangle 38602" width="10.113" height="2.808" transform="translate(32.149 70.125)" fill="#0f1e5a"/>
        <rect id="Rectangle_38603" data-name="Rectangle 38603" width="4.276" height="2.802" transform="translate(32.165 29.243)" fill="#0f1e5a"/>
        <rect id="Rectangle_38604" data-name="Rectangle 38604" width="4.276" height="2.802" transform="translate(45.284 35.097)" fill="#0f1e5a"/>
        <rect id="Rectangle_38605" data-name="Rectangle 38605" width="4.232" height="2.839" transform="translate(32.183 46.726)" fill="#0f1e5a"/>
        <rect id="Rectangle_38606" data-name="Rectangle 38606" width="4.296" height="2.793" transform="translate(45.289 52.616)" fill="#0f1e5a"/>
        <rect id="Rectangle_38607" data-name="Rectangle 38607" width="4.295" height="2.789" transform="translate(32.156 64.294)" fill="#0f1e5a"/>
        <rect id="Rectangle_38608" data-name="Rectangle 38608" width="4.264" height="2.808" transform="translate(45.313 70.123)" fill="#0f1e5a"/>
        <rect id="Rectangle_38609" data-name="Rectangle 38609" width="2.814" height="5.724" transform="translate(33.626 5.884)" fill="#0f1e5a"/>
        <path id="Path_184243" data-name="Path 184243" d="M139.259,56.851a1.452,1.452,0,1,1,1.438-1.467,1.466,1.466,0,0,1-1.438,1.467" transform="translate(-104.22 -40.803)" fill="#0f1e5a"/>
      </g>
    </g>
    <g id="Group_120810" data-name="Group 120810" transform="translate(942.523 5099.537)">
      <g id="Group_120810-2" data-name="Group 120810" clip-path="url(#clip-path-26)">
        <path id="Path_184244" data-name="Path 184244" d="M0,85.461H5V70.556H8.1V85.312c.463.023.826.057,1.188.057q20.261,0,40.522.017c.827,0,1.2-.115,1.2-1.093-.037-10.293-.023-20.586-.025-30.879,0-.3-.026-.606-.044-.993H37.714v12.95H21.455V52.411H8.123V67.152H5.082V49.275h22.9V13.17h39.43A14.877,14.877,0,0,1,84.028.115a14.684,14.684,0,0,1,.038,29.1A14.858,14.858,0,0,1,67.414,16.285H60.683v12.98H44.424V16.29H31.162V49.178H73.948V32.768h3.087V49.231h23.009V85.36H105v3.09h-1.4q-51.089,0-102.178,0c-.475,0-.949.056-1.423.086V85.461m96.854-.089V52.426H83.575V65.4H67.4V52.427H54.124c-.022.326-.051.562-.052.8,0,10.39.011,20.781-.024,31.171,0,1,.481.983,1.195.983q20.251-.017,40.5-.008ZM82.209,3.095A11.577,11.577,0,1,0,93.659,14.85,11.576,11.576,0,0,0,82.209,3.095M47.57,26.275c.924,0,1.74-.034,2.551.011.669.037.891-.209.88-.877-.034-2.046-.012-4.093-.012-6.14V16.284H47.57Zm6.594-.089h3.318v-9.9H54.164ZM24.616,62.3h3.318V52.4H24.616Zm6.472-9.9v7.492c0,2.543,0,2.515,2.509,2.518.753,0,1.01-.2.993-.98-.047-2.148-.016-4.3-.016-6.447V52.4Zm39.468,9.882h3.324v-9.86H70.556Zm9.978-9.845H77.051v7.452c0,2.583,0,2.583,2.608,2.5.068,0,.162.028.2-.007.232-.207.643-.426.646-.646.042-3.068.029-6.137.029-9.3" transform="translate(0 0)" fill="#0f1e5a"/>
        <path id="Path_184245" data-name="Path 184245" d="M126.306,120.086H139.1v12.756H126.306Zm9.711,9.706v-4.13l-4.123,4.13Zm-6.578-6.641v3.965l3.97-3.965Z" transform="translate(-91.682 -87.167)" fill="#0f1e5a"/>
        <path id="Path_184246" data-name="Path 184246" d="M42.6,251.757H55.38v12.794H42.6Zm9.669,9.731V257.4l-4.078,4.086Zm-2.384-6.637H45.711V259l4.175-4.148" transform="translate(-30.924 -182.744)" fill="#0f1e5a"/>
        <rect id="Rectangle_38611" data-name="Rectangle 38611" width="3.199" height="2.956" transform="translate(59.138 39.456)" fill="#0f1e5a"/>
        <rect id="Rectangle_38612" data-name="Rectangle 38612" width="3.199" height="2.956" transform="translate(65.704 39.456)" fill="#0f1e5a"/>
        <rect id="Rectangle_38613" data-name="Rectangle 38613" width="3.189" height="2.948" transform="translate(36.161 75.574)" fill="#0f1e5a"/>
        <rect id="Rectangle_38614" data-name="Rectangle 38614" width="3.148" height="2.94" transform="translate(42.748 75.596)" fill="#0f1e5a"/>
        <path id="Path_184248" data-name="Path 184248" d="M223.048,264.59H210.262V251.764h12.786Zm-3.108-3.1v-4.12l-4.112,4.12Zm-6.577-6.641v3.962l3.967-3.962Z" transform="translate(-152.624 -182.749)" fill="#0f1e5a"/>
        <rect id="Rectangle_38615" data-name="Rectangle 38615" width="3.187" height="2.958" transform="translate(82.126 75.575)" fill="#0f1e5a"/>
        <rect id="Rectangle_38616" data-name="Rectangle 38616" width="3.16" height="2.96" transform="translate(88.727 75.568)" fill="#0f1e5a"/>
        <path id="Path_184249" data-name="Path 184249" d="M277.693,42.383l-5.807-5.808,2.18-1.974,3.473,3.652,7.183-7.212,2.048,2.335-9.078,9.007" transform="translate(-197.355 -22.532)" fill="#0f1e5a"/>
      </g>
    </g>
    <g id="Group_120811" data-name="Group 120811" transform="translate(779.023 4597.564)">
      <g id="Group_120811-2" data-name="Group 120811" clip-path="url(#clip-path-27)">
        <path id="Path_184250" data-name="Path 184250" d="M67.586,109.863c1.4.122,2.473.117,3.5.322a10.651,10.651,0,0,1,8.14,9.972q0,6.607,0,13.215c0,1.042-.336,1.515-1.1,1.632a1.21,1.21,0,0,1-1.482-1.125,8.357,8.357,0,0,1-.023-.9q0-6.648,0-13.3a6.566,6.566,0,0,0-2.255-5.29c-.3-.259-.653-.461-1.031-.724.227,3.509.222,3.541-.968,6.342a4.029,4.029,0,0,1,1.583,3.785,3.786,3.786,0,0,1-3.675,3.4,3.927,3.927,0,0,1-1.762-7.521,3.312,3.312,0,0,0,2.241-3.153,10.952,10.952,0,0,0-.367-3.287c-.039-.19-.689-.267-1.063-.371a1.129,1.129,0,0,0-.38.023c-.051.062-.118.108-.112.143.232,1.512-.594,2.345-1.815,3.011A29.383,29.383,0,0,0,64.5,117.7a1.523,1.523,0,0,1-1.887,0c-1.077-.734-2.153-1.474-3.259-2.163a1.879,1.879,0,0,1-1.006-1.888,4.712,4.712,0,0,0-.039-.7c-1.451-.233-1.472-.223-2.143.906a5.772,5.772,0,0,0-.913,4.438c3-1,4.425,1.188,5.988,3.075.887-1.008,1.539-1.193,2.213-.658a1.284,1.284,0,0,1,.3,1.687c-.437.714-1.154.783-2.051.286-.645.531-1.22,1.058-1.852,1.508a1.172,1.172,0,0,1-1.5-.146,1.071,1.071,0,0,1-.312-1.457c.539-.925-.344-1.264-.721-1.741a1.069,1.069,0,0,0-1.482-.111c-.136.089-.257.2-.393.29-1.782,1.159-1.643,1.865-.219,3.349a2.989,2.989,0,0,1,.5-.192,1.323,1.323,0,0,1,1.469.641,1.216,1.216,0,0,1-.213,1.5.723.723,0,0,1-.241.216c-1.386.594-1.456,1.726-1.436,3.047.068,4.268.026,8.538.025,12.806a6.039,6.039,0,0,1-.022.815,1.132,1.132,0,0,1-1.14,1.063,1.164,1.164,0,0,1-1.366-.887,3.844,3.844,0,0,1-.079-.969c-.005-4.622.011-9.245-.013-13.867a6.191,6.191,0,0,0-2.807-5.323c-.107-.074-.229-.127-.493-.271a8.782,8.782,0,0,1-.963,6.3,4.024,4.024,0,0,1,1.565,4.2,3.914,3.914,0,0,1-7.61,0,3.805,3.805,0,0,1,2.144-4.466c1.763-.619,2.243-1.978,2.379-3.5a11.939,11.939,0,0,0-.417-3.043c-.024-.134-.278-.3-.444-.322a6.683,6.683,0,0,0-1-.015c-.083.107-.148.154-.142.188.256,1.512-.564,2.349-1.784,3.018-.878.481-1.687,1.092-2.518,1.657a1.532,1.532,0,0,1-1.889,0c-1.168-.794-2.392-1.514-3.505-2.378a3.191,3.191,0,0,1-.761-1.427,2.843,2.843,0,0,1-.019-.941c-1.408-.284-1.465-.259-2.144.88a5.456,5.456,0,0,0-.9,4.449,4.125,4.125,0,0,1,4.818,1.752c.3.388.638.742.956,1.114a2.729,2.729,0,0,1,.3.384,1.347,1.347,0,0,1-.43,1.867c-1.254,1.06-1.863,1.221-2.555.675-.6-.476-.632-1-.11-1.949-.96-1.64-1.583-1.97-2.514-1.334-2.043,1.4-2.1,1.716-.592,3.57.123-.04.266-.093.412-.134a1.308,1.308,0,0,1,1.616.614,1.238,1.238,0,0,1-.406,1.66c-.246.213-.512.405-.778.593a1.286,1.286,0,0,1-1.956-.159,24.3,24.3,0,0,1-1.861-2.162,3.866,3.866,0,0,1,.012-4.638,1.31,1.31,0,0,0,.226-1.178,12.017,12.017,0,0,1-.278-2.5,19.042,19.042,0,0,1,.393-2.539,5.946,5.946,0,0,0-2.54,4.908c-.037,4.622-.015,9.244-.017,13.867,0,1.385-.364,1.934-1.285,1.947S23.5,143.354,23.5,142q0-6.607,0-13.215c0-5.823,3.817-9.653,9.633-9.673h.9c-.161-.262-.222-.463-.357-.566a9.293,9.293,0,0,1-3.456-5.464.778.778,0,0,0-.448-.514.755.755,0,0,0-.625.275,5.258,5.258,0,0,1-4.74,2.357c-.652-.016-1.306-.024-1.957,0-.777.033-1.181.581-1.7,1.218,1.132.082,2.1.12,3.052.234a5.042,5.042,0,0,1,1.4.393,1.323,1.323,0,0,1,.736,1.757c-.271.688-.82.843-1.665.668-1.075-.224-2.174-.327-3.185-.471-.131.21-.188.258-.181.3a2.617,2.617,0,0,1-1.648,2.925,28.514,28.514,0,0,0-2.652,1.748,1.515,1.515,0,0,1-1.885,0c-1.054-.72-2.107-1.444-3.192-2.117a1.959,1.959,0,0,1-1.087-2.01,5.659,5.659,0,0,0,0-.625A6.505,6.505,0,0,0,2.631,125.5c-.048,4.622-.013,9.245-.015,13.867a7.218,7.218,0,0,1-.012.734,1.232,1.232,0,0,1-1.3,1.187,1.205,1.205,0,0,1-1.282-1.2c-.042-.814-.016-1.631-.016-2.446q0-5.792,0-11.583c.005-5.7,3.865-9.551,9.577-9.566H10.4a1.936,1.936,0,0,0-1.548-1.3c-.761-.014-1.522,0-2.284-.006a5.2,5.2,0,0,1-5.246-5.223c-.006-2.716-.065-5.444.147-8.147a10.508,10.508,0,0,1,4.048-7.373.92.92,0,0,0,.394-1.026c-.248-1.223-.415-2.463-.633-3.693a1.518,1.518,0,0,1,.519-1.61c1.029-.792,2.039-1.614,3.113-2.34a1.321,1.321,0,1,1,1.334,2.271c-1.848.771-2.418,1.974-1.8,3.9a23.164,23.164,0,0,1,.566,3.388,26.966,26.966,0,0,1,13.562.007c.261-1.619.436-3.179.786-4.7a1.492,1.492,0,0,0-.792-1.788,11.826,11.826,0,0,0-7.618-2.127c-1.158.071-1.91-.662-1.552-1.649a1.6,1.6,0,0,1,1.072-.9,13.482,13.482,0,0,1,11.144,3.908,1.681,1.681,0,0,1,.443,1.649c-.244,1.28-.446,2.569-.638,3.858a.885.885,0,0,0,.143.649c.819.894,1.672,1.756,2.555,2.672a4.849,4.849,0,0,1,3.67-2.507,43.193,43.193,0,0,1,4.966-.064c.723.019,1.084.564,1.088,1.288A1.187,1.187,0,0,1,36.633,96.9c-1.249.039-2.5.011-3.751.018a2.641,2.641,0,0,0-2.859,2.834c-.008,1.193,0,2.386,0,3.568a6.317,6.317,0,0,0,6.5-2.79c.818-1.268,1.471-1.341,2.582-.277a11.542,11.542,0,0,0,9.175,3.16,6.472,6.472,0,0,0-6.3-6.491c-1.043-.046-1.562-.53-1.513-1.393.046-.82.59-1.249,1.6-1.209A8.577,8.577,0,0,1,48.235,97.1c.131-.668.232-1.235.355-1.8a14.354,14.354,0,0,1,28.181.38,11.442,11.442,0,0,1,.211,2.024c.023,3.589.036,7.178-.011,10.767a1.83,1.83,0,0,1-.621,1.293,1.263,1.263,0,0,1-1.953-1.18c-.025-1.658-.007-3.317-.008-4.976v-.769l-2.761.759a9.708,9.708,0,0,1-4.043,6.262M56.124,96.8c0,1.872-.028,3.689.006,5.5a6.454,6.454,0,0,0,5.772,6.329,6.218,6.218,0,0,0,6.963-4.809,51.511,51.511,0,0,0,.413-7.021,14.45,14.45,0,0,1-7.685-3.134,9.046,9.046,0,0,1-5.469,3.13M9.146,103.322c0,1.846-.031,3.688.007,5.529a6.457,6.457,0,0,0,5.955,6.323,6.292,6.292,0,0,0,6.9-5.319,55.167,55.167,0,0,0,.15-6.416c0-.04-.062-.081-.108-.137a14.2,14.2,0,0,1-7.428-3.111,9.035,9.035,0,0,1-5.475,3.131m23.488,2.616c0,1.837-.025,3.654.006,5.471a6.307,6.307,0,0,0,5.754,6.223c3.507.317,6.649-1.83,7.09-5.172a50.632,50.632,0,0,0,.052-6.542,14.205,14.205,0,0,1-7.428-3.119,9.045,9.045,0,0,1-5.475,3.139m41-11.752c-1.294-4.512-6.262-7.849-11.463-7.7-4.723.138-9.612,3.745-10.521,7.821,1.038,0,2.062.017,3.084,0A6.213,6.213,0,0,0,60,91.406c.856-1.262,1.483-1.358,2.579-.3A10.415,10.415,0,0,0,68.9,94.159c1.556.147,3.137.027,4.731.027m-46.5,6.57L24.977,97c-.784,1.288-.944,1.332-2.109,1.044a31.61,31.61,0,0,0-3.411-.734c-1.4-.186-2.811-.225-4.217-.328,3.133,3.747,7.262,4.128,11.9,3.774M6.46,97.142a9.2,9.2,0,0,0-2.06,3.625c3.753.318,7.244.218,9.1-3.954-1.653.385-3.244.714-4.81,1.133-1.223.328-1.485.288-2.231-.8m30.085,23.115c0,.34-.029.824.01,1.3.027.326.041.79.246.941.756.556,1.588,1.009,2.4,1.494.029.017.1-.024.147-.053.75-.486,1.5-.966,2.24-1.472a.586.586,0,0,0,.171-.42c.018-.644.008-1.288.008-1.792Zm-23.436-2.611c-.281,1.97-.281,1.97,1.417,3.073a4.3,4.3,0,0,0,.755.473.964.964,0,0,0,.711.03c.682-.387,1.333-.831,1.978-1.277a.678.678,0,0,0,.289-.436c.031-.667.014-1.337.014-1.864Zm46.926-6.526c0,.339-.029.821.01,1.3.026.327.039.792.243.943.756.557,1.588,1.01,2.4,1.5.029.018.1-.022.148-.051.75-.486,1.5-.965,2.241-1.472a.585.585,0,0,0,.174-.418c.018-.645.008-1.29.008-1.8Zm-9.082-8.2c-.153.486-.039.795.5,1.051a3.482,3.482,0,0,1,1.932,2.473,4.786,4.786,0,0,1-.978,4.107l5.065-.771a9.275,9.275,0,0,1-3.819-6.054l-2.7-.806m1.2,11.009a6.479,6.479,0,0,0-2.694,5.766.556.556,0,0,0,.2.394c.485.321.992.609,1.568.955.276-.565.814-1.133.731-1.588a11.987,11.987,0,0,1,.2-5.527m-3.828-7.873v4.163a10.835,10.835,0,0,0,1.878-1.153,1.978,1.978,0,0,0,.542-2.309c-.357-.824-1.136-.7-1.837-.7-.182,0-.364,0-.582,0M71.808,101a10.417,10.417,0,0,0,1.575-.751,2.333,2.333,0,0,0,.91-2.517c-.386-.972-1.243-.8-2.017-.8a3.526,3.526,0,0,0-.468.057Zm-41.839,8.947v-3.886c-.4,0-.751-.008-1.1,0a1.339,1.339,0,0,0-1.42,1.772,2.628,2.628,0,0,0,2.52,2.112m-23.477-6.5c-.444,0-.8-.009-1.15,0a1.324,1.324,0,0,0-1.388,1.728,2.565,2.565,0,0,0,2.538,2.139Zm46.986-6.519c-.52,0-.955-.024-1.386.006a1.182,1.182,0,0,0-1.169,1.052,2.484,2.484,0,0,0,2.556,2.754ZM3.963,109.378a2.651,2.651,0,0,0,3.359,3.079l-.691-2.343-2.668-.736m44.511,3.438-.183.014a25.029,25.029,0,0,1-1.536,3.361,26.076,26.076,0,0,1-2.455,2.877l2.623.124a19.385,19.385,0,0,1,.251-1.955c.15-.655.429-1.279.619-1.926.243-.827.455-1.663.68-2.494m20.72,11.508a1.3,1.3,0,1,0-1.324-1.235,1.243,1.243,0,0,0,1.324,1.235m-23.522,6.537a1.3,1.3,0,1,0,1.307,1.332,1.238,1.238,0,0,0-1.307-1.332M23.99,112.535c1.527.12,2.168-.141,2.848-1.2-.865-.195-.879-1.7-2.111-1.321l-.737,2.52m.843-6.4,2.054-2.531-2.054-.2Z" transform="translate(0 -65.598)" fill="#0f1e5a"/>
        <path id="Path_184251" data-name="Path 184251" d="M145.948,13.02a13.04,13.04,0,0,1-25.967,1.763,12.87,12.87,0,0,1,1.848-8.661c.605-.989,1.3-1.233,2.062-.762.71.439.769,1.174.194,2.134a10.188,10.188,0,0,0-.451,10.33A10.414,10.414,0,0,0,143.188,14.7a9.989,9.989,0,0,0-4.311-10.153,9.926,9.926,0,0,0-10.785-.726,4.217,4.217,0,0,1-.512.248,1.362,1.362,0,0,1-1.742-.632,1.369,1.369,0,0,1,.666-1.8A13.658,13.658,0,0,1,132.179.02a13.084,13.084,0,0,1,13.769,13" transform="translate(-93.743 0)" fill="#0f1e5a"/>
        <path id="Path_184252" data-name="Path 184252" d="M155.51,27.836c.854,0,1.609-.007,2.364,0,1.111.012,1.54.426,1.548,1.517q.017,2.4,0,4.807c-.008,1.054-.439,1.486-1.482,1.5-.781.013-1.563,0-2.43,0,0,.848.009,1.628,0,2.407-.015,1.056-.439,1.5-1.478,1.505q-2.444.02-4.888,0c-1-.009-1.439-.447-1.458-1.442-.015-.785,0-1.57,0-2.47-.817,0-1.592.007-2.367,0-1.109-.012-1.538-.428-1.545-1.52q-.016-2.4,0-4.807c.008-1.056.436-1.483,1.482-1.5.781-.012,1.563,0,2.431,0,0-.875-.013-1.682,0-2.488.019-.959.449-1.411,1.392-1.421q2.525-.028,5.05,0c.936.011,1.36.469,1.379,1.436.015.785,0,1.57,0,2.473m1.244,5.222V30.446h-2.012c-1.514,0-1.84-.335-1.841-1.88,0-.666,0-1.333,0-2h-2.61c0,.819.01,1.6,0,2.38-.016,1.048-.445,1.477-1.492,1.493-.78.012-1.561,0-2.372,0v2.611h1.5c2.215,0,2.369.151,2.369,2.33v1.531H152.9c0-.866-.017-1.678,0-2.489a1.233,1.233,0,0,1,1.365-1.366c.81-.021,1.622,0,2.482,0" transform="translate(-112.44 -18.702)" fill="#0f1e5a"/>
        <path id="Path_184253" data-name="Path 184253" d="M65.156,104.709c-.036.074-.126.568-.318.611-1.035.234-1.034,1.768-2.214,1.718-.327-.014-.886-.16-.931-.344-.25-1.036-1.845-1.048-1.709-2.3.033-.3.185-.814.356-.847,1.036-.2,1-1.7,2.145-1.7a.247.247,0,0,1,.081,0c.32.124.885.2.919.382.2,1.052,1.8,1,1.67,2.482" transform="translate(-46.909 -79.652)" fill="#0f1e5a"/>
        <path id="Path_184254" data-name="Path 184254" d="M284.171,276.883a1.3,1.3,0,1,1-1.306-1.291,1.313,1.313,0,0,1,1.306,1.291" transform="translate(-220.228 -215.548)" fill="#0f1e5a"/>
        <path id="Path_184255" data-name="Path 184255" d="M68.545,282.841a1.3,1.3,0,1,1-1.337-1.26,1.316,1.316,0,0,1,1.337,1.26" transform="translate(-51.58 -220.232)" fill="#0f1e5a"/>
        <path id="Path_184256" data-name="Path 184256" d="M175.082,293.564a1.3,1.3,0,1,1-1.319,1.276,1.311,1.311,0,0,1,1.319-1.276" transform="translate(-135.905 -229.605)" fill="#0f1e5a"/>
        <path id="Path_184257" data-name="Path 184257" d="M284.171,300.857a1.3,1.3,0,1,1-1.3-1.3,1.314,1.314,0,0,1,1.3,1.3" transform="translate(-220.228 -234.29)" fill="#0f1e5a"/>
        <path id="Path_184258" data-name="Path 184258" d="M68.546,306.876a1.3,1.3,0,1,1-1.265-1.332,1.316,1.316,0,0,1,1.265,1.332" transform="translate(-51.581 -238.975)" fill="#0f1e5a"/>
        <path id="Path_184259" data-name="Path 184259" d="M175.019,320.123a1.3,1.3,0,1,1,1.338-1.26,1.312,1.312,0,0,1-1.338,1.26" transform="translate(-135.903 -248.345)" fill="#0f1e5a"/>
        <path id="Path_184260" data-name="Path 184260" d="M68.546,330.827a1.3,1.3,0,1,1-1.28-1.317,1.315,1.315,0,0,1,1.28,1.317" transform="translate(-51.581 -257.719)" fill="#0f1e5a"/>
        <path id="Path_184261" data-name="Path 184261" d="M176.358,342.767a1.3,1.3,0,1,1-1.32-1.277,1.315,1.315,0,0,1,1.32,1.277" transform="translate(-135.904 -267.089)" fill="#0f1e5a"/>
        <path id="Path_184265" data-name="Path 184265" d="M294.848,152.382a1.3,1.3,0,1,1,1.3-1.3,1.311,1.311,0,0,1-1.3,1.3" transform="translate(-229.597 -117.15)" fill="#0f1e5a"/>
        <path id="Path_184266" data-name="Path 184266" d="M272.191,151.054a1.3,1.3,0,1,1-1.326-1.271,1.315,1.315,0,0,1,1.326,1.271" transform="translate(-210.858 -117.149)" fill="#0f1e5a"/>
        <path id="Path_184267" data-name="Path 184267" d="M80.526,181.05a1.3,1.3,0,1,1-1.285-1.312,1.314,1.314,0,0,1,1.285,1.312" transform="translate(-60.951 -140.578)" fill="#0f1e5a"/>
        <path id="Path_184268" data-name="Path 184268" d="M56.566,181.014a1.3,1.3,0,1,1-1.321-1.275,1.315,1.315,0,0,1,1.321,1.275" transform="translate(-42.212 -140.578)" fill="#0f1e5a"/>
        <path id="Path_184269" data-name="Path 184269" d="M163.052,194.317a1.3,1.3,0,1,1,1.327-1.271,1.312,1.312,0,0,1-1.327,1.271" transform="translate(-126.535 -149.949)" fill="#0f1e5a"/>
        <path id="Path_184270" data-name="Path 184270" d="M188.338,193.032a1.3,1.3,0,1,1-1.285-1.312,1.314,1.314,0,0,1,1.285,1.312" transform="translate(-145.274 -149.949)" fill="#0f1e5a"/>
      </g>
    </g>
    <g id="Group_120812" data-name="Group 120812" transform="translate(515.023 4793.307)">
      <g id="Group_120812-2" data-name="Group 120812" clip-path="url(#clip-path-28)">
        <path id="Path_184271" data-name="Path 184271" d="M68.646,70.1c0,2.925,0,5.867,0,8.809,0,1.436-.419,1.861-1.842,1.861q-29.188,0-58.376,0a6.732,6.732,0,0,1-7.075-7.082q-.007-15.141,0-30.282a6.73,6.73,0,0,1,7.023-7.049c.729,0,1.458,0,2.187,0a4.083,4.083,0,0,0,4.26-4.218,10.273,10.273,0,0,1,.358-3.142,10.505,10.505,0,0,1,1.778-2.885,2.006,2.006,0,0,0,.554-1.387c-.027-2.187-.012-4.374-.011-6.561,0-1.618.355-1.979,1.959-1.994.217,0,.434,0,.691,0V10.843h-4c0,1.335.017,2.671,0,4.006a9.319,9.319,0,0,1-7.293,9.108,7.824,7.824,0,0,1-3.063.118,3.885,3.885,0,0,1-3.086-4.21,4.076,4.076,0,0,1,3.657-3.687c1.407-.142,1.713-.483,1.715-1.918,0-1.119,0-2.238,0-3.45-1.105-.1-2.473.3-2.726-1.375-1.288,0-2.52.009-3.752,0C.5,9.421.016,8.935.009,7.834Q-.008,5.4.009,2.956c.008-1.1.495-1.583,1.6-1.593,1.232-.011,2.464,0,3.679,0C5.786.172,6.015.015,7.242.014q12.491,0,24.982.007A5.132,5.132,0,0,1,37.18,3.162a5.1,5.1,0,0,1-.75,5.671,5.163,5.163,0,0,1-3.95,1.94c-.471.022-.944,0-1.467,0v5.389c.382,0,.739-.007,1.095,0a1.377,1.377,0,0,1,1.541,1.567q.018,3.533,0,7.066a1.468,1.468,0,0,0,.508,1.235,6.752,6.752,0,0,1,2.2,5.256q-.017,13.416,0,26.833v1.054h4.038v-.914c0-4.626.033-9.253-.019-13.879a7.7,7.7,0,0,1,.966-4.189,2.025,2.025,0,0,0,0-2.289,5.1,5.1,0,0,1-.012-5.779,1.8,1.8,0,0,0,.161-1.979c-2.526-4.307-.737-12.185,2.606-15.126a36.975,36.975,0,0,1,3.762-2.782,1.07,1.07,0,0,0,.629-1.02c-.031-2.747-.016-5.5-.013-8.243,0-1.152.22-1.444,1.332-1.824.079-.027.155-.064.235-.09,4.532-1.474,3.226-1.412,8.139.172a1.48,1.48,0,0,1,1.067,1.608c-.018,2.776,0,5.552-.017,8.327a.975.975,0,0,0,.593,1.034,13.362,13.362,0,0,1,7.5,12.227,10.266,10.266,0,0,1-1.123,5.847,2.416,2.416,0,0,0,0,1.429,2.959,2.959,0,0,0,.421.91,4.476,4.476,0,0,1-.016,4.79,3.1,3.1,0,0,0-.037,3.3,7.621,7.621,0,0,1,.717,3.133c.072,4.962.039,9.925.021,14.888a1,1,0,0,0,.6,1.036,3.852,3.852,0,0,1,2.094,3.5c.032,1.626.011,3.252.009,4.879,0,1.235-.161,1.47-1.345,1.961M64.609,59.2v-.991c0-4.569-.024-9.138.017-13.707A6.139,6.139,0,0,0,63.9,41.28a4.153,4.153,0,0,1,.017-4.471,3.125,3.125,0,0,0,0-3.595,4.3,4.3,0,0,1,.005-4.556,3.835,3.835,0,0,0,.638-1.622,24.677,24.677,0,0,0-.258-5.182c-1.13-5.344-5.8-8.7-11.378-8.384a10.692,10.692,0,0,0-9.775,9.688c-.159,1.746-.491,3.595.486,5.264a4.643,4.643,0,0,1,0,5.086,2.612,2.612,0,0,0-.016,2.98,4.835,4.835,0,0,1,.062,5.1,5.925,5.925,0,0,0-.58,2.559c-.054,4.709-.026,9.418-.026,14.127v.9h4.038V57.859c0-3.5-.006-7.008,0-10.512,0-1.139.846-1.834,1.774-1.487a1.431,1.431,0,0,1,.917,1.536c-.009,3.644,0,7.288,0,10.932v.855H52.5v-.957q0-5.424,0-10.848c0-.926.429-1.487,1.168-1.59.865-.12,1.516.536,1.518,1.576q.012,5.466,0,10.932v.868h2.692c0-3.936,0-7.8,0-11.671,0-1.086.467-1.689,1.305-1.714.862-.026,1.383.611,1.384,1.721q.005,5.382,0,10.764V59.2Zm-36.372.036c.015-.233.031-.368.031-.5q0-12.407,0-24.814c0-.99-.528-1.593-1.342-1.594s-1.339.6-1.344,1.591c-.009,2.047,0,4.094,0,6.141a4.055,4.055,0,0,1-4.342,4.374c-3.309.007-6.617,0-9.926,0-1.482,0-1.881.4-1.881,1.9q0,10.809,0,21.618c0,1.093,0,2.187,0,3.281,0,.778.382,1.394,1.146,1.418,2.286.069,4.576.025,6.9.025V70.051c-1.092-.218-1.359-.967-1.326-1.987.047-1.456.01-2.916.012-4.374,0-2.807,1.638-4.453,4.427-4.457,2.521,0,5.042,0,7.653,0M17.467,75.384c-2.206,0-4.334.007-6.461,0a4.037,4.037,0,0,1-4.269-4.275q-.009-12.532,0-25.063a4.039,4.039,0,0,1,4.321-4.306c3.364-.006,6.728,0,10.093,0,1.268,0,1.73-.459,1.734-1.715.007-2.131-.015-4.262.009-6.392a4.033,4.033,0,1,1,8.064.164q.021,12.2.005,24.39v.993h2.692V58.2q0-7.443,0-14.886c0-4.093.012-8.186-.006-12.279a3.959,3.959,0,0,0-3.762-4.081c-2.858-.071-5.718-.032-8.578-.009a3.73,3.73,0,0,0-3.447,2.676c.308,0,.606-.012.9,0a1.344,1.344,0,1,1,0,2.683c-.41.018-.822,0-1.155,0l-.569,2.694c.5,0,.975,0,1.45,0,1.071.009,1.684.487,1.7,1.322.015.861-.619,1.361-1.739,1.368-.476,0-.954.019-1.43,0a5.244,5.244,0,0,0-3.519.738,2.929,2.929,0,0,1-1.425.451c-1.281.1-2.569.134-3.856.157a4.04,4.04,0,0,0-4.171,4.208q-.012,15.307,0,30.614a4.029,4.029,0,0,0,4.247,4.211c2.018.01,4.037,0,6.055,0h3.118Zm1.385-8.133H67.3c0-1.147,0-2.236,0-3.326,0-1.643-.365-2-2.036-2H20.875c-.224,0-.449-.011-.672.005a1.306,1.306,0,0,0-1.342,1.331c-.033,1.312-.009,2.625-.009,3.99M49.8,78.043c0-1.268,0-2.443,0-3.618,0-1.115.515-1.749,1.378-1.726.833.022,1.307.634,1.311,1.71.005,1.2,0,2.394,0,3.613H55.19c0-1.339,0-2.624,0-3.909,0-.7.349-1.287,1.021-1.334a2.346,2.346,0,0,1,1.428.585c.215.169.222.669.23,1.021.025,1.22.01,2.44.01,3.646h2.692c0-1.3.007-2.554,0-3.809a1.371,1.371,0,0,1,1-1.474,1.348,1.348,0,0,1,1.687,1.444c.02,1.278,0,2.557,0,3.818h2.645V70.056H20.26V78.03h2.627c0-1.3.006-2.556,0-3.811a1.369,1.369,0,0,1,1-1.472A1.349,1.349,0,0,1,25.572,74.2c.02,1.278,0,2.556,0,3.813h2.692c0-1.244,0-2.421,0-3.6,0-1.09.466-1.688,1.308-1.712.862-.024,1.377.612,1.382,1.724,0,1.2,0,2.392,0,3.594h2.7c0-1.373-.026-2.688.009-4A1.306,1.306,0,0,1,35.022,72.7a1.335,1.335,0,0,1,1.311,1.28c.03.334.011.672.011,1.009,0,1.023,0,2.045,0,3.039h2.694c0-1.334-.019-2.618.006-3.9a1.345,1.345,0,0,1,1.5-1.417,1.37,1.37,0,0,1,1.175,1.5c.015,1.277,0,2.554,0,3.829H44.42c0-1.182,0-2.324,0-3.466a3.952,3.952,0,0,1,.045-.837A1.336,1.336,0,0,1,47.1,74.1c.024,1.307.007,2.614.007,3.946ZM8.121,8.089h8.2q7.862,0,15.723,0A2.76,2.76,0,0,0,34.8,6.406a2.708,2.708,0,0,0-2.7-3.7q-11.645-.011-23.29,0H8.121Zm22.81,10.822H20.238v5.376H30.931ZM10.772,10.8c0,1.347.011,2.627,0,3.907a4.036,4.036,0,0,1-3.88,4.146c-.977.081-1.55.636-1.492,1.443a1.377,1.377,0,0,0,1.678,1.236,6.563,6.563,0,0,0,5.879-4.2c.9-2.113.377-4.337.523-6.536ZM22.923,16.1H28.2V10.826H22.923ZM56.5,8.133H51.2v2.749H56.5Zm.038-2.768a8.01,8.01,0,0,1,.009-1.1c.089-.592-.217-.764-.712-1a4.446,4.446,0,0,0-4.159.113,1.1,1.1,0,0,0-.5.687A7.068,7.068,0,0,0,51.15,5.4c1.714,0,3.3,0,4.892,0,.134,0,.268-.016.491-.031M5.374,4.1H2.756V6.677H5.374Z" transform="translate(0 0)" fill="#0f1e5a"/>
        <path id="Path_184272" data-name="Path 184272" d="M211.543,85.252c-1.037,0-2.079-.073-3.108.015-3.045.261-5.164-1.681-4.995-5.028a8.444,8.444,0,0,1,2.79-6.41,7.667,7.667,0,0,1,8.461-1.366,7.786,7.786,0,0,1,4.913,6.952,16.238,16.238,0,0,1,.016,1.848,4.029,4.029,0,0,1-4.043,3.986c-1.344.022-2.689,0-4.034,0m0-2.691c.867,0,1.736-.033,2.6.006,2.949.135,2.878-.564,2.769-2.928a5.369,5.369,0,0,0-8.493-4.131c-1.892,1.335-2.379,3.274-2.26,5.464.059,1.09.508,1.576,1.608,1.586,1.258.012,2.517,0,3.776,0" transform="translate(-157.709 -55.628)" fill="#0f1e5a"/>
      </g>
    </g>
    <g id="Group_120814" data-name="Group 120814" transform="translate(1051.023 4787.984)">
      <g id="Group_120813" data-name="Group 120813" clip-path="url(#clip-path-29)">
        <path id="Path_184273" data-name="Path 184273" d="M59.919,86.185H47.966a2.967,2.967,0,0,1-1.992-3.225c.059-2.214.016-4.431.013-6.647,0-.3-.024-.59-.037-.877H24.017c0,2.544-.041,5.035.015,7.523a2.971,2.971,0,0,1-1.992,3.226H10.087a2.961,2.961,0,0,1-1.978-3.234c.061-1.708.014-3.421.014-5.132v-2.5c-.291-.062-.481-.1-.669-.143A9.27,9.27,0,0,1,.015,65.929Q-.013,37.7.016,9.475A9.254,9.254,0,0,1,9.505.009Q35-.012,60.5.023a10.468,10.468,0,0,1,3.053.466A9.219,9.219,0,0,1,70,9.643q.011,28.059,0,56.118c0,.224,0,.449-.016.673a9.3,9.3,0,0,1-7.268,8.7c-.264.063-.525.136-.831.216,0,2.561-.043,5.083.016,7.6a2.986,2.986,0,0,1-1.98,3.234m5.029-70.251H5.057v.83q0,24.442,0,48.884c0,2.948,1.754,4.681,4.735,4.682q25.2,0,50.408,0c3.012,0,4.746-1.74,4.746-4.757q0-24.358,0-48.716ZM5.157,10.758H64.85c.659-3.781-1.912-5.752-4.722-5.74Q35,5.125,9.876,5.017c-2.769-.012-5.39,1.926-4.72,5.74m8.086,70.316H18.9V75.415H13.242Zm43.53-5.634H51.1v5.668h5.673Z" transform="translate(0 0)" fill="#0f1e5a"/>
        <path id="Path_184275" data-name="Path 184275" d="M233.689,131.018c0,2.662.031,5.325-.01,7.987A2.489,2.489,0,0,1,230,141.333a2.533,2.533,0,0,1-1.355-2.43q0-2.858,0-5.717c0-3.335-.009-6.67,0-10a2.54,2.54,0,0,1,2.24-2.777,2.485,2.485,0,0,1,2.8,2.628c.029,2.662.008,5.324.008,7.987" transform="translate(-177.234 -93.322)" fill="#0f1e5a"/>
      </g>
    </g>
  </g>
</svg>
